<?xml version="1.0" encoding="UTF-8"?><svg id="_レイヤー_2" xmlns="http://www.w3.org/2000/svg" viewBox="0 0 32 32"><defs><style>.cls-1{fill:#f3cf22;}.cls-2{fill:#fafafa;}.cls-3{fill:#fdfbe5;}.cls-4{fill:#655135;}.cls-5{fill:#7d694f;}.cls-6{fill:#a79070;}.cls-7{fill:#c7a40c;}.cls-8{fill:#c5a40e;}.cls-9{fill:#c8baa7;}.cls-10{fill:#171717;}.cls-11{fill:#071708;}.cls-12{fill:#090909;}.cls-13{fill:#070502;}.cls-14{fill:#1d2110;}.cls-15{fill:#1c2b1c;}.cls-16{fill:#0d1a0e;}.cls-17{fill:#2b2f1e;}.cls-18{fill:#3a3f2e;}</style></defs><g id="Layer_1"><path class="cls-1" d="m6.12,9.18c.6-1.12,1.35-2.15,2.4-2.94,1.42-1.06,3-1.83,4.85-2,.56-.05,1.13-.04,1.72-.03-.03.21-.08.4-.15.6-.08.36.09.72.45.85,1.32.49,2.64.52,3.92-.08.14-.07.21-.28.31-.43.06-.09.1-.19.15-.26.06.06.12.1.19.12.4.13.82.24,1.22.38,1.15.38,2.2.94,3.07,1.74.78.72,1.34,1.59,1.82,2.51.22.43.18.81-.06,1.17-.26.4-.58.76-.9,1.13-.1.11-.25.19-.36.27.03-.04.05-.06.06-.08.13-.23.09-.53-.09-.68-.16-.13-.34-.18-.52-.05-.23.17-.2.39-.12.62.03.07.04.16.01.22-.11.29-.25.57-.38.86-.02.02-.02.04-.03.08-.04.06-.08.1-.13.14-.02.02-.03.04-.03.07,0,0-.02.02-.04.02-.22.13-.42.26-.62.4-.85.61-1.77,1.1-2.82,1.32-.62.13-1.25.19-1.89.28-.05,0-.08-.02-.12-.03-.06,0-.1,0-.17,0-.27-.05-.51-.09-.75-.14-1.78-.33-3.21-1.14-4.17-2.59-.15-.23-.3-.43-.14-.73.11-.22-.06-.44-.33-.53-.34-.11-.58-.03-.7.22-.11.25-.04.51.23.6.23.08.29.22.35.4.28.98.71,1.9,1.29,2.77-1.18-.13-2.26-.5-3.28-1.02-.6-.3-1.15-.72-1.69-1.12-1.17-.86-1.9-2-2.36-3.3-.09-.24-.11-.51-.16-.76m8.85,3.79s.04.09.07.11c.11.09.26.25.33.23.12-.04.23-.19.29-.31.07-.16.09-.34.13-.51.24-1.05.19-2.09-.2-3.11-.09-.25-.22-.52-.57-.51-.23,0-.43.27-.46.64-.08,1.16,0,2.31.4,3.47m6.61-1.01c.1.31.19.63.32.93.04.09.19.19.29.19.06,0,.14-.15.21-.24.02-.03.02-.07.03-.1.26-.93.17-1.86-.05-2.79-.08-.34-.25-.66-.43-.97-.13-.22-.36-.21-.51,0-.1.15-.21.35-.19.51.08.81.21,1.61.33,2.46m-10.6-5.59c.12-.02.25-.03.37-.06.34-.07.4-.16.4-.56,0-.37-.07-.48-.39-.55-.55-.13-1.22.07-1.5.53-.31.51-.53,1.07-.79,1.6-.07.15-.06.33.13.37.06.02.18-.16.28-.26.01-.01.01-.03.02-.05.22-.65.72-.97,1.48-1.03m1.93-1.26s.07.11.12.15c.15.11.33.18.49.04.16-.16.03-.29-.1-.4-.07-.06-.14-.15-.22-.16-.14-.02-.28.02-.42.03.04.11.07.21.14.35Z"/><path class="cls-12" d="m31.86,23.24c.05.21.16.41.14.61-.06.74-.12,1.49-.27,2.22-.11.5-.31,1-.58,1.45-.2.32-.55.59-.88.81-.58.39-1.2.74-1.82,1.07-.47.25-.96.46-1.44.68-.54.24-1.09.5-1.65.71-.49.19-1,.34-1.51.47-1.18.31-2.39.42-3.61.55-1.2.13-2.41.22-3.61.18-1.01-.03-2.04,0-3.04-.19-.61-.11-1.25-.12-1.86-.24-.83-.15-1.64-.36-2.46-.55-.65-.15-1.32-.27-1.96-.45-.77-.21-1.52-.47-2.28-.71-.42-.13-.85-.24-1.26-.41-.77-.32-1.53-.67-2.3-1.01-.28-.12-.44-.34-.52-.6-.2-.66-.41-1.32-.58-1.98-.27-1.05-.39-2.12-.34-3.2,0-.12.05-.24.11-.35.36,1.45,1.3,2.54,2.55,3.38.78.52,1.65.93,2.51,1.34.67.31,1.37.57,2.07.8.59.2,1.2.35,1.8.51.33.09.66.15,1,.24.11.05.22.07.32.1,1.28.38,2.6.6,3.94.72,1.1.1,2.2.18,3.3.2,1.18.03,2.37-.03,3.55-.04.06,0,.12,0,.17-.02.67-.17,1.34-.31,1.99-.51,1.06-.33,2.12-.67,3.14-1.08.79-.32,1.55-.71,2.27-1.15.56-.34,1.05-.78,1.55-1.2.21-.17.36-.4.55-.62.15-.19.32-.35.43-.54.22-.39.4-.79.59-1.19Z"/><path class="cls-7" d="m24.73,12.22c.12-.09.27-.17.37-.28.31-.37.63-.73.9-1.13.24-.36.28-.74.06-1.17-.48-.92-1.04-1.79-1.82-2.51-.87-.8-1.92-1.35-3.07-1.74-.4-.13-.81-.25-1.22-.38-.07-.02-.12-.07-.17-.13.11-.03.22-.03.32-.03.03,0,.05,0,.1.03.31.08.6.15.89.21,0,0,.02,0,.05.02.59.18,1.15.35,1.72.52,0,0,0,0,.01.02.2.09.38.16.56.24.02,0,.04.02.09.05.16.09.3.15.44.21.02,0,.04.02.08.05.29.23.57.44.84.64.15.14.29.27.45.44.12.13.22.23.33.33.02.02.04.05.07.1.25.34.49.65.73.96.02.04.04.08.07.15.02.07.03.1.05.13.37.66.78,1.32.92,2.07.01.05.06.1.1.15,0,.02,0,.05,0,.1.02.11.05.19.08.27,0,.02,0,.04,0,.1.02.13.04.23.06.32,0,.02,0,.04,0,.1.02.17.04.31.07.45,0,.05,0,.11,0,.2.01.17.04.3.07.44,0,.02,0,.04,0,.1.01.11.04.19.06.27.01.02.03.03.05.07.02.04.02.06.02.1-.09.41-.1.83-.29,1.17-.3.56-.7,1.09-1.1,1.6-.35.44-.77.83-1.31,1.09-1.15.55-2.39.75-3.66.81-.61.03-1.22.04-1.83.06-.99.03-1.97.06-2.96.11-1.2.06-2.38-.14-3.54-.35-1.39-.25-2.76-.54-4.08-1.06-1.36-.54-2.62-1.17-3.6-2.22-.59-.63-1-1.31-.77-2.19.04-.16,0-.34,0-.51.11-.31.21-.62.33-.92.28-.69.58-1.37.89-2.07.07.24.09.51.17.75.46,1.3,1.19,2.44,2.36,3.3.54.4,1.09.81,1.69,1.12,1.02.51,2.1.89,3.3,1.02.29.24.54.5.82.73,2.04,1.61,4.51,2.13,6.93.94,1.37-.67,2.4-1.6,2.79-3.03.13-.5.23-1,.36-1.51.08-.1.15-.19.21-.28,0,0,0,0,0,0Z"/><path class="cls-17" d="m10.05,28.56c-.33-.07-.67-.13-1-.22-.6-.16-1.21-.31-1.8-.51-.7-.24-1.41-.49-2.07-.8-.86-.41-1.73-.81-2.51-1.34-1.25-.84-2.19-1.93-2.53-3.4-.05-.34-.08-.67-.07-1.01.11-.19.17-.36.25-.52.46-.88.93-1.75,1.58-2.52.34-.41.73-.76,1.26-.93-.04.55-.15,1.08-.09,1.6.06.49.27.98.49,1.44.16.32.42.61.69.85.3.26.53.62.98.72.25.2.47.43.74.55.62.27,1.26.48,1.91.71.25.09.47.17.71.28.01,1.29.02,2.56.01,3.83,0,.32.11.44.47.44.46,0,.91,0,1.37.03-.08.26-.16.5-.26.73-.01.03-.1.03-.15.05Z"/><path class="cls-1" d="m4.87,12.19c.02.16.05.34,0,.5-.22.88.19,1.56.77,2.19.98,1.05,2.24,1.68,3.6,2.22,1.32.52,2.7.81,4.08,1.06,1.16.21,2.34.41,3.54.35.99-.05,1.97-.08,2.96-.11.61-.02,1.22-.03,1.83-.06,1.27-.05,2.51-.26,3.66-.81.54-.26.96-.65,1.31-1.09.4-.51.79-1.04,1.1-1.6.18-.34.2-.76.3-1.16.04-.02.06-.01.09,0,0,0,0,0,0,.02.02.02.04.03.05.04,0,0,0,0,0,.02.02.02.04.03.05.04,0,0,.01.02.02.05.13.22.25.41.37.6.02.06.05.11.07.2,0,.05,0,.06.03.06,0,.02.01.04,0,.09-.02.03-.02.05-.05.07-.13.3-.21.61-.35.89-.57,1.1-1.39,2.03-2.46,2.74-.54.36-1.16.64-1.78.88-.38.15-.81.17-1.22.26-1.03.22-2.07.37-3.14.38-.21,0-.42.01-.63.01-.62,0-1.24.05-1.86.02-.96-.04-1.92-.12-2.87-.2-.77-.07-1.54-.12-2.29-.27-1.38-.27-2.68-.76-3.95-1.31-1.05-.46-1.98-1.1-2.93-1.71-.64-.41-1.11-.9-1.32-1.6-.01-.04-.07-.07-.12-.13-.01-.13-.02-.24-.03-.35,0-.06.02-.11.05-.2.03-.09.03-.15.03-.21,0-.03,0-.07.04-.12.03-.09.04-.15.05-.21,0,0,0,0,.02-.02.03-.06.04-.1.04-.15.15-.54.47-.98.9-1.38m.87,3.83s-.02,0-.01-.04c-.09-.06-.18-.12-.3-.21-.1-.09-.2-.19-.28-.32-.08-.19-.22-.27-.53-.16.11.11.19.19.29.31,0,.01.02.02.01.07.07.05.13.11.22.19.12.11.23.21.34.35.13.08.25.16.42.26.01,0,.03.01.04.05.12.03.24.07.41.12.03,0,.06.01.1.05.14.14.28.29.58.22-.19-.31-.47-.44-.81-.56-.09-.06-.18-.12-.27-.21-.07-.04-.14-.07-.22-.12m7.26,2.83c.14.02.27.04.41.06,0-.04.02-.07.02-.11-.21-.05-.41-.11-.62-.16-.01.03-.02.06-.03.09.06.03.12.07.22.12Z"/><path class="cls-8" d="m3.77,14.85s.1.07.11.11c.22.69.69,1.19,1.32,1.6.95.61,1.87,1.25,2.93,1.71,1.27.55,2.57,1.04,3.95,1.31.75.14,1.52.2,2.29.27.96.08,1.91.16,2.87.2.62.03,1.24-.01,1.86-.02.21,0,.42-.01.63-.01,1.06-.01,2.1-.16,3.14-.38.41-.09.84-.11,1.22-.26.62-.25,1.23-.52,1.78-.88,1.07-.71,1.89-1.64,2.46-2.74.15-.28.22-.59.36-.87.09.16.14.31.19.46,0,.04,0,.08,0,.16,0,.57,0,1.09.02,1.61,0,.02,0,.04-.03.09-.03.07-.04.12-.04.17,0,0,0,0-.02.01-.06.11-.09.22-.13.32-.03.05-.06.11-.11.18-.36.37-.69.72-1.05,1.07-.17.12-.33.24-.5.37-.06.04-.11.08-.17.12-.77.49-1.6.78-2.48.99-.82.2-1.65.4-2.48.54-1.58.27-3.17.33-4.77.22-1.73-.12-3.46-.23-5.17-.6-2.61-.57-5.12-1.32-7.13-3.09-.31-.43-.61-.85-.91-1.28-.05-.15-.1-.28-.14-.41,0-.14-.02-.29-.03-.46,0-.04,0-.05-.01-.06,0-.12-.01-.24,0-.39.03-.03.04-.03.05-.03Z"/><path class="cls-17" d="m31.86,23.22c-.2.42-.38.82-.59,1.21-.11.19-.28.35-.45.54-.54-.04-1.05-.08-1.56-.14-1.3-.15-2.53-.48-3.66-1.12-.14-.08-.3-.14-.46-.23-.01-.13-.01-.23,0-.34.36-.13.7-.25,1.05-.38.91-.36,1.71-.86,2.34-1.54.32-.35.6-.75.57-1.26-.02-.38,0-.75.01-1.13.06.02.11.04.14.07.45.43.92.85,1.34,1.3.35.38.65.81.98,1.21.08.09.16.18.24.28.04.37.09.74.13,1.1,0,.06-.02.12-.05.21-.02.06-.03.09-.04.12,0,.02,0,.05,0,.09Z"/><path class="cls-16" d="m29.11,18.83c0,.38-.01.75,0,1.13.03.51-.25.91-.57,1.26-.63.69-1.43,1.18-2.34,1.52.12-.15.28-.27.38-.42.24-.38.44-.77.66-1.16.01-.02.03-.05.02-.08-.07-.38-.11-.77-.23-1.13-.1-.3-.04-.64.29-.65.32,0,.31-.2.48-.34-.12-.02-.19-.03-.26-.04.34-.35.67-.69,1.03-1.05.11.08.21.17.3.29.08.24.16.45.24.66Z"/><path class="cls-18" d="m3.75,15.8c.06.12.11.25.14.41-.08.07-.16.11-.2.18-.18.3-.35.6-.52.9-.53.19-.92.54-1.26.95-.65.78-1.12,1.65-1.58,2.52-.08.16-.15.33-.24.5-.06-1.3.46-2.41,1.3-3.44.66-.82,1.48-1.44,2.37-2.03Z"/><path class="cls-5" d="m18.65,2.17c.27.07.49.39.52.76.03.36,0,.72-.24,1.06-.07.03-.11.05-.16.05-.02,0-.03,0-.04.02,0,0,0,0-.02,0-.14.01-.25.02-.36.04-.76.1-1.51.17-2.22-.2-.05-.03-.15,0-.24.01-.06,0-.1,0-.14-.01-.02-.27-.04-.54-.03-.83.14.23.37.28.63.25.14-.02.28-.03.42-.06.04,0,.05-.1.09-.17.19-.08.28.02.29.15,0,.06-.12.16-.2.19-.15.05-.32.06-.48.08.07.08.14.12.22.12.42,0,.83-.02,1.25-.05.11,0,.2-.12.32-.17.07,0,.12.01.19.02.07,0,.12,0,.18.01.1.06.18.11.25.16.04-.01.07-.03.11-.04-.04-.31-.07-.63-.13-.94-.01-.08-.11-.14-.18-.23-.01-.08-.02-.15-.03-.21Z"/><path class="cls-6" d="m19.41,4.48s.06.08.07.14c-.09.06-.17.1-.27.13-.07,0-.12.01-.16.03-.89.5-1.85.6-2.85.39-.38-.08-.74-.22-1.1-.35,0-.03,0-.04,0-.07.2-.37.26-.38.64-.21.12.05.27.06.41.08.02,0,.04-.02.06-.04-.04-.07-.08-.12-.12-.18.13-.04.24-.08.36-.11.76.26,1.49.21,2.2-.07.01.09.02.22.03.22.24.02.48.02.71.02m-2.18.38c.16,0,.32.01.48.03.24.02.39-.09.55-.21l-.02-.09h-1.65c.27.08.28.4.64.27Z"/><path class="cls-5" d="m19.23,4.75c.08-.04.15-.07.25-.11.02,0,.03,0,.04.02,0,.09,0,.15,0,.22.05.31-.06.54-.4.64-.38.11-.75.23-1.14.29-.75.13-1.5.08-2.22-.16-.39-.14-.8-.28-.77-.79.02-.03.03-.04.06-.06.03,0,.04,0,.05,0,0,.01,0,.02,0,.07.07.1.13.19.22.23.82.43,1.69.49,2.6.33.51-.09.99-.24,1.31-.66Z"/><path class="cls-18" d="m29.13,18.83c-.1-.21-.19-.42-.26-.64.61.18,1.11.52,1.52.97.56.62,1.02,1.3,1.32,2.06.05.14.07.29.11.46-.08-.07-.16-.16-.23-.25-.33-.41-.63-.83-.98-1.21-.42-.45-.89-.87-1.34-1.3-.03-.03-.08-.05-.14-.07Z"/><path class="cls-6" d="m15.58.91c.02-.13.04-.26.1-.41.27-.06.5-.12.74-.15.14-.02.32-.03.44.03.24.13.72.15.95,0,.15-.1.51-.07.68.03.24.14.15.3.03.47-.08-.08-.15-.15-.18-.19-.26.1-.5.21-.75.27-.27.07-.56.13-.83.12-.39-.02-.78-.1-1.17-.16Z"/><path class="cls-4" d="m15.57.93c.4.04.78.12,1.18.14.27.01.56-.05.83-.12.25-.06.49-.17.75-.27.04.04.1.11.19.2.04.03.05.04.08.07.19.12.36.11.49-.09.06-.02.1-.04.15-.05.12.29-.09.54-.5.57-.21.02-.42.03-.62.06-.07.01-.12.09-.21.13-.09-.06-.15-.16-.22-.17-.24-.03-.48-.03-.73-.03-.06,0-.13.05-.19.07-.18-.04-.36-.07-.54-.12-.26-.07-.54-.1-.65-.4Z"/><path class="cls-9" d="m18.59.94s-.03-.02-.05-.04c.1-.18.18-.34-.06-.48-.17-.1-.54-.13-.68-.03-.22.15-.7.13-.95,0-.12-.06-.3-.05-.44-.03-.23.03-.46.09-.72.14.08-.08.18-.2.3-.24.81-.22,1.63-.39,2.47-.13.2.07.41.16.57.29.1.08.13.23.19.38-.05.04-.09.05-.17.07-.18.03-.33.05-.47.07Z"/><path class="cls-6" d="m16.83,3.1c-.02.05-.03.15-.07.16-.13.04-.28.04-.42.06-.26.03-.49-.01-.62-.27-.02-.06-.02-.12,0-.2.32-.13.61-.24.83-.32.09-.2.17-.38.27-.53.31.28.8.24,1.08-.06.03,0,.04-.01.05-.02,0,0,.02,0,.03.03.11.14.2.24.3.35.04.05.07.11.09.16-.14-.05-.25-.11-.38-.14-.13-.04-.25-.03-.25.14-.09-.01-.16-.05-.21-.04-.39.11-.77.23-1.18.35-.02.05-.03.14-.01.15.16.06.33.11.49.17Z"/><path class="cls-4" d="m14.99,4.86c-.02.5.38.65.78.79.72.25,1.47.29,2.22.16.39-.06.76-.19,1.14-.29.34-.1.45-.33.4-.64,0-.06,0-.12,0-.21.18.03.37.09.56.17-.09.01-.19.01-.31.02-.06.1-.1.2-.16.29-.1.15-.16.37-.31.43-1.29.61-2.61.57-3.92.08-.36-.13-.54-.49-.45-.85.03-.01.05,0,.05,0,0,.02,0,.03,0,.04Z"/><path class="cls-9" d="m14.99,4.8s-.02,0-.03,0c.05-.19.1-.38.16-.59.2-.11.4-.2.61-.3.05,0,.09,0,.16.01.21.14.38.26.56.38-.1.03-.21.07-.34.11.04.05.08.11.12.18-.02.01-.04.04-.06.04-.14-.02-.29-.03-.41-.08-.39-.17-.44-.16-.64.21-.01.02-.02.02-.06.03-.03,0-.06.01-.06.01Z"/><path class="cls-5" d="m17.93,1.89s-.01.03-.06.04c-.38.16-.73.02-1.08,0-.01,0-.02-.02-.02-.02,0-.14,0-.28,0-.45.07-.05.13-.09.19-.09.24,0,.49,0,.73.03.07,0,.13.11.2.18.02.1.03.19.04.3Z"/><path class="cls-9" d="m16.74,1.93s.03.01.05.02c.01,0,.01.03.01.03-.08.17-.16.34-.25.55-.22.08-.51.19-.82.3.01-.51.28-.74,1.02-.9Z"/><path class="cls-9" d="m19.41,4.46c-.23.01-.47.01-.71,0-.02,0-.02-.13-.02-.23.03-.08.04-.12.05-.16,0,0,0,0,0,0,.01,0,.04,0,.04,0,.05-.01.09-.03.15-.04.17.14.32.29.48.45Z"/><path class="cls-4" d="m27.6,11.16s-.09-.08-.1-.13c-.14-.75-.55-1.4-.92-2.07-.02-.03-.03-.07-.04-.12.22.33.47.67.64,1.03.18.4.29.84.42,1.28Z"/><path class="cls-9" d="m18.38,2.46c-.04-.05-.07-.11-.11-.16-.09-.11-.19-.22-.29-.34.21.05.42.12.65.21.02.08.03.14.03.24-.06.06-.12.09-.19.11-.04-.02-.07-.04-.1-.05Z"/><path class="cls-4" d="m28.92,17.08c-.02-.51-.03-1.03-.03-1.58.03,0,.06.01.06.03,0,.51-.01,1.03-.03,1.55Z"/><path class="cls-4" d="m22.84,5.63c-.55-.15-1.12-.32-1.69-.5.55.15,1.12.32,1.69.5Z"/><path class="cls-4" d="m26.46,8.66c-.24-.29-.48-.6-.72-.93.24.29.48.6.72.93Z"/><path class="cls-4" d="m24.87,6.83c-.27-.19-.54-.4-.82-.62.27.19.54.4.82.62Z"/><path class="cls-4" d="m21.07,5.08c-.28-.05-.56-.11-.86-.19.28.05.56.11.86.19Z"/><path class="cls-4" d="m28.63,14.41c-.13-.17-.25-.36-.36-.57.12.17.25.36.36.57Z"/><path class="cls-4" d="m28.89,15.31c-.06-.13-.11-.28-.18-.45,0-.03,0-.05.02-.06.07.16.12.33.16.51Z"/><path class="cls-4" d="m23.43,5.88c-.18-.06-.36-.13-.55-.22.18.06.36.13.55.22Z"/><path class="cls-4" d="m23.95,6.14c-.13-.05-.27-.11-.41-.18.13.05.27.11.41.18Z"/><path class="cls-4" d="m27.89,13.13c-.03-.11-.06-.24-.07-.39.03.11.06.24.07.39Z"/><path class="cls-4" d="m25.65,7.6c-.11-.08-.21-.18-.32-.3.11.08.21.18.32.3Z"/><path class="cls-4" d="m27.83,12.5c-.03-.11-.06-.25-.07-.41.03.11.06.25.07.41Z"/><path class="cls-4" d="m28.69,17.67c.02-.09.06-.2.12-.31-.02.1-.06.2-.12.31Z"/><path class="cls-4" d="m27.76,11.96c-.03-.08-.05-.18-.07-.29.03.08.05.18.07.29Z"/><path class="cls-4" d="m27.95,13.5c-.03-.06-.05-.14-.06-.23.03.06.05.14.06.23Z"/><path class="cls-4" d="m27.69,11.53c-.04-.07-.07-.15-.09-.24.04.07.07.14.09.24Z"/><path class="cls-18" d="m3.76,14.82s-.02.03-.04.04c-.02-.11-.02-.23,0-.37.02.09.03.2.04.33Z"/><path class="cls-8" d="m3.89,13.74c0,.05,0,.12-.03.19,0-.05,0-.12.03-.19Z"/><path class="cls-8" d="m3.81,14.08s.01.11,0,.17c-.01-.05-.01-.1,0-.17Z"/><path class="cls-4" d="m28.84,17.34s0-.08.03-.14c0,.04,0,.09-.03.14Z"/><path class="cls-12" d="m31.88,23.13s0-.06.02-.1c0,.02,0,.06-.02.1Z"/><path class="cls-4" d="m28.12,13.67s-.05.01-.09,0c-.01-.02-.02-.04-.02-.07.04,0,.07.03.11.07Z"/><path class="cls-8" d="m3.95,13.58s0,.08-.03.13c0-.03,0-.08.03-.13Z"/><path class="cls-4" d="m28.17,13.72s-.03,0-.05-.02c.01,0,.03,0,.05.02Z"/><path class="cls-4" d="m28.23,13.78s-.03,0-.05-.02c.01,0,.03,0,.05.02Z"/><path class="cls-4" d="m28.73,14.68s-.04,0-.03-.04c.03,0,.04,0,.03.04Z"/><path class="cls-18" d="m3.72,15.27s.02.01.02.03c-.01,0-.02-.01-.02-.03Z"/><path class="cls-13" d="m24.51,12.52c-.11.5-.21,1.01-.35,1.5-.38,1.44-1.42,2.36-2.79,3.03-2.42,1.19-4.89.67-6.93-.94-.28-.22-.52-.49-.8-.74-.61-.86-1.04-1.78-1.32-2.76-.05-.18-.12-.33-.35-.4-.27-.09-.34-.35-.23-.6.11-.26.36-.33.7-.22.27.09.44.31.33.53-.16.3,0,.51.14.73.97,1.45,2.39,2.26,4.17,2.59.24.04.49.09.77.15.08,0,.13,0,.17,0,.03,0,.06.02.13.03.78-.03,1.53-.02,2.26-.13.69-.1,1.33-.4,1.88-.81.43-.32.8-.72,1.19-1.08,0,0,.02-.01.03-.03.02-.03.03-.05.04-.07.04-.04.07-.08.12-.15.02-.04.03-.06.03-.08.13-.28.26-.56.37-.85.03-.06.01-.15-.01-.22-.09-.23-.11-.45.12-.62.18-.13.36-.08.52.05.19.15.23.45.09.68-.01.02-.04.04-.06.08,0,.02,0,.02-.03.02-.19.04-.27.12-.2.29Z"/><path class="cls-13" d="m14.96,12.96c-.39-1.14-.47-2.29-.39-3.45.02-.37.23-.64.46-.64.36,0,.48.27.57.51.39,1.01.45,2.05.2,3.11-.04.17-.06.35-.13.51-.06.13-.17.28-.29.31-.08.02-.22-.14-.33-.23-.03-.03-.05-.08-.08-.13Z"/><path class="cls-13" d="m21.58,11.94c-.11-.83-.24-1.63-.32-2.44-.02-.17.09-.36.19-.51.14-.21.38-.22.51,0,.18.3.35.63.43.97.22.92.31,1.85.05,2.79,0,.03,0,.08-.03.1-.07.09-.15.25-.21.24-.11,0-.25-.1-.29-.19-.13-.3-.22-.62-.33-.95Z"/><path class="cls-3" d="m10.96,6.37c-.74.06-1.24.38-1.46,1.03,0,.02,0,.04-.02.05-.09.09-.22.27-.28.26-.18-.05-.2-.22-.13-.37.25-.54.48-1.09.79-1.6.28-.46.95-.66,1.5-.53.31.08.39.19.39.55,0,.41-.07.49-.4.56-.12.02-.24.04-.39.06Z"/><path class="cls-8" d="m23.46,13.41c-.37.36-.74.76-1.17,1.08-.55.41-1.19.71-1.88.81-.73.11-1.48.1-2.24.13.6-.1,1.23-.16,1.85-.29,1.06-.22,1.98-.71,2.82-1.32.19-.14.4-.27.62-.4Z"/><path class="cls-3" d="m12.9,5.1c-.05-.12-.09-.23-.12-.33.14-.01.28-.05.42-.03.08.01.15.1.22.16.13.11.27.25.1.4-.15.15-.34.08-.49-.04-.05-.04-.08-.1-.14-.16Z"/><path class="cls-8" d="m18.01,15.39s-.08.01-.13,0c.03,0,.08,0,.13,0Z"/><path class="cls-8" d="m23.7,13.1s0,.03-.01.05c0-.01,0-.03.01-.05Z"/><path class="cls-8" d="m23.54,13.32s0,.03-.02.06c0-.01,0-.03.02-.06Z"/><path class="cls-14" d="m25.15,23.51c.15.07.3.13.45.21,1.13.64,2.36.97,3.66,1.12.51.06,1.02.11,1.55.16-.15.2-.31.43-.52.6-.5.42-.99.86-1.55,1.2-.72.44-1.48.83-2.27,1.15-1.02.41-2.08.75-3.14,1.08-.65.21-1.33.34-1.99.51-.05.01-.11.02-.17.02-1.18.02-2.37.07-3.55.04-1.1-.02-2.2-.11-3.3-.2-1.34-.12-2.65-.34-3.94-.72-.1-.03-.21-.06-.32-.1.05-.04.13-.04.14-.07.09-.23.17-.47.28-.74,1.13-.05,2.24-.06,3.37-.06.18,0,.34-.02.54-.04.27-.02.52-.02.78-.02.04,0,.08-.01.14-.04.35-.03.67-.06,1-.06,2.4,0,4.79.02,7.19.04.54,0,1.09,0,1.63.01.25,0,.37-.11.36-.34,0-.19-.01-.37-.03-.56-.1-1.07-.2-2.13-.31-3.2Z"/><path class="cls-1" d="m24.52,12.51c-.09-.16,0-.24.19-.28-.04.09-.11.18-.19.28Z"/><path class="cls-2" d="m13.83,27.68c-1.11.02-2.22.04-3.35.06-.48,0-.94,0-1.39,0-.36,0-.47-.12-.47-.44,0-1.27,0-2.54,0-3.85-.02-.26-.03-.49-.04-.71-.02-.44.05-.51.53-.51,1.4,0,2.81,0,4.21,0,1.9.02,3.8.06,5.7.08,1.36,0,2.71,0,4.07-.03.57,0,1.14-.05,1.72-.07.21,0,.31.08.31.29,0,.21.01.42.02.63,0,.11,0,.21.01.34.11,1.09.22,2.15.32,3.22.02.18.02.37.03.56.01.23-.11.34-.36.34-.54,0-1.09,0-1.63-.01-2.4-.01-4.79-.03-7.19-.04-.32,0-.65.03-1.01.05-.07.01-.1.02-.13.03-.25,0-.5.02-.79.03-.21.01-.37.02-.53.03m7.05-3.73c-.14-.05-.3-.08-.35.08-.02.06.08.2.16.23.11.03.25,0,.38-.01-.04-.09-.09-.18-.14-.32.09,0,.2.03.27-.01.08-.04.13-.15.19-.22-.12-.06-.24-.14-.37-.16-.07-.01-.23.06-.23.09,0,.09.07.17.11.26.01.03,0,.06-.03.06m-8.13.81c-.02.09-.05.18-.07.28.1,0,.21.02.31,0,.13-.03.25-.1.39-.17.16.48.3.93.46,1.37.03.09.17.14.26.21.03-.1.12-.22.09-.31-.08-.33-.2-.64-.31-.97-.16-.46-.15-.45.34-.61.08-.03.13-.14.19-.21-.09-.04-.18-.13-.27-.13-.17,0-.33.06-.5.1-.03-.1-.05-.17-.08-.27.09-.04.18-.08.26-.11.15-.06.44-.04.35-.28-.09-.24-.33-.11-.49-.05-.2.08-.3.05-.37-.13-.02-.06-.06-.13-.12-.14-.08-.03-.19-.04-.25-.01-.04.02-.05.14-.04.2,0,.06.05.11.09.17.1.14.05.21-.1.29-.16.09-.3.22-.42.32-.14-.03-.28-.08-.42-.09-.72-.04-1.28.31-1.82.68-.06.04-.05.17-.07.25.1,0,.22.05.3.02.24-.11.45-.25.71-.39.18.47.2.87-.16,1.24-.07.07-.11.25-.06.3.12.13.25.04.36-.07.41-.39.45-.86.32-1.36-.02-.08-.04-.16-.05-.22.29-.24.76.16.95-.3.27.3.44-.09.68-.08.14.15.1.25-.1.31-.11.04-.2.1-.33.18m5.31-.31c.13-.04.26-.08.42-.13-.01.11-.01.17-.02.22-.1.45-.2.9-.28,1.35-.01.08.09.18.14.27.08-.07.2-.13.23-.21.08-.22.13-.44.17-.67.06-.31.12-.62.16-.94.03-.23-.12-.43-.35-.39-.34.07-.67.23-.99.37-.04.02-.06.18-.02.22.03.04.16.05.24.04.09-.02.17-.08.29-.14m5.49-.23c-.05-.13-.09-.31-.29-.24-.06.02-.12.17-.11.26.06.49.13.98.22,1.46.02.12.14.22.22.33.13-.08.26-.14.37-.23.14-.12.27-.25.39-.39.06-.07.08-.16.12-.24-.09-.03-.19-.1-.26-.08-.16.04-.3.13-.46.2-.06-.34-.12-.68-.2-1.07m-2.44.87c-.26-.18-.51-.38-.78-.54-.29-.17-.66-.1-.81.14-.04.07,0,.17,0,.26.09,0,.21.03.25-.01.2-.19.36-.1.52.02.28.2.54.42.83.6.09.06.23.03.35.04-.03-.11-.04-.22-.1-.31-.05-.08-.16-.13-.27-.21m1.45-.22c-.04.23-.08.45-.1.68,0,.11,0,.3.07.33.19.08.28-.08.3-.22.05-.36.09-.71.09-1.07,0-.15-.11-.31-.22-.45-.04-.06-.19-.05-.29-.07,0,.09-.03.19,0,.28.04.16.1.31.16.51m-6.52-.11c.06,0,.12,0,.17-.03.11-.06.3-.12.31-.19,0-.19-.19-.21-.34-.17-.32.08-.64.17-.94.28-.07.02-.08.16-.13.25.1.02.21.08.3.06.2-.04.39-.13.64-.2m2.24-1.43c-.3.1-.6.19-.89.32-.07.03-.07.19-.1.28.11,0,.23.03.33,0,.23-.07.46-.16.68-.25.1-.04.19-.11.28-.16-.09-.06-.17-.13-.3-.19m-7.3.26c-.19.11-.38.2-.55.32-.06.04-.04.16-.06.25.09.01.2.05.27.02.29-.11.57-.24.84-.37.07-.03.14-.14.13-.19-.02-.06-.13-.14-.2-.13-.13,0-.26.06-.42.1Z"/><path class="cls-11" d="m25.15,23.14c-.03-.21-.05-.42-.05-.63,0-.21-.09-.3-.31-.29-.57.02-1.14.06-1.72.07-1.36.02-2.71.04-4.07.03-1.9-.01-3.8-.06-5.7-.08-1.4-.01-2.81,0-4.21,0-.48,0-.55.07-.53.51,0,.22.03.44.03.68-.24-.06-.46-.15-.71-.26-.15-.23-.28-.43-.42-.63-.15-.21-.38-.38-.48-.6-.09-.21-.03-.48-.1-.71-.12-.39.01-.75.09-1.12.04-.22.06-.42.3-.56.14-.08.13-.22-.06-.3-.19-.09-.38-.19-.56-.29-.2-.11-.41-.23-.64-.37-.02,0-.09.04-.19.08.08-.26-.07-.32-.28-.32-.06,0-.14-.02-.17-.06-.19-.2-.36-.42-.54-.65,0-.06,0-.1,0-.14,2.01,1.75,4.51,2.5,7.13,3.08,1.7.37,3.43.48,5.17.6,1.6.11,3.19.05,4.77-.22.83-.14,1.66-.34,2.48-.54.87-.21,1.71-.51,2.5-.99.08-.04.12-.08.17-.12.16-.12.31-.24.48-.36.09,0,.16.02.28.04-.17.14-.17.33-.48.34-.33,0-.39.35-.29.65.12.36.16.75.23,1.13,0,.02,0,.05-.02.08-.22.39-.42.78-.66,1.16-.1.15-.26.27-.4.42-.34.14-.68.27-1.04.4Z"/><path class="cls-16" d="m4.83,17.66c.18.21.35.42.54.63.04.04.11.06.17.06.21,0,.36.06.28.32.1-.04.17-.07.19-.08.23.13.43.25.64.37.18.1.37.21.56.29.19.08.2.22.06.3-.24.14-.25.34-.3.56-.07.37-.2.73-.09,1.12.07.23,0,.49.1.71.1.22.32.4.48.6.15.19.27.4.4.62-.63-.21-1.28-.42-1.89-.69-.27-.12-.49-.35-.74-.57-.76-1.39-1.01-2.78-.41-4.25Z"/><path class="cls-15" d="m4.83,17.64c-.6,1.48-.35,2.88.4,4.25-.44-.07-.68-.43-.97-.69-.27-.24-.54-.54-.69-.85-.22-.46-.43-.95-.49-1.44-.06-.52.05-1.05.09-1.6.18-.32.34-.63.53-.93.04-.06.12-.1.2-.16.32.41.62.83.93,1.26,0,.06,0,.1,0,.16Z"/><path class="cls-3" d="m4.93,15.64s-.02-.02-.04-.07c-.04-.1-.07-.16-.1-.22.02-.01.04-.03.05-.04.09.06.19.12.28.18.1.09.2.19.32.31.11.09.19.15.28.22,0,0,.02,0,.03.03.07.06.14.1.2.14.09.06.18.12.3.2.08.11.14.2.2.29-.03,0-.06-.01-.13-.04-.15-.06-.26-.1-.37-.13-.01,0-.03-.01-.07-.05-.15-.11-.27-.19-.39-.27-.12-.11-.23-.21-.37-.35-.08-.08-.13-.14-.19-.19Z"/><path class="cls-9" d="m6.45,16.68c-.06-.1-.12-.19-.19-.29.3.09.58.22.77.52-.31.07-.44-.07-.59-.23Z"/><path class="cls-9" d="m12.98,18.85c-.08-.04-.14-.08-.2-.11.01-.03.02-.06.03-.09.21.05.41.11.62.16,0,.04-.02.07-.02.11-.14-.02-.27-.04-.43-.07Z"/><path class="cls-9" d="m5.14,15.47c-.1-.04-.2-.1-.29-.16-.02.01-.04.03-.05.04.03.06.06.12.09.2-.08-.07-.16-.15-.27-.26.3-.11.44-.03.52.18Z"/><path class="cls-9" d="m5.49,16.19c.13.07.25.15.37.24-.12-.07-.25-.15-.37-.24Z"/><path class="cls-9" d="m5.95,16.51c.11.02.23.06.35.11-.11-.02-.23-.06-.35-.11Z"/><path class="cls-9" d="m5.73,16c-.09-.05-.17-.11-.26-.19.08.05.18.11.26.19Z"/><path class="cls-9" d="m4.93,15.65c.07.04.13.09.19.16-.06-.04-.13-.09-.19-.16Z"/><path class="cls-9" d="m5.95,16.16c-.06-.02-.12-.06-.19-.11.06.02.13.06.19.11Z"/><path class="cls-16" d="m27.02,19.3s-.07.08-.13.11c.02-.04.07-.07.13-.11Z"/><path class="cls-4" d="m18.36,2.46c.05.01.08.02.12.07.05.32.08.6.12.89-.05,0-.09,0-.16-.02-.06-.4-.22-.53-.52-.4-.07.03-.11.1-.16.16.07.04.13.07.2.11.09.05.18.09.28.14-.1.06-.2.17-.3.18-.41.04-.83.04-1.25.05-.07,0-.15-.04-.22-.12.16-.03.33-.03.48-.08.08-.03.2-.13.2-.19,0-.13-.11-.23-.29-.15-.18-.04-.35-.09-.51-.15-.02,0,0-.1.03-.14.39.06.74.13,1.1.14.23,0,.53,0,.63-.34-.11-.04-.22-.08-.33-.13-.02-.18.1-.18.23-.15.12.04.24.09.38.14Z"/><path class="cls-4" d="m18.7,4.06s0,.09-.03.15c-.72.32-1.45.37-2.21.11-.2-.13-.37-.25-.56-.38.06-.02.16-.06.21-.03.71.37,1.47.3,2.22.2.11-.01.23-.03.36-.04Z"/><path class="cls-6" d="m18.61,3.43c-.06-.29-.09-.58-.13-.89.06-.05.12-.08.18-.12.07.05.17.12.18.2.06.31.09.62.13.94-.04.01-.07.03-.11.04-.08-.05-.16-.1-.25-.16Z"/><path class="cls-9" d="m18.24,3.4c-.11-.05-.2-.09-.29-.14-.07-.03-.13-.07-.2-.11.05-.05.09-.13.16-.16.3-.13.47,0,.5.4-.05.02-.11.01-.17,0Z"/><path class="cls-4" d="m18.77,4.05s-.02.02-.03.02c0,0,.01-.02.03-.02Z"/><path class="cls-4" d="m19.21,4.75c-.3.42-.78.57-1.29.66-.91.16-1.78.11-2.6-.33-.08-.04-.14-.13-.22-.22.36.09.72.23,1.1.31,1,.21,1.96.1,2.85-.39.04-.02.09-.02.16-.03Z"/><path class="cls-9" d="m17.21,4.87c-.34.12-.35-.2-.62-.28h1.65l.02.09c-.15.12-.31.23-.55.21-.16-.02-.32-.02-.5-.02Z"/><path class="cls-6" d="m14.98,4.82s.03-.02.04-.02c0,.02,0,.03-.03.06-.01,0-.01-.01-.01-.04Z"/><path class="cls-6" d="m18.6.95c.14-.04.28-.06.45-.08-.09.19-.25.2-.45.08Z"/><path class="cls-5" d="m17.73,2.46c.13.04.24.08.35.13-.1.33-.4.34-.63.34-.35,0-.71-.08-1.08-.14.37-.13.75-.25,1.14-.36.05-.02.13.02.21.04Z"/><path class="cls-4" d="m16.81,2s-.01-.04-.02-.05c.34,0,.69.15,1.06-.01-.24.31-.72.34-1.04.06Z"/><path class="cls-17" d="m13.85,27.7c.14-.03.3-.04.49-.04-.14.02-.31.04-.49.04Z"/><path class="cls-17" d="m15.16,27.64s.05-.03.1-.03c-.02.02-.06.03-.1.03Z"/><path class="cls-10" d="m12.77,24.75c.12-.06.21-.13.32-.16.2-.07.23-.16.1-.31-.23,0-.4.38-.68.08-.19.46-.66.06-.95.3.01.06.03.14.05.22.12.5.08.97-.32,1.36-.11.1-.24.2-.36.07-.05-.05,0-.24.06-.3.36-.37.34-.78.16-1.24-.25.14-.47.28-.71.39-.08.04-.2,0-.3-.02.02-.09.01-.21.07-.25.54-.37,1.1-.72,1.82-.68.14,0,.28.06.42.09.13-.1.26-.23.42-.32.15-.08.2-.15.1-.29-.04-.05-.08-.11-.09-.17,0-.07,0-.19.04-.2.07-.03.18-.02.25.01.05.02.1.09.12.14.07.19.17.21.37.13.16-.06.41-.19.49.05.09.24-.19.22-.35.28-.09.03-.17.07-.26.11.03.1.05.17.08.27.17-.04.33-.09.5-.1.09,0,.18.08.27.13-.06.07-.11.19-.19.21-.49.16-.49.15-.34.61.11.32.23.64.31.97.02.09-.06.21-.09.31-.09-.07-.23-.12-.26-.21-.16-.44-.3-.89-.46-1.37-.14.06-.26.13-.39.17-.09.03-.2,0-.31,0,.02-.09.05-.18.09-.29Z"/><path class="cls-10" d="m18.04,24.45c-.1.05-.18.11-.27.13-.08.02-.21,0-.24-.04-.04-.05-.02-.21.02-.22.32-.14.64-.3.99-.37.23-.04.38.16.35.39-.04.31-.1.63-.16.94-.05.23-.09.45-.17.67-.03.08-.15.14-.23.21-.05-.09-.15-.19-.14-.27.08-.45.19-.9.28-1.35.01-.06.01-.12.02-.22-.16.05-.29.09-.44.14Z"/><path class="cls-10" d="m23.56,24.24c.07.36.13.71.19,1.05.16-.07.3-.16.46-.2.07-.02.17.05.26.08-.04.08-.07.17-.12.24-.12.14-.25.27-.39.39-.11.09-.25.16-.37.23-.08-.11-.19-.21-.22-.33-.09-.48-.16-.97-.22-1.46-.01-.08.04-.23.11-.26.21-.07.24.11.3.25Z"/><path class="cls-10" d="m21.13,25.1c.1.07.2.12.26.2.06.09.07.21.1.31-.12-.01-.26.01-.35-.04-.29-.19-.56-.4-.83-.6-.17-.12-.33-.21-.52-.02-.04.04-.17.01-.25.01,0-.09-.04-.19,0-.26.15-.24.51-.31.81-.14.27.16.52.36.8.55Z"/><path class="cls-10" d="m22.56,24.85c-.05-.18-.12-.33-.16-.49-.02-.09,0-.19,0-.28.1.02.25,0,.29.07.1.13.21.29.22.45,0,.36-.04.72-.09,1.07-.02.14-.12.3-.3.22-.06-.03-.08-.22-.07-.33.02-.23.07-.45.1-.7Z"/><path class="cls-10" d="m16.02,24.76c-.22.07-.41.15-.61.19-.09.02-.2-.04-.3-.06.04-.09.06-.23.13-.25.31-.11.62-.2.94-.28.15-.03.34-.02.34.17,0,.07-.2.13-.31.19-.05.02-.11.02-.19.03Z"/><path class="cls-10" d="m18.3,23.33c.11.06.19.13.28.19-.09.05-.18.12-.28.16-.22.09-.45.18-.68.25-.1.03-.22,0-.33,0,.03-.1.03-.25.1-.28.29-.13.59-.22.91-.32Z"/><path class="cls-10" d="m11,23.58c.15-.04.27-.09.4-.1.07,0,.19.07.2.13.02.05-.06.16-.13.19-.27.14-.55.26-.84.37-.07.03-.18-.01-.27-.02.02-.09,0-.21.06-.25.17-.12.37-.22.57-.33Z"/><path class="cls-17" d="m20.92,23.98s0-.06-.01-.09c-.04-.09-.11-.17-.11-.26,0-.03.16-.11.23-.09.13.03.25.11.37.16-.06.08-.11.18-.19.22-.07.04-.18,0-.28.04,0,.03,0,.02,0,.02Z"/><path class="cls-15" d="m20.9,23.97s.03.02.03.02c.05.09.09.18.14.26-.13,0-.27.05-.38.01-.08-.02-.18-.17-.16-.23.05-.17.21-.13.37-.07Z"/></g></svg>