<svg version="1.1" id="Layer_1" xmlns="http://www.w3.org/2000/svg" xmlns:xlink="http://www.w3.org/1999/xlink" x="0px" y="0px"
	 width="100%" viewBox="0 0 1024 1024" enable-background="new 0 0 1024 1024" xml:space="preserve">
<path fill="#000000" opacity="1.000000" stroke="none" 
	d="
M679.000000,1025.000000 
	C452.666656,1025.000000 226.833328,1025.000000 1.000000,1025.000000 
	C1.000000,683.666687 1.000000,342.333344 1.000000,1.000000 
	C342.333344,1.000000 683.666687,1.000000 1025.000000,1.000000 
	C1025.000000,342.333344 1025.000000,683.666687 1025.000000,1025.000000 
	C909.833313,1025.000000 794.666687,1025.000000 679.000000,1025.000000 
M715.803711,440.194885 
	C715.803711,440.194885 715.772095,440.141998 715.718872,439.634491 
	C715.430176,439.495117 715.141479,439.355713 714.835693,439.172363 
	C714.835693,439.172363 714.793274,439.151764 714.810608,438.514740 
	C714.172241,438.130524 713.533813,437.746307 712.450867,436.955353 
	C712.206482,436.637207 711.962097,436.319061 711.889343,435.262238 
	C711.570190,433.846252 711.251038,432.430237 710.872498,430.390900 
	C710.824219,429.976288 710.775879,429.561676 710.940308,428.292786 
	C710.570435,425.864899 710.200500,423.437042 709.789551,420.253510 
	C709.729797,419.246857 709.670044,418.240173 709.846130,416.382690 
	C709.428406,413.821411 709.010681,411.260132 708.512817,408.117401 
	C708.473572,407.728027 708.434326,407.338654 708.744141,406.359344 
	C708.339722,404.487183 707.935242,402.615021 707.397949,400.151306 
	C707.335510,399.752045 707.273071,399.352783 707.574890,398.475647 
	C707.041260,396.998383 706.507629,395.521118 705.873352,393.402710 
	C705.787720,392.978668 705.702148,392.554626 705.802002,391.346466 
	C703.361084,383.431519 701.505493,375.270081 698.306763,367.674255 
	C695.387573,360.742157 691.013123,354.422913 686.963623,347.289062 
	C686.595703,346.537140 686.227722,345.785217 685.855591,344.324829 
	C681.668762,338.488586 677.481873,332.652344 672.950317,326.369995 
	C672.583008,325.942688 672.215637,325.515411 671.858887,324.408875 
	C670.029480,322.516327 668.200073,320.623749 665.928589,318.228516 
	C663.384277,315.652313 660.840027,313.076111 658.062378,309.905975 
	C653.332275,306.016113 648.602112,302.126282 643.343506,297.960175 
	C642.984070,297.790619 642.624695,297.621094 642.022461,296.863159 
	C639.634521,295.699036 637.246521,294.534912 634.306396,293.079651 
	C633.927979,292.906586 633.549561,292.733551 632.911743,291.969849 
	C629.676575,290.583344 626.441467,289.196808 623.151428,287.795563 
	C623.151428,287.795563 623.099121,287.773346 622.710938,287.221344 
	C612.875183,284.091125 603.039429,280.960907 592.711426,277.712189 
	C592.549133,277.665649 592.386902,277.619141 591.871704,276.979004 
	C586.893005,275.766907 581.914368,274.554810 576.277771,273.187592 
	C575.835938,273.099030 575.394165,273.010468 574.583130,272.338562 
	C571.388916,271.223816 568.194641,270.109070 564.872070,268.797974 
	C564.872070,268.797974 564.637573,268.793518 564.530457,268.109619 
	C564.042480,267.380463 563.554443,266.651306 562.879150,265.264099 
	C560.227234,262.534302 557.575378,259.804504 555.059570,256.345154 
	C558.675232,250.282669 559.339050,243.664490 558.793457,236.799500 
	C558.250427,229.968140 554.377014,223.828201 549.231079,222.036850 
	C545.495544,220.705322 541.760010,219.373810 537.785156,217.699249 
	C537.785156,217.699249 537.368408,217.664032 537.134460,216.873352 
	C536.987305,215.199921 536.840149,213.526505 537.280579,211.369522 
	C538.323364,210.511368 539.269287,209.101059 540.427063,208.897873 
	C544.003174,208.270187 547.659058,208.091187 551.285889,207.759171 
	C558.370361,207.110611 562.101624,202.493240 560.057007,196.192291 
	C558.975647,193.920074 558.452576,190.954559 556.686646,189.532394 
	C553.780396,187.191864 550.225769,185.398880 546.670166,184.167099 
	C532.061707,179.106293 517.759521,182.477600 503.623932,186.536087 
	C501.488647,187.149170 499.844482,189.472763 497.306641,191.387482 
	C496.953125,193.870316 496.599609,196.353149 496.088165,199.568161 
	C498.105072,204.828308 503.057709,205.452850 507.541748,206.725632 
	C510.660095,207.610748 513.848511,208.248932 516.905457,209.880112 
	C516.888550,212.524948 516.871643,215.169800 516.114563,218.019485 
	C503.665039,220.881592 499.021729,225.320572 498.179077,235.672455 
	C498.220337,236.752670 498.261597,237.832901 498.011230,239.801147 
	C498.348999,244.864746 498.686737,249.928329 498.502838,255.461655 
	C495.055634,257.141785 491.608429,258.821930 487.205109,260.417633 
	C477.394592,260.726013 467.531189,260.492157 457.783203,261.442078 
	C425.495941,264.588318 397.911285,279.147461 373.245087,299.066620 
	C354.914856,313.869110 341.950958,333.377014 330.946442,354.891388 
	C325.869507,367.803833 320.703186,380.682190 315.756989,393.644562 
	C313.597626,399.303650 311.888947,405.134674 309.355469,411.172119 
	C302.068024,418.488647 296.512878,426.839539 293.438354,437.390015 
	C293.272003,438.223450 293.105652,439.056915 292.880096,439.940643 
	C292.880096,439.940643 292.904053,440.014587 292.478180,440.385162 
	C292.263855,441.582642 292.049561,442.780151 291.574310,444.544067 
	C291.510986,445.161285 291.447693,445.778503 290.890472,446.849884 
	C290.833374,447.923187 290.776245,448.996490 290.432617,450.839020 
	C290.263458,451.920258 290.094299,453.001465 289.373108,454.644867 
	C289.369415,456.872131 289.365753,459.099396 289.396149,462.097290 
	C289.509338,464.401794 289.622498,466.706329 289.457703,469.199768 
	C289.580078,469.457764 289.702423,469.715729 289.944824,470.803925 
	C290.116058,473.487427 290.287292,476.170898 289.856598,479.039215 
	C274.611176,490.043274 260.350952,501.819672 248.850647,517.160095 
	C234.267700,536.612427 225.272858,557.439941 225.394684,582.574463 
	C225.933777,588.716248 226.472885,594.857971 226.416748,601.492676 
	C225.944504,603.719177 225.155396,605.930786 225.049484,608.174561 
	C224.089539,628.514893 226.289307,648.594177 230.961380,668.354980 
	C233.927185,680.898987 237.562302,693.289734 241.103897,705.690186 
	C242.506638,710.601685 245.187363,714.726074 250.099823,717.053894 
	C263.450348,723.380371 276.645020,730.052063 290.139130,736.052307 
	C297.185822,739.185669 304.724915,741.217102 312.055725,743.704651 
	C325.287872,748.194580 338.420990,753.020874 351.802673,757.011902 
	C363.043945,760.364563 374.576416,762.743530 385.986450,765.527100 
	C400.288422,769.016113 414.507782,772.925110 428.932190,775.804077 
	C439.609161,777.935120 450.685425,778.074646 461.354523,780.234192 
	C478.926910,783.791016 496.726318,783.250610 514.401672,783.753540 
	C535.414551,784.351379 556.407532,782.821960 577.387939,780.296265 
	C598.538391,777.750122 619.706787,775.729614 640.256958,769.895691 
	C649.169373,767.365601 658.045410,764.520203 666.619263,761.034058 
	C676.378113,757.066101 685.833008,752.330017 695.323120,747.727966 
	C703.789307,743.622375 712.351257,739.633972 720.459717,734.890808 
	C731.257141,728.574585 741.952576,721.991028 752.112183,714.713257 
	C757.948181,710.532715 764.055786,705.557678 767.499756,699.496338 
	C772.236633,691.159302 775.793213,681.695618 777.638855,672.280090 
	C780.324158,658.581177 781.303833,644.516357 782.408142,630.559875 
	C782.706055,626.794739 780.826965,622.857422 779.980957,618.338806 
	C780.014343,617.899414 780.047729,617.459961 780.638062,616.933228 
	C780.745789,616.285278 780.853516,615.637268 780.990845,614.136536 
	C781.189514,612.996948 781.650146,611.832336 781.544067,610.721863 
	C780.881409,603.786560 780.092224,596.863342 779.194092,589.108704 
	C778.581116,586.367554 778.258728,583.520752 777.306824,580.902893 
	C772.082458,566.536377 764.093445,553.719849 754.257507,542.139709 
	C747.188843,533.817505 738.496277,527.428711 727.887146,523.085327 
	C726.225159,521.381042 724.563110,519.676819 722.994080,517.306824 
	C723.495117,516.307983 723.996155,515.309143 725.076355,513.972046 
	C725.758789,512.026428 726.441284,510.080780 727.105164,508.090088 
	C727.105164,508.090088 727.149902,508.070679 727.620178,507.790192 
	C727.794800,506.869751 727.969421,505.949310 728.241516,504.423767 
	C728.320190,504.022919 728.398865,503.622070 729.098816,502.795380 
	C729.209656,493.143066 729.331055,483.490845 729.386536,473.838226 
	C729.388489,473.506866 728.728943,473.171722 728.267944,472.124847 
	C728.214172,471.405121 728.160461,470.685425 728.494751,469.398865 
	C727.562073,466.275726 726.629333,463.152588 725.529785,459.419403 
	C725.433228,459.009064 725.336670,458.598694 725.541809,457.811523 
	C725.563904,457.415405 725.378235,457.190918 724.754333,456.490997 
	C724.356384,455.417511 723.958496,454.344055 723.777710,452.555359 
	C721.624634,448.988617 719.471619,445.421844 717.028748,441.518707 
	C717.028748,441.518707 716.778931,441.151703 716.725403,440.643707 
	C716.435791,440.504669 716.146179,440.365601 715.803711,440.194885 
z"/>
<path fill="#F3CF22" opacity="1.000000" stroke="none" 
	d="
M331.450378,354.427490 
	C341.950958,333.377014 354.914856,313.869110 373.245087,299.066620 
	C397.911285,279.147461 425.495941,264.588318 457.783203,261.442078 
	C467.531189,260.492157 477.394592,260.726013 487.669617,260.892212 
	C487.183533,264.883026 486.232941,268.399292 484.977020,272.164062 
	C483.504120,278.903809 486.627991,285.688568 492.897797,288.213135 
	C515.860962,297.459381 538.843933,298.061279 561.291016,286.672760 
	C563.812317,285.393585 564.983154,281.351410 566.640381,278.509003 
	C567.610779,276.844543 568.304138,275.018524 569.182861,273.659058 
	C570.299072,274.715424 571.275208,275.610291 572.423035,276.002380 
	C579.477478,278.411896 586.632263,280.537811 593.639465,283.073669 
	C613.660400,290.319000 631.904724,300.696716 647.053589,315.754974 
	C660.702087,329.321838 670.458679,345.599701 678.762512,362.959991 
	C682.637146,371.060455 681.960815,378.205811 677.761597,385.039337 
	C673.182190,392.491638 667.578674,399.336884 662.146118,406.229645 
	C660.458984,408.370300 657.874023,409.803406 655.851074,411.254089 
	C656.314209,410.562592 656.700867,410.216553 656.927124,409.786194 
	C659.235352,405.395355 658.546204,399.806793 655.286377,397.008545 
	C652.515320,394.630005 649.367310,393.659454 646.278992,396.143433 
	C642.294983,399.347809 642.769226,403.521973 644.261169,407.861176 
	C644.705811,409.154205 644.937805,410.846283 644.485596,412.065613 
	C642.485168,417.459564 640.200012,422.747925 637.783813,428.208649 
	C637.476501,428.677673 637.403320,429.012543 637.234741,429.633423 
	C636.524780,430.700500 635.910156,431.481598 635.007812,432.345215 
	C634.629333,432.792542 634.538574,433.157379 634.400085,433.690186 
	C634.352417,433.858154 634.060120,434.049042 633.707153,434.057739 
	C629.880615,436.578888 626.321960,438.982697 622.948120,441.622681 
	C608.186646,453.173157 592.165222,462.387543 573.748596,466.479614 
	C563.011414,468.865387 552.005554,470.041718 540.737549,471.777344 
	C539.869263,471.643707 539.383972,471.494904 538.654175,471.178131 
	C537.628357,471.007935 536.846985,471.005707 535.652771,471.007996 
	C531.005127,470.157959 526.772217,469.294647 522.535400,468.450165 
	C491.527344,462.269684 466.676025,446.926208 449.820160,419.649872 
	C447.177490,415.373505 444.610535,411.471649 447.321014,405.856659 
	C449.307861,401.740692 446.308807,397.500183 441.576508,395.865784 
	C435.649323,393.818695 431.421570,395.293945 429.443512,400.099518 
	C427.483154,404.862061 428.790649,409.724152 433.479614,411.367737 
	C437.509064,412.780060 438.604095,415.559143 439.520630,418.963898 
	C444.478302,437.379822 451.877472,454.727142 461.973175,471.024109 
	C441.449371,468.620819 422.535828,461.545868 404.814819,451.879395 
	C394.305328,446.146729 384.829712,438.352173 375.396576,430.847015 
	C355.030884,414.643677 342.263153,393.174469 334.215698,368.750122 
	C332.706451,364.169464 332.342712,359.211395 331.450378,354.427490 
M485.650482,425.808380 
	C486.053345,426.533203 486.296600,427.446228 486.888458,427.948212 
	C488.799957,429.569580 491.359772,432.640686 492.711029,432.201752 
	C494.863678,431.502441 496.786163,428.662598 497.815338,426.297028 
	C499.118835,423.300903 499.464478,419.880554 500.164490,416.630524 
	C504.430145,396.825470 503.431580,377.288330 496.662842,358.186829 
	C495.023590,353.560944 492.870667,348.484772 486.672852,348.525238 
	C482.728302,348.550964 479.136627,353.571442 478.709229,360.507019 
	C477.361237,382.380829 478.678680,404.042511 485.650482,425.808380 
M600.900757,406.732025 
	C602.720642,412.598297 604.267212,418.573059 606.526062,424.265167 
	C607.209167,425.986694 609.801208,427.766632 611.641846,427.907013 
	C612.746704,427.991302 614.141174,424.991943 615.294067,423.302429 
	C615.642700,422.791504 615.601624,422.021729 615.767029,421.377716 
	C620.274841,403.826050 618.661316,386.288300 614.858459,368.961121 
	C613.470276,362.635895 610.476440,356.502411 607.309814,350.782654 
	C605.064819,346.727692 600.969177,346.872711 598.491699,350.807648 
	C596.708313,353.639984 594.907166,357.341766 595.205811,360.455139 
	C596.662598,375.646851 598.822510,390.771149 600.900757,406.732025 
M416.248993,301.464203 
	C418.380524,301.120575 420.535797,300.883118 422.639038,300.412994 
	C428.485260,299.106232 429.549988,297.436493 429.635376,289.804901 
	C429.712280,282.931885 428.329895,280.801605 422.873474,279.384460 
	C413.363403,276.914551 401.650055,280.626526 396.755127,289.374146 
	C391.376007,298.987091 387.474304,309.433350 383.047516,319.568359 
	C381.792328,322.442078 382.048004,325.688354 385.263092,326.615723 
	C386.322510,326.921295 388.463440,323.525391 390.079437,321.793640 
	C390.286652,321.571564 390.316254,321.179657 390.417053,320.862885 
	C394.294250,308.677307 402.900116,302.590729 416.248993,301.464203 
M449.796387,277.839539 
	C450.500397,278.764740 451.056702,279.873627 451.936127,280.580658 
	C454.585785,282.710999 457.768890,284.053589 460.456512,281.266876 
	C463.284882,278.334229 460.977692,275.771790 458.646545,273.655334 
	C457.420258,272.541901 456.155640,270.886597 454.742554,270.694244 
	C452.377319,270.372375 449.879333,271.025848 447.437225,271.268829 
	C448.070526,273.277252 448.703827,275.285706 449.796387,277.839539 
z"/>
<path fill="#090909" opacity="1.000000" stroke="none" 
	d="
M779.947205,618.999146 
	C780.826965,622.857422 782.706055,626.794739 782.408142,630.559875 
	C781.303833,644.516357 780.324158,658.581177 777.638855,672.280090 
	C775.793213,681.695618 772.236633,691.159302 767.499756,699.496338 
	C764.055786,705.557678 757.948181,710.532715 752.112183,714.713257 
	C741.952576,721.991028 731.257141,728.574585 720.459717,734.890808 
	C712.351257,739.633972 703.789307,743.622375 695.323120,747.727966 
	C685.833008,752.330017 676.378113,757.066101 666.619263,761.034058 
	C658.045410,764.520203 649.169373,767.365601 640.256958,769.895691 
	C619.706787,775.729614 598.538391,777.750122 577.387939,780.296265 
	C556.407532,782.821960 535.414551,784.351379 514.401672,783.753540 
	C496.726318,783.250610 478.926910,783.791016 461.354523,780.234192 
	C450.685425,778.074646 439.609161,777.935120 428.932190,775.804077 
	C414.507782,772.925110 400.288422,769.016113 385.986450,765.527100 
	C374.576416,762.743530 363.043945,760.364563 351.802673,757.011902 
	C338.420990,753.020874 325.287872,748.194580 312.055725,743.704651 
	C304.724915,741.217102 297.185822,739.185669 290.139130,736.052307 
	C276.645020,730.052063 263.450348,723.380371 250.099823,717.053894 
	C245.187363,714.726074 242.506638,710.601685 241.103897,705.690186 
	C237.562302,693.289734 233.927185,680.898987 230.961380,668.354980 
	C226.289307,648.594177 224.089539,628.514893 225.049484,608.174561 
	C225.155396,605.930786 225.944504,603.719177 226.981079,601.497070 
	C233.281952,628.827271 249.597046,649.324097 271.366699,665.193787 
	C284.883362,675.047058 300.118286,682.707581 315.100769,690.332947 
	C326.711884,696.242493 338.978516,700.976501 351.230682,705.479492 
	C361.465393,709.240967 372.066559,712.033447 382.574036,715.013184 
	C388.285309,716.632812 394.139557,717.748352 400.043640,719.447754 
	C401.989716,720.329712 403.836578,720.807800 405.650909,721.387573 
	C427.999023,728.528870 450.970703,732.718201 474.248016,734.959167 
	C493.368927,736.800049 512.566833,738.352661 531.759338,738.799744 
	C552.362244,739.279663 572.998840,738.324280 593.620361,737.974976 
	C594.609070,737.958252 595.626587,737.864319 596.576538,737.606628 
	C608.168152,734.462158 619.943176,731.847839 631.289795,727.979248 
	C649.707825,721.699707 668.175842,715.354309 685.990906,707.587463 
	C699.726196,701.599182 712.981506,694.135193 725.531433,685.923218 
	C735.290588,679.537292 743.800964,671.172607 752.525024,663.308716 
	C756.142273,660.048157 758.870117,655.800903 762.160522,651.708374 
	C764.791992,648.112366 767.773254,645.071350 769.632019,641.453613 
	C773.392578,634.134277 776.544373,626.502197 779.947205,618.999146 
z"/>
<path fill="#C7A40C" opacity="1.000000" stroke="none" 
	d="
M655.700073,411.560394 
	C657.874023,409.803406 660.458984,408.370300 662.146118,406.229645 
	C667.578674,399.336884 673.182190,392.491638 677.761597,385.039337 
	C681.960815,378.205811 682.637146,371.060455 678.762512,362.959991 
	C670.458679,345.599701 660.702087,329.321838 647.053589,315.754974 
	C631.904724,300.696716 613.660400,290.319000 593.639465,283.073669 
	C586.632263,280.537811 579.477478,278.411896 572.423035,276.002380 
	C571.275208,275.610291 570.299072,274.715424 569.415283,273.464905 
	C571.375366,272.891907 573.163879,272.906921 574.952332,272.921936 
	C575.394165,273.010468 575.835938,273.099030 576.739746,273.575256 
	C582.209351,275.166138 587.217041,276.369385 592.224670,277.572632 
	C592.386902,277.619141 592.549133,277.665649 593.176880,278.039551 
	C603.461304,281.502411 613.280212,284.637878 623.099121,287.773346 
	C623.099121,287.773346 623.151428,287.795563 623.353760,288.089050 
	C626.761047,289.775177 629.966125,291.167847 633.171143,292.560486 
	C633.549561,292.733551 633.927979,292.906586 634.672485,293.534393 
	C637.447449,295.143280 639.856323,296.297424 642.265259,297.451569 
	C642.624695,297.621094 642.984070,297.790619 643.684814,298.417297 
	C648.782654,302.749573 653.539246,306.624725 658.295776,310.499878 
	C660.840027,313.076111 663.384277,315.652313 666.106445,318.824524 
	C668.138916,321.309723 669.993591,323.198914 671.848328,325.088104 
	C672.215637,325.515411 672.583008,325.942688 673.091431,326.945984 
	C677.441589,333.359100 681.650696,339.196198 685.859802,345.033295 
	C686.227722,345.785217 686.595703,346.537140 687.073975,347.924011 
	C687.426270,349.172668 687.615784,349.813660 687.918091,350.396088 
	C694.401367,362.888184 701.433838,375.147827 703.918457,389.297028 
	C704.096313,390.309723 705.032776,391.189178 705.616516,392.130585 
	C705.702148,392.554626 705.787720,392.978668 705.739197,393.950989 
	C706.140259,395.984009 706.675476,397.468750 707.210693,398.953491 
	C707.273071,399.352783 707.335510,399.752045 707.332764,400.854614 
	C707.643433,403.355011 708.019287,405.152130 708.395142,406.949249 
	C708.434326,407.338654 708.473572,407.728027 708.387207,408.827271 
	C708.711182,412.102631 709.160767,414.668060 709.610291,417.233521 
	C709.670044,418.240173 709.729797,419.246857 709.587952,420.935181 
	C709.833435,424.126953 710.280518,426.636993 710.727600,429.147064 
	C710.775879,429.561676 710.824219,429.976288 710.691956,430.959045 
	C710.913513,433.018433 711.315613,434.509674 711.717773,436.000916 
	C711.962097,436.319061 712.206482,436.637207 712.670593,437.397278 
	C713.012756,438.142975 713.057556,438.457794 713.008789,439.239716 
	C711.438904,446.917816 711.236572,454.819183 708.025696,461.208710 
	C702.711365,471.784363 695.910278,481.717163 688.885559,491.297516 
	C682.809509,499.583984 675.471313,506.975983 666.131531,511.786163 
	C646.134094,522.085205 624.548218,525.946716 602.332703,526.974243 
	C591.715332,527.465393 581.084961,527.670593 570.462708,528.064514 
	C553.276306,528.701721 536.076416,529.123657 518.910339,530.120605 
	C497.951996,531.337769 477.492798,527.445190 457.221710,523.531372 
	C433.041504,518.862854 409.063354,513.366699 386.059753,503.542236 
	C362.318176,493.402618 340.331390,481.479004 323.287994,461.740570 
	C313.074036,449.911469 305.926178,437.032745 309.809509,420.461151 
	C310.521240,417.423798 309.953003,414.086456 309.975586,410.887604 
	C311.888947,405.134674 313.597626,399.303650 315.756989,393.644562 
	C320.703186,380.682190 325.869507,367.803833 331.198395,354.659424 
	C332.342712,359.211395 332.706451,364.169464 334.215698,368.750122 
	C342.263153,393.174469 355.030884,414.643677 375.396576,430.847015 
	C384.829712,438.352173 394.305328,446.146729 404.814819,451.879395 
	C422.535828,461.545868 441.449371,468.620819 462.281677,471.157043 
	C467.396484,475.654785 471.627655,480.635895 476.538879,484.818512 
	C512.122253,515.123047 555.093323,524.896729 597.284729,502.536102 
	C621.116577,489.905731 639.129578,472.469299 645.826416,445.440521 
	C648.142273,436.093536 649.857788,426.597809 652.144043,416.976257 
	C653.573059,415.097595 654.705566,413.412689 655.789795,411.697327 
	C655.741455,411.666870 655.700073,411.560394 655.700073,411.560394 
z"/>
<path fill="#2B2F1E" opacity="1.000000" stroke="none" 
	d="
M399.929291,719.091187 
	C394.139557,717.748352 388.285309,716.632812 382.574036,715.013184 
	C372.066559,712.033447 361.465393,709.240967 351.230682,705.479492 
	C338.978516,700.976501 326.711884,696.242493 315.100769,690.332947 
	C300.118286,682.707581 284.883362,675.047058 271.366699,665.193787 
	C249.597046,649.324097 233.281952,628.827271 227.278702,601.250610 
	C226.472885,594.857971 225.933777,588.716248 226.010788,582.220093 
	C227.888031,578.718201 228.962677,575.480042 230.441330,572.438171 
	C238.464249,555.933716 246.680161,539.542603 258.001831,524.935974 
	C263.970367,517.235779 270.770172,510.656067 279.943848,507.401489 
	C279.259827,517.705566 277.265259,527.767822 278.391479,537.467773 
	C279.469238,546.750488 283.037903,555.997803 286.944305,564.611023 
	C289.653992,570.585510 294.218964,576.052673 298.999817,580.663025 
	C304.140320,585.620056 308.238525,592.252625 316.139801,594.302734 
	C320.505157,598.008911 324.251648,602.402405 329.011719,604.633118 
	C339.740204,609.660767 350.970398,613.618042 362.341492,618.081787 
	C366.652008,619.752808 370.617462,621.352966 374.776215,623.388916 
	C374.983826,647.720642 375.066040,671.616760 374.965240,695.512146 
	C374.939636,701.576782 376.960785,703.854553 383.183960,703.841370 
	C391.120605,703.824646 399.057465,703.899841 407.005981,704.347534 
	C405.557404,709.234436 404.173279,713.737427 402.541687,718.148865 
	C402.334686,718.708435 400.831787,718.788818 399.929291,719.091187 
z"/>
<path fill="#F3CF22" opacity="1.000000" stroke="none" 
	d="
M309.665527,411.029846 
	C309.953003,414.086456 310.521240,417.423798 309.809509,420.461151 
	C305.926178,437.032745 313.074036,449.911469 323.287994,461.740570 
	C340.331390,481.479004 362.318176,493.402618 386.059753,503.542236 
	C409.063354,513.366699 433.041504,518.862854 457.221710,523.531372 
	C477.492798,527.445190 497.951996,531.337769 518.910339,530.120605 
	C536.076416,529.123657 553.276306,528.701721 570.462708,528.064514 
	C581.084961,527.670593 591.715332,527.465393 602.332703,526.974243 
	C624.548218,525.946716 646.134094,522.085205 666.131531,511.786163 
	C675.471313,506.975983 682.809509,499.583984 688.885559,491.297516 
	C695.910278,481.717163 702.711365,471.784363 708.025696,461.208710 
	C711.236572,454.819183 711.438904,446.917816 713.300415,439.330322 
	C714.002991,439.027191 714.398132,439.089478 714.793274,439.151764 
	C714.793274,439.151764 714.835693,439.172363 714.873047,439.445923 
	C715.197571,439.860291 715.484863,440.001160 715.772095,440.141998 
	C715.772095,440.141998 715.803711,440.194885 715.861450,440.461548 
	C716.205750,440.869385 716.492371,441.010559 716.778931,441.151703 
	C716.778931,441.151703 717.028748,441.518707 717.165100,442.035034 
	C719.387817,446.124451 721.474182,449.697540 723.560547,453.270599 
	C723.958496,454.344055 724.356384,455.417511 724.765747,457.005157 
	C724.760132,457.860901 724.914490,458.083893 725.240173,458.188324 
	C725.336670,458.598694 725.433228,459.009064 725.407104,459.795990 
	C725.139771,460.427979 725.032043,460.698120 724.596985,461.068176 
	C722.351624,466.731567 721.022400,472.574982 718.492126,477.841309 
	C708.525818,498.584351 694.276306,516.109375 675.552063,529.380737 
	C666.055847,536.111450 655.317139,541.345093 644.592651,545.991821 
	C638.034790,548.833191 630.414062,549.173584 623.312073,550.816284 
	C605.320129,554.977966 587.158447,557.774780 568.654602,558.035461 
	C564.994202,558.086975 561.335571,558.252319 557.675232,558.314880 
	C546.869873,558.499390 536.037598,559.212585 525.264404,558.699890 
	C508.545624,557.904297 491.844543,556.501831 475.178345,554.912231 
	C461.837341,553.639648 448.374146,552.595581 435.293671,549.872437 
	C411.278168,544.872742 388.633209,535.593750 366.447632,525.229004 
	C348.101166,516.657837 331.999329,504.590271 315.455872,493.135864 
	C304.372620,485.461975 296.177124,476.107147 292.388885,463.067780 
	C292.155212,462.263519 291.118622,461.692535 290.378540,460.581299 
	C290.176025,458.127289 290.050568,456.105011 289.925110,454.082703 
	C290.094299,453.001465 290.263458,451.920258 290.875977,450.280243 
	C291.341034,448.612885 291.362732,447.504303 291.384399,446.395721 
	C291.447693,445.778503 291.510986,445.161285 292.000549,444.050995 
	C292.585876,442.376801 292.744965,441.195709 292.904053,440.014587 
	C292.904053,440.014587 292.880096,439.940643 293.183960,439.727814 
	C293.641266,438.668671 293.794739,437.822327 293.948212,436.976013 
	C296.512878,426.839539 302.068024,418.488647 309.665527,411.029846 
M324.863525,483.159576 
	C324.863525,483.159576 324.602051,483.007507 324.660522,482.366364 
	C323.078400,481.214447 321.496277,480.062500 319.357178,478.417694 
	C317.639801,476.640533 315.922424,474.863373 314.467865,472.462585 
	C313.023956,468.796631 310.581726,467.347382 305.272644,469.366852 
	C307.135315,471.417908 308.548248,472.973724 310.346252,475.252594 
	C310.500488,475.477905 310.654724,475.703247 310.529755,476.511414 
	C311.665680,477.511108 312.801605,478.510834 314.448334,480.008453 
	C316.480774,482.014465 318.513245,484.020477 320.380676,486.648102 
	C322.597717,488.145599 324.814758,489.643097 327.755127,491.602081 
	C328.009613,491.732574 328.264130,491.863068 328.419403,492.606354 
	C330.526031,493.257904 332.632660,493.909454 335.528625,494.891235 
	C336.081512,495.028473 336.634399,495.165710 337.318146,495.893829 
	C339.747467,498.548737 342.115906,501.337585 347.456818,499.942810 
	C344.179291,494.194336 339.266571,491.730530 333.305298,489.380157 
	C331.711761,488.283264 330.118225,487.186371 328.619690,485.438202 
	C327.438965,484.749939 326.258240,484.061646 324.863525,483.159576 
M451.299469,536.474365 
	C453.689667,536.871094 456.079895,537.267883 458.470093,537.664673 
	C458.610382,536.986511 458.750671,536.308350 458.890961,535.630249 
	C455.284241,534.640381 451.677551,533.650574 448.070831,532.660767 
	C447.881805,533.195801 447.692810,533.730774 447.503815,534.265808 
	C448.536255,534.899780 449.568726,535.533691 451.299469,536.474365 
z"/>
<path fill="#C5A40E" opacity="1.000000" stroke="none" 
	d="
M290.455597,461.013000 
	C291.118622,461.692535 292.155212,462.263519 292.388885,463.067780 
	C296.177124,476.107147 304.372620,485.461975 315.455872,493.135864 
	C331.999329,504.590271 348.101166,516.657837 366.447632,525.229004 
	C388.633209,535.593750 411.278168,544.872742 435.293671,549.872437 
	C448.374146,552.595581 461.837341,553.639648 475.178345,554.912231 
	C491.844543,556.501831 508.545624,557.904297 525.264404,558.699890 
	C536.037598,559.212585 546.869873,558.499390 557.675232,558.314880 
	C561.335571,558.252319 564.994202,558.086975 568.654602,558.035461 
	C587.158447,557.774780 605.320129,554.977966 623.312073,550.816284 
	C630.414062,549.173584 638.034790,548.833191 644.592651,545.991821 
	C655.317139,541.345093 666.055847,536.111450 675.552063,529.380737 
	C694.276306,516.109375 708.525818,498.584351 718.492126,477.841309 
	C721.022400,472.574982 722.351624,466.731567 724.817627,461.377258 
	C726.303955,464.389374 727.205322,467.177551 728.106689,469.965698 
	C728.160461,470.685425 728.214172,471.405121 728.201172,472.944641 
	C728.248779,483.583374 728.363159,493.402313 728.477539,503.221222 
	C728.398865,503.622070 728.320190,504.022919 727.931274,504.943054 
	C727.463989,506.331818 727.306946,507.201233 727.149902,508.070679 
	C727.149902,508.070679 727.105164,508.090088 726.805054,508.267883 
	C725.835754,510.400574 725.166504,512.355469 724.497192,514.310364 
	C723.996155,515.309143 723.495117,516.307983 722.646118,517.778687 
	C716.417725,524.782959 710.537354,531.315491 704.342896,537.919556 
	C701.322205,540.256287 698.615662,542.521484 695.591797,544.843201 
	C694.510376,545.598938 693.746277,546.298157 692.656311,547.098633 
	C679.297913,556.269409 664.691833,561.824402 649.492493,565.802734 
	C635.166382,569.552490 620.802673,573.333191 606.257690,576.035156 
	C578.807922,581.134277 551.055847,582.335632 523.197327,580.257202 
	C493.003754,578.004395 462.872681,575.992004 433.170929,568.939087 
	C387.663879,558.133118 344.009613,544.015015 308.862671,510.706512 
	C303.486633,502.574524 298.242310,494.751251 292.949585,486.558594 
	C292.086975,483.744232 291.272736,481.299316 290.458496,478.854401 
	C290.287292,476.170898 290.116058,473.487427 289.958801,470.139709 
	C289.893768,469.320557 289.814728,469.165680 289.735687,469.010834 
	C289.622498,466.706329 289.509338,464.401794 289.649963,461.625916 
	C290.087708,461.107391 290.271637,461.060211 290.455597,461.013000 
z"/>
<path fill="#2B2F1E" opacity="1.000000" stroke="none" 
	d="
M779.964111,618.668945 
	C776.544373,626.502197 773.392578,634.134277 769.632019,641.453613 
	C767.773254,645.071350 764.791992,648.112366 761.707458,651.705688 
	C752.249512,651.008911 743.388062,650.135681 734.558777,649.010254 
	C711.947083,646.128113 690.408325,639.955627 670.789124,627.952026 
	C668.316406,626.439087 665.609863,625.308472 662.838684,623.601562 
	C662.637085,621.194641 662.608337,619.186890 662.992126,617.126099 
	C669.268066,614.708069 675.131531,612.343079 681.368103,609.976624 
	C697.283447,603.189331 711.164917,593.876526 722.151367,580.969238 
	C727.781616,574.354736 732.577637,566.816589 732.105896,557.221069 
	C731.758850,550.161560 732.018005,543.072205 732.349854,536.035706 
	C733.396240,536.490723 734.236633,536.774414 734.782837,537.341492 
	C742.613220,545.470703 750.754333,553.337280 758.096252,561.888977 
	C764.275818,569.086853 769.501770,577.101990 775.180115,584.732788 
	C776.505554,586.514038 777.953430,588.204102 779.344849,589.936157 
	C780.092224,596.863342 780.881409,603.786560 781.544067,610.721863 
	C781.650146,611.832336 781.189514,612.996948 780.745117,614.744019 
	C780.359924,615.907837 780.220581,616.464172 780.081177,617.020569 
	C780.047729,617.459961 780.014343,617.899414 779.964111,618.668945 
z"/>
<path fill="#0D1A0E" opacity="1.000000" stroke="none" 
	d="
M732.006958,535.996155 
	C732.018005,543.072205 731.758850,550.161560 732.105896,557.221069 
	C732.577637,566.816589 727.781616,574.354736 722.151367,580.969238 
	C711.164917,593.876526 697.283447,603.189331 681.411377,609.633667 
	C683.422363,606.795471 686.318054,604.621521 687.994385,601.738525 
	C692.131165,594.624207 695.713196,587.187073 699.499512,579.869995 
	C699.723145,579.437805 699.966187,578.886902 699.888123,578.446533 
	C698.623779,571.312744 697.959839,563.983276 695.803650,557.124512 
	C694.015808,551.437439 695.135864,544.996521 700.820312,544.924133 
	C706.311523,544.854187 706.257446,541.214722 709.259827,538.581848 
	C707.169373,538.248596 705.913147,538.048279 704.656982,537.848022 
	C710.537354,531.315491 716.417725,524.782959 722.599609,518.111511 
	C724.563110,519.676819 726.225159,521.381042 727.746460,523.663208 
	C729.072876,528.159485 730.539917,532.077820 732.006958,535.996155 
z"/>
<path fill="#3A3F2E" opacity="1.000000" stroke="none" 
	d="
M290.157532,478.946808 
	C291.272736,481.299316 292.086975,483.744232 292.601044,486.625763 
	C291.213928,488.025360 289.772491,488.789185 289.100464,489.985291 
	C285.950226,495.592133 283.011688,501.317902 279.997559,507.001221 
	C270.770172,510.656067 263.970367,517.235779 258.001831,524.935974 
	C246.680161,539.542603 238.464249,555.933716 230.441330,572.438171 
	C228.962677,575.480042 227.888031,578.718201 226.258636,581.925171 
	C225.272858,557.439941 234.267700,536.612427 248.850647,517.160095 
	C260.350952,501.819672 274.611176,490.043274 290.157532,478.946808 
z"/>
<path fill="#7D694F" opacity="1.000000" stroke="none" 
	d="
M549.726868,222.542603 
	C554.377014,223.828201 558.250427,229.968140 558.793457,236.799500 
	C559.339050,243.664490 558.675232,250.282669 554.679565,256.745422 
	C553.512207,257.394958 552.724792,257.644165 551.827454,257.762695 
	C551.486755,257.786285 551.255981,257.940613 551.046875,258.061035 
	C551.068481,258.027100 551.131226,258.077332 550.687378,258.044830 
	C548.278809,258.253418 546.310242,258.466705 544.349915,258.740082 
	C531.135193,260.582855 517.987122,261.994446 505.604523,254.943420 
	C504.672485,254.412689 503.029358,255.130707 501.382568,255.206970 
	C500.373749,255.094452 499.699127,255.043182 499.024506,254.991928 
	C498.686737,249.928329 498.348999,244.864746 498.486511,239.442566 
	C501.003967,243.840668 504.893890,244.692215 509.482300,244.054672 
	C511.926056,243.715118 514.424622,243.558701 516.773254,242.884033 
	C517.421692,242.697769 517.620911,240.947693 518.262573,239.659332 
	C521.531372,238.226868 523.220337,240.087860 523.387207,242.500565 
	C523.466187,243.643326 521.379150,245.534470 519.908386,246.054733 
	C517.274475,246.986481 514.364502,247.137665 511.569885,247.615112 
	C512.756470,249.107697 514.057251,249.949829 515.337036,249.919083 
	C522.586060,249.744934 529.850708,249.579956 537.061768,248.900192 
	C538.922363,248.724792 540.609375,246.708817 542.623230,245.608673 
	C543.781677,245.768814 544.693115,245.858627 546.013306,245.958298 
	C547.239624,245.975510 548.057251,245.982895 549.198975,246.153580 
	C550.891541,247.293243 552.259888,248.269592 553.628235,249.245956 
	C554.269104,248.994751 554.910034,248.743546 555.550903,248.492340 
	C554.840454,242.613571 554.298950,236.705948 553.302368,230.876114 
	C553.049316,229.395737 551.348999,228.162781 550.241211,226.460815 
	C550.021362,224.917862 549.874146,223.730225 549.726868,222.542603 
z"/>
<path fill="#A79070" opacity="1.000000" stroke="none" 
	d="
M563.066467,265.922150 
	C563.554443,266.651306 564.042480,267.380463 564.220825,268.574768 
	C562.593384,269.712799 561.275635,270.385651 559.589050,271.036987 
	C558.429321,271.223694 557.535278,271.260498 556.862732,271.665222 
	C541.333923,281.010010 524.627991,282.973846 507.218079,279.069427 
	C500.681244,277.603424 494.407013,274.966370 488.002563,272.553833 
	C487.980164,272.038452 487.968323,271.832458 487.999817,271.302002 
	C491.532990,264.293488 492.443817,264.124329 499.225403,267.353729 
	C501.359497,268.369965 503.956268,268.436493 506.357178,268.844086 
	C506.674408,268.897919 507.086121,268.395172 507.439667,268.159790 
	C506.674561,266.919250 506.000061,265.825714 505.363037,264.792847 
	C507.692627,263.980621 509.490448,263.353821 511.656250,262.798920 
	C524.955017,267.725586 537.608459,266.834412 550.015747,261.401184 
	C550.206543,263.066742 550.317139,265.476929 550.619995,265.501343 
	C554.753296,265.834503 558.913147,265.837708 563.066467,265.922150 
M525.062073,273.134277 
	C527.862610,273.305695 530.676392,273.360321 533.460571,273.676025 
	C537.608765,274.146393 540.338562,272.054657 542.997437,269.727631 
	C542.885132,269.180481 542.772827,268.633331 542.660522,268.086182 
	C533.637451,268.086182 524.614380,268.086182 513.856079,268.086182 
	C518.509705,269.524017 518.713928,275.539795 525.062073,273.134277 
z"/>
<path fill="#7D694F" opacity="1.000000" stroke="none" 
	d="
M559.957947,271.058472 
	C561.275635,270.385651 562.593384,269.712799 564.274353,268.916748 
	C564.637573,268.793518 564.872070,268.797974 564.931641,269.355896 
	C565.004761,271.078918 564.885498,272.263611 565.053894,273.405914 
	C565.918579,279.271667 564.010193,283.642639 558.140625,285.485077 
	C551.574646,287.546112 545.003296,289.823944 538.259705,291.035797 
	C525.160767,293.389679 512.092651,292.635132 499.525818,287.937866 
	C492.652588,285.368774 485.569946,282.582092 486.186615,272.979919 
	C486.561646,272.493103 486.728088,272.180817 487.161255,271.813293 
	C487.604095,271.714203 487.780304,271.670319 487.956482,271.626434 
	C487.968323,271.832458 487.980164,272.038452 488.037659,272.916626 
	C489.315948,274.849670 490.340607,276.475708 491.813507,277.314850 
	C506.059357,285.430847 521.318726,286.458191 537.090881,283.440063 
	C546.012207,281.732819 554.342346,278.891113 559.957947,271.058472 
z"/>
<path fill="#3A3F2E" opacity="1.000000" stroke="none" 
	d="
M732.349792,536.035706 
	C730.539917,532.077820 729.072876,528.159485 727.833679,523.972412 
	C738.496277,527.428711 747.188843,533.817505 754.257507,542.139709 
	C764.093445,553.719849 772.082458,566.536377 777.306824,580.902893 
	C778.258728,583.520752 778.581116,586.367554 779.269531,589.522461 
	C777.953430,588.204102 776.505554,586.514038 775.180115,584.732788 
	C769.501770,577.101990 764.275818,569.086853 758.096252,561.888977 
	C750.754333,553.337280 742.613220,545.470703 734.782837,537.341492 
	C734.236633,536.774414 733.396240,536.490723 732.349792,536.035706 
z"/>
<path fill="#A79070" opacity="1.000000" stroke="none" 
	d="
M496.246094,198.835968 
	C496.599609,196.353149 496.953125,193.870316 498.044128,191.154541 
	C502.800995,190.027939 506.786072,188.878281 510.852234,188.334564 
	C513.376221,187.997086 516.475708,187.770279 518.520325,188.915634 
	C522.749268,191.284668 531.133179,191.692703 535.032288,188.780289 
	C537.561035,186.891434 543.985779,187.426834 546.919617,189.351746 
	C551.075012,192.078140 549.617371,195.058167 547.412598,198.122833 
	C545.962036,196.710281 544.856018,195.380829 544.201782,194.594391 
	C539.638550,196.400650 535.518433,198.485306 531.152222,199.636673 
	C526.449158,200.876877 521.479248,202.024872 516.691101,201.802963 
	C509.844971,201.485687 503.058197,199.887268 496.246094,198.835968 
z"/>
<path fill="#655135" opacity="1.000000" stroke="none" 
	d="
M496.167114,199.202057 
	C503.058197,199.887268 509.844971,201.485687 516.691101,201.802963 
	C521.479248,202.024872 526.449158,200.876877 531.152222,199.636673 
	C535.518433,198.485306 539.638550,196.400650 544.201782,194.594391 
	C544.856018,195.380829 545.962036,196.710281 547.554626,198.320984 
	C548.242554,198.863647 548.488220,199.073212 548.900146,199.584991 
	C552.290283,201.858215 555.088501,201.684631 557.403625,197.958832 
	C558.446228,197.528030 559.210510,197.258224 559.974854,196.988419 
	C562.101624,202.493240 558.370361,207.110611 551.285889,207.759171 
	C547.659058,208.091187 544.003174,208.270187 540.427063,208.897873 
	C539.269287,209.101059 538.323364,210.511368 536.771484,211.343872 
	C535.175171,210.232010 534.186646,208.353317 532.982666,208.203201 
	C528.804199,207.682220 524.550415,207.659790 520.326477,207.681183 
	C519.217346,207.686798 518.112488,208.535767 517.005676,208.997437 
	C513.848511,208.248932 510.660095,207.610748 507.541748,206.725632 
	C503.057709,205.452850 498.105072,204.828308 496.167114,199.202057 
z"/>
<path fill="#C8BAA7" opacity="1.000000" stroke="none" 
	d="
M548.778137,199.230911 
	C548.488220,199.073212 548.242554,198.863647 547.899170,198.404053 
	C549.617371,195.058167 551.075012,192.078140 546.919617,189.351746 
	C543.985779,187.426834 537.561035,186.891434 535.032288,188.780289 
	C531.133179,191.692703 522.749268,191.284668 518.520325,188.915634 
	C516.475708,187.770279 513.376221,187.997086 510.852234,188.334564 
	C506.786072,188.878281 502.800995,190.027939 498.377411,190.963364 
	C499.844482,189.472763 501.488647,187.149170 503.623932,186.536087 
	C517.759521,182.477600 532.061707,179.106293 546.670166,184.167099 
	C550.225769,185.398880 553.780396,187.191864 556.686646,189.532394 
	C558.452576,190.954559 558.975647,193.920074 560.015930,196.590363 
	C559.210510,197.258224 558.446228,197.528030 556.975464,197.887329 
	C553.772095,198.394836 551.275085,198.812866 548.778137,199.230911 
z"/>
<path fill="#A79070" opacity="1.000000" stroke="none" 
	d="
M518.026245,239.915131 
	C517.620911,240.947693 517.421692,242.697769 516.773254,242.884033 
	C514.424622,243.558701 511.926056,243.715118 509.482300,244.054672 
	C504.893890,244.692215 501.003967,243.840668 498.632324,238.998566 
	C498.261597,237.832901 498.220337,236.752670 498.652100,235.259918 
	C504.214447,232.799194 509.303833,230.751007 513.101807,229.222534 
	C514.745300,225.364899 516.114929,222.149994 517.769653,219.191925 
	C523.248901,224.441086 531.720947,223.784836 536.582642,217.990570 
	C537.033936,217.851700 537.201172,217.757858 537.368408,217.664032 
	C537.368408,217.664032 537.785156,217.699249 537.975708,218.227646 
	C539.824890,220.795151 541.516785,222.808472 543.127258,224.884979 
	C543.856873,225.825714 544.424805,226.891876 544.691650,227.916443 
	C542.263733,227.021606 540.269653,225.922272 538.140381,225.253265 
	C535.898376,224.548859 533.802063,224.642075 533.831055,227.973679 
	C532.333008,227.708130 531.080627,227.019821 530.130249,227.312393 
	C523.382507,229.389587 516.696411,231.667480 509.641846,233.920425 
	C509.325867,234.941254 509.053497,236.624313 509.440399,236.792709 
	C512.227417,238.005737 515.148071,238.911758 518.026245,239.915131 
z"/>
<path fill="#655135" opacity="1.000000" stroke="none" 
	d="
M485.978058,273.154480 
	C485.569946,282.582092 492.652588,285.368774 499.525818,287.937866 
	C512.092651,292.635132 525.160767,293.389679 538.259705,291.035797 
	C545.003296,289.823944 551.574646,287.546112 558.140625,285.485077 
	C564.010193,283.642639 565.918579,279.271667 565.053894,273.405914 
	C564.885498,272.263611 565.004761,271.078918 564.995850,269.454071 
	C568.194641,270.109070 571.388916,271.223816 574.767700,272.630249 
	C573.163879,272.906921 571.375366,272.891907 569.354553,273.071045 
	C568.304138,275.018524 567.610779,276.844543 566.640381,278.509003 
	C564.983154,281.351410 563.812317,285.393585 561.291016,286.672760 
	C538.843933,298.061279 515.860962,297.459381 492.897797,288.213135 
	C486.627991,285.688568 483.504120,278.903809 485.140991,272.208588 
	C485.610291,272.004578 485.954224,272.033203 485.936401,272.314026 
	C485.938416,272.781403 485.958252,272.967926 485.978058,273.154480 
z"/>
<path fill="#C8BAA7" opacity="1.000000" stroke="none" 
	d="
M485.954224,272.033203 
	C485.954224,272.033203 485.610291,272.004578 485.446289,271.960083 
	C486.232941,268.399292 487.183533,264.883026 488.147675,260.934448 
	C491.608429,258.821930 495.055634,257.141785 498.763672,255.226791 
	C499.699127,255.043182 500.373749,255.094452 501.569641,255.492889 
	C505.156677,258.135712 508.222473,260.431335 511.288239,262.726990 
	C509.490448,263.353821 507.692627,263.980621 505.363037,264.792847 
	C506.000061,265.825714 506.674561,266.919250 507.439667,268.159790 
	C507.086121,268.395172 506.674408,268.897919 506.357178,268.844086 
	C503.956268,268.436493 501.359497,268.369965 499.225403,267.353729 
	C492.443817,264.124329 491.532990,264.293488 487.999817,271.302002 
	C487.780304,271.670319 487.604095,271.714203 486.920746,271.821533 
	C486.413574,271.885010 485.954224,272.033203 485.954224,272.033203 
z"/>
<path fill="#7D694F" opacity="1.000000" stroke="none" 
	d="
M537.251465,217.268692 
	C537.201172,217.757858 537.033936,217.851700 536.160156,217.985901 
	C529.462585,221.031662 523.460876,218.276871 517.269531,218.102875 
	C517.075256,218.146072 516.854736,217.814636 516.854736,217.814636 
	C516.871643,215.169800 516.888550,212.524948 516.955566,209.438782 
	C518.112488,208.535767 519.217346,207.686798 520.326477,207.681183 
	C524.550415,207.659790 528.804199,207.682220 532.982666,208.203201 
	C534.186646,208.353317 535.175171,210.232010 536.477722,211.585632 
	C536.840149,213.526505 536.987305,215.199921 537.251465,217.268692 
z"/>
<path fill="#C8BAA7" opacity="1.000000" stroke="none" 
	d="
M516.484619,217.917053 
	C516.854736,217.814636 517.075256,218.146072 517.295654,218.321472 
	C517.516113,218.496887 517.484558,218.935074 517.484558,218.935074 
	C516.114929,222.149994 514.745300,225.364899 513.101807,229.222534 
	C509.303833,230.751007 504.214447,232.799194 498.788147,234.876495 
	C499.021729,225.320572 503.665039,220.881592 516.484619,217.917053 
z"/>
<path fill="#C8BAA7" opacity="1.000000" stroke="none" 
	d="
M562.972778,265.593140 
	C558.913147,265.837708 554.753296,265.834503 550.619995,265.501343 
	C550.317139,265.476929 550.206543,263.066742 550.230286,261.159546 
	C550.679749,259.728058 550.905457,258.902679 551.131226,258.077332 
	C551.131226,258.077332 551.068481,258.027100 551.285645,258.058167 
	C551.502808,258.089203 551.937378,257.893402 551.937378,257.893402 
	C552.724792,257.644165 553.512207,257.394958 554.611572,257.110229 
	C557.575378,259.804504 560.227234,262.534302 562.972778,265.593140 
z"/>
<path fill="#655135" opacity="1.000000" stroke="none" 
	d="
M705.709229,391.738525 
	C705.032776,391.189178 704.096313,390.309723 703.918457,389.297028 
	C701.433838,375.147827 694.401367,362.888184 687.918091,350.396088 
	C687.615784,349.813660 687.426270,349.172668 687.232117,348.196289 
	C691.013123,354.422913 695.387573,360.742157 698.306763,367.674255 
	C701.505493,375.270081 703.361084,383.431519 705.709229,391.738525 
z"/>
<path fill="#C8BAA7" opacity="1.000000" stroke="none" 
	d="
M545.066101,227.901123 
	C544.424805,226.891876 543.856873,225.825714 543.127258,224.884979 
	C541.516785,222.808472 539.824890,220.795151 538.095337,218.399170 
	C541.760010,219.373810 545.495544,220.705322 549.479004,222.289734 
	C549.874146,223.730225 550.021362,224.917862 550.083984,226.803268 
	C548.986023,228.008591 547.972595,228.516113 546.765015,228.822632 
	C546.069275,228.381454 545.567688,228.141281 545.066101,227.901123 
z"/>
<path fill="#655135" opacity="1.000000" stroke="none" 
	d="
M728.788208,503.008301 
	C728.363159,493.402313 728.248779,483.583374 728.256042,473.301422 
	C728.728943,473.171722 729.388489,473.506866 729.386536,473.838226 
	C729.331055,483.490845 729.209656,493.143066 728.788208,503.008301 
z"/>
<path fill="#655135" opacity="1.000000" stroke="none" 
	d="
M622.905029,287.497345 
	C613.280212,284.637878 603.461304,281.502411 593.423035,278.098816 
	C603.039429,280.960907 612.875183,284.091125 622.905029,287.497345 
z"/>
<path fill="#655135" opacity="1.000000" stroke="none" 
	d="
M685.857666,344.679077 
	C681.650696,339.196198 677.441589,333.359100 673.263733,327.169067 
	C677.481873,332.652344 681.668762,338.488586 685.857666,344.679077 
z"/>
<path fill="#655135" opacity="1.000000" stroke="none" 
	d="
M658.179077,310.202942 
	C653.539246,306.624725 648.782654,302.749573 643.949097,298.555420 
	C648.602112,302.126282 653.332275,306.016113 658.179077,310.202942 
z"/>
<path fill="#655135" opacity="1.000000" stroke="none" 
	d="
M592.048218,277.275818 
	C587.217041,276.369385 582.209351,275.166138 577.068726,273.652832 
	C581.914368,274.554810 586.893005,275.766907 592.048218,277.275818 
z"/>
<path fill="#655135" opacity="1.000000" stroke="none" 
	d="
M723.669128,452.912964 
	C721.474182,449.697540 719.387817,446.124451 717.309998,442.203247 
	C719.471619,445.421844 721.624634,448.988617 723.669128,452.912964 
z"/>
<path fill="#655135" opacity="1.000000" stroke="none" 
	d="
M728.300720,469.682281 
	C727.205322,467.177551 726.303955,464.389374 725.181885,461.292114 
	C725.032043,460.698120 725.139771,460.427979 725.490479,460.101013 
	C726.629333,463.152588 727.562073,466.275726 728.300720,469.682281 
z"/>
<path fill="#655135" opacity="1.000000" stroke="none" 
	d="
M633.041443,292.265167 
	C629.966125,291.167847 626.761047,289.775177 623.381165,288.096405 
	C626.441467,289.196808 629.676575,290.583344 633.041443,292.265167 
z"/>
<path fill="#655135" opacity="1.000000" stroke="none" 
	d="
M642.143860,297.157349 
	C639.856323,296.297424 637.447449,295.143280 634.948547,293.679993 
	C637.246521,294.534912 639.634521,295.699036 642.143860,297.157349 
z"/>
<path fill="#655135" opacity="1.000000" stroke="none" 
	d="
M710.833984,428.719910 
	C710.280518,426.636993 709.833435,424.126953 709.608521,421.313019 
	C710.200500,423.437042 710.570435,425.864899 710.833984,428.719910 
z"/>
<path fill="#655135" opacity="1.000000" stroke="none" 
	d="
M671.853638,324.748474 
	C669.993591,323.198914 668.138916,321.309723 666.327454,319.075867 
	C668.200073,320.623749 670.029480,322.516327 671.853638,324.748474 
z"/>
<path fill="#655135" opacity="1.000000" stroke="none" 
	d="
M709.728210,416.808105 
	C709.160767,414.668060 708.711182,412.102631 708.427246,409.118011 
	C709.010681,411.260132 709.428406,413.821411 709.728210,416.808105 
z"/>
<path fill="#655135" opacity="1.000000" stroke="none" 
	d="
M724.786804,514.141235 
	C725.166504,512.355469 725.835754,510.400574 726.814392,508.290436 
	C726.441284,510.080780 725.758789,512.026428 724.786804,514.141235 
z"/>
<path fill="#655135" opacity="1.000000" stroke="none" 
	d="
M708.569641,406.654297 
	C708.019287,405.152130 707.643433,403.355011 707.399231,401.150391 
	C707.935242,402.615021 708.339722,404.487183 708.569641,406.654297 
z"/>
<path fill="#655135" opacity="1.000000" stroke="none" 
	d="
M711.803589,435.631592 
	C711.315613,434.509674 710.913513,433.018433 710.721680,431.270721 
	C711.251038,432.430237 711.570190,433.846252 711.803589,435.631592 
z"/>
<path fill="#655135" opacity="1.000000" stroke="none" 
	d="
M707.392822,398.714569 
	C706.675476,397.468750 706.140259,395.984009 705.789551,394.271545 
	C706.507629,395.521118 707.041260,396.998383 707.392822,398.714569 
z"/>
<path fill="#3A3F2E" opacity="1.000000" stroke="none" 
	d="
M290.378540,460.581299 
	C290.271637,461.060211 290.087708,461.107391 289.632935,461.240601 
	C289.365753,459.099396 289.369415,456.872131 289.649109,454.363770 
	C290.050568,456.105011 290.176025,458.127289 290.378540,460.581299 
z"/>
<path fill="#C5A40E" opacity="1.000000" stroke="none" 
	d="
M292.691101,440.199890 
	C292.744965,441.195709 292.585876,442.376801 292.131012,443.767761 
	C292.049561,442.780151 292.263855,441.582642 292.691101,440.199890 
z"/>
<path fill="#C5A40E" opacity="1.000000" stroke="none" 
	d="
M291.137451,446.622803 
	C291.362732,447.504303 291.341034,448.612885 291.019257,449.895630 
	C290.776245,448.996490 290.833374,447.923187 291.137451,446.622803 
z"/>
<path fill="#655135" opacity="1.000000" stroke="none" 
	d="
M727.385010,507.930420 
	C727.306946,507.201233 727.463989,506.331818 727.882568,505.245605 
	C727.969421,505.949310 727.794800,506.869751 727.385010,507.930420 
z"/>
<path fill="#090909" opacity="1.000000" stroke="none" 
	d="
M780.359619,616.976929 
	C780.220581,616.464172 780.359924,615.907837 780.730286,615.170410 
	C780.853516,615.637268 780.745789,616.285278 780.359619,616.976929 
z"/>
<path fill="#655135" opacity="1.000000" stroke="none" 
	d="
M714.801941,438.833252 
	C714.398132,439.089478 714.002991,439.027191 713.316284,438.874298 
	C713.057556,438.457794 713.012756,438.142975 712.892883,437.600647 
	C713.533813,437.746307 714.172241,438.130524 714.801941,438.833252 
z"/>
<path fill="#C5A40E" opacity="1.000000" stroke="none" 
	d="
M293.693298,437.183014 
	C293.794739,437.822327 293.641266,438.668671 293.213562,439.702667 
	C293.105652,439.056915 293.272003,438.223450 293.693298,437.183014 
z"/>
<path fill="#655135" opacity="1.000000" stroke="none" 
	d="
M715.745483,439.888245 
	C715.484863,440.001160 715.197571,439.860291 714.881592,439.467896 
	C715.141479,439.355713 715.430176,439.495117 715.745483,439.888245 
z"/>
<path fill="#655135" opacity="1.000000" stroke="none" 
	d="
M716.752197,440.897705 
	C716.492371,441.010559 716.205750,440.869385 715.887878,440.477356 
	C716.146179,440.365601 716.435791,440.504669 716.752197,440.897705 
z"/>
<path fill="#655135" opacity="1.000000" stroke="none" 
	d="
M725.390991,457.999939 
	C724.914490,458.083893 724.760132,457.860901 724.880920,457.328674 
	C725.378235,457.190918 725.563904,457.415405 725.390991,457.999939 
z"/>
<path fill="#3A3F2E" opacity="1.000000" stroke="none" 
	d="
M289.596680,469.105286 
	C289.814728,469.165680 289.893768,469.320557 289.898804,469.724579 
	C289.702423,469.715729 289.580078,469.457764 289.596680,469.105286 
z"/>
<path fill="#070502" opacity="1.000000" stroke="none" 
	d="
M651.847534,417.170013 
	C649.857788,426.597809 648.142273,436.093536 645.826416,445.440521 
	C639.129578,472.469299 621.116577,489.905731 597.284729,502.536102 
	C555.093323,524.896729 512.122253,515.123047 476.538879,484.818512 
	C471.627655,480.635895 467.396484,475.654785 462.541962,470.910400 
	C451.877472,454.727142 444.478302,437.379822 439.520630,418.963898 
	C438.604095,415.559143 437.509064,412.780060 433.479614,411.367737 
	C428.790649,409.724152 427.483154,404.862061 429.443512,400.099518 
	C431.421570,395.293945 435.649323,393.818695 441.576508,395.865784 
	C446.308807,397.500183 449.307861,401.740692 447.321014,405.856659 
	C444.610535,411.471649 447.177490,415.373505 449.820160,419.649872 
	C466.676025,446.926208 491.527344,462.269684 522.535400,468.450165 
	C526.772217,469.294647 531.005127,470.157959 535.893188,471.196960 
	C537.330566,471.369598 538.114685,471.357880 538.898743,471.346130 
	C539.383972,471.494904 539.869263,471.643707 541.138000,471.960083 
	C554.815430,471.375000 567.865051,471.602356 580.558350,469.586426 
	C592.588440,467.675842 603.781433,462.049500 613.319092,454.406708 
	C620.840637,448.379395 627.190063,440.889374 634.060120,434.049042 
	C634.060120,434.049042 634.352417,433.858154 634.650024,433.568420 
	C635.063599,432.939972 635.179565,432.601318 635.295532,432.262695 
	C635.910156,431.481598 636.524780,430.700500 637.471436,429.505188 
	C637.875000,428.752167 637.946472,428.413330 638.017944,428.074493 
	C640.200012,422.747925 642.485168,417.459564 644.485596,412.065613 
	C644.937805,410.846283 644.705811,409.154205 644.261169,407.861176 
	C642.769226,403.521973 642.294983,399.347809 646.278992,396.143433 
	C649.367310,393.659454 652.515320,394.630005 655.286377,397.008545 
	C658.546204,399.806793 659.235352,405.395355 656.927124,409.786194 
	C656.700867,410.216553 656.314209,410.562592 655.851074,411.254089 
	C655.700073,411.560394 655.741455,411.666870 655.390259,411.683258 
	C652.071777,412.412598 650.638184,414.020325 651.847534,417.170013 
z"/>
<path fill="#070502" opacity="1.000000" stroke="none" 
	d="
M485.499908,425.464905 
	C478.678680,404.042511 477.361237,382.380829 478.709229,360.507019 
	C479.136627,353.571442 482.728302,348.550964 486.672852,348.525238 
	C492.870667,348.484772 495.023590,353.560944 496.662842,358.186829 
	C503.431580,377.288330 504.430145,396.825470 500.164490,416.630524 
	C499.464478,419.880554 499.118835,423.300903 497.815338,426.297028 
	C496.786163,428.662598 494.863678,431.502441 492.711029,432.201752 
	C491.359772,432.640686 488.799957,429.569580 486.888458,427.948212 
	C486.296600,427.446228 486.053345,426.533203 485.499908,425.464905 
z"/>
<path fill="#070502" opacity="1.000000" stroke="none" 
	d="
M600.817261,406.325653 
	C598.822510,390.771149 596.662598,375.646851 595.205811,360.455139 
	C594.907166,357.341766 596.708313,353.639984 598.491699,350.807648 
	C600.969177,346.872711 605.064819,346.727692 607.309814,350.782654 
	C610.476440,356.502411 613.470276,362.635895 614.858459,368.961121 
	C618.661316,386.288300 620.274841,403.826050 615.767029,421.377716 
	C615.601624,422.021729 615.642700,422.791504 615.294067,423.302429 
	C614.141174,424.991943 612.746704,427.991302 611.641846,427.907013 
	C609.801208,427.766632 607.209167,425.986694 606.526062,424.265167 
	C604.267212,418.573059 602.720642,412.598297 600.817261,406.325653 
z"/>
<path fill="#FDFBE5" opacity="1.000000" stroke="none" 
	d="
M415.815979,301.483917 
	C402.900116,302.590729 394.294250,308.677307 390.417053,320.862885 
	C390.316254,321.179657 390.286652,321.571564 390.079437,321.793640 
	C388.463440,323.525391 386.322510,326.921295 385.263092,326.615723 
	C382.048004,325.688354 381.792328,322.442078 383.047516,319.568359 
	C387.474304,309.433350 391.376007,298.987091 396.755127,289.374146 
	C401.650055,280.626526 413.363403,276.914551 422.873474,279.384460 
	C428.329895,280.801605 429.712280,282.931885 429.635376,289.804901 
	C429.549988,297.436493 428.485260,299.106232 422.639038,300.412994 
	C420.535797,300.883118 418.380524,301.120575 415.815979,301.483917 
z"/>
<path fill="#C5A40E" opacity="1.000000" stroke="none" 
	d="
M633.707153,434.057739 
	C627.190063,440.889374 620.840637,448.379395 613.319092,454.406708 
	C603.781433,462.049500 592.588440,467.675842 580.558350,469.586426 
	C567.865051,471.602356 554.815430,471.375000 541.520996,471.944946 
	C552.005554,470.041718 563.011414,468.865387 573.748596,466.479614 
	C592.165222,462.387543 608.186646,453.173157 622.948120,441.622681 
	C626.321960,438.982697 629.880615,436.578888 633.707153,434.057739 
z"/>
<path fill="#FDFBE5" opacity="1.000000" stroke="none" 
	d="
M449.566772,277.566833 
	C448.703827,275.285706 448.070526,273.277252 447.437225,271.268829 
	C449.879333,271.025848 452.377319,270.372375 454.742554,270.694244 
	C456.155640,270.886597 457.420258,272.541901 458.646545,273.655334 
	C460.977692,275.771790 463.284882,278.334229 460.456512,281.266876 
	C457.768890,284.053589 454.585785,282.710999 451.936127,280.580658 
	C451.056702,279.873627 450.500397,278.764740 449.566772,277.566833 
z"/>
<path fill="#C5A40E" opacity="1.000000" stroke="none" 
	d="
M538.654175,471.178131 
	C538.114685,471.357880 537.330566,471.369598 536.306091,471.192413 
	C536.846985,471.005707 537.628357,471.007935 538.654175,471.178131 
z"/>
<path fill="#C5A40E" opacity="1.000000" stroke="none" 
	d="
M637.783813,428.208649 
	C637.946472,428.413330 637.875000,428.752167 637.566895,429.219208 
	C637.403320,429.012543 637.476501,428.677673 637.783813,428.208649 
z"/>
<path fill="#C5A40E" opacity="1.000000" stroke="none" 
	d="
M635.007812,432.345184 
	C635.179565,432.601318 635.063599,432.939972 634.697693,433.400452 
	C634.538574,433.157379 634.629333,432.792542 635.007812,432.345184 
z"/>
<path fill="#1D2110" opacity="1.000000" stroke="none" 
	d="
M663.011597,624.000732 
	C665.609863,625.308472 668.316406,626.439087 670.789124,627.952026 
	C690.408325,639.955627 711.947083,646.128113 734.558777,649.010254 
	C743.388062,650.135681 752.249512,651.008911 761.549377,651.999756 
	C758.870117,655.800903 756.142273,660.048157 752.525024,663.308716 
	C743.800964,671.172607 735.290588,679.537292 725.531433,685.923218 
	C712.981506,694.135193 699.726196,701.599182 685.990906,707.587463 
	C668.175842,715.354309 649.707825,721.699707 631.289795,727.979248 
	C619.943176,731.847839 608.168152,734.462158 596.576538,737.606628 
	C595.626587,737.864319 594.609070,737.958252 593.620361,737.974976 
	C572.998840,738.324280 552.362244,739.279663 531.759338,738.799744 
	C512.566833,738.352661 493.368927,736.800049 474.248016,734.959167 
	C450.970703,732.718201 427.999023,728.528870 405.650909,721.387573 
	C403.836578,720.807800 401.989716,720.329712 400.043640,719.447754 
	C400.831787,718.788818 402.334686,718.708435 402.541687,718.148865 
	C404.173279,713.737427 405.557404,709.234436 407.453613,704.209229 
	C427.223236,703.325684 446.556946,702.992493 466.132416,702.993469 
	C469.257751,703.008789 472.141357,702.689941 475.467346,702.226562 
	C480.233643,701.923401 484.557526,701.764771 488.994324,701.872559 
	C489.746399,701.875061 490.385529,701.611084 491.472534,701.208130 
	C497.566620,700.733398 503.214050,700.090332 508.859009,700.111328 
	C550.628967,700.266602 592.398376,700.553101 634.167969,700.800659 
	C643.652405,700.856873 653.137207,700.895447 662.621216,700.995789 
	C666.996826,701.042114 669.126892,698.994751 668.915771,694.599976 
	C668.748169,691.112854 668.660034,687.617737 668.356384,684.141968 
	C666.604492,664.092285 664.798950,644.047302 663.011597,624.000732 
z"/>
<path fill="#F3CF22" opacity="1.000000" stroke="none" 
	d="
M652.144043,416.976257 
	C650.638184,414.020325 652.071777,412.412598 655.438599,411.713715 
	C654.705566,413.412689 653.573059,415.097595 652.144043,416.976257 
z"/>
<path fill="#FAFAFA" opacity="1.000000" stroke="none" 
	d="
M465.890686,702.659302 
	C446.556946,702.992493 427.223236,703.325684 407.441864,703.797119 
	C399.057465,703.899841 391.120605,703.824646 383.183960,703.841370 
	C376.960785,703.854553 374.939636,701.576782 374.965240,695.512146 
	C375.066040,671.616760 374.983826,647.720642 374.906006,622.991272 
	C374.617615,618.004395 374.345978,613.852966 374.177734,609.697266 
	C373.839539,601.344238 375.071259,600.071655 383.369202,600.083862 
	C407.833405,600.119873 432.299469,599.989807 456.761383,600.246582 
	C489.874420,600.593994 522.982788,601.442993 556.096069,601.690552 
	C579.715820,601.867065 603.342041,601.520325 626.961975,601.179138 
	C636.937927,601.035095 646.904480,600.285034 656.877197,599.852783 
	C660.594849,599.691589 662.330933,601.349304 662.195801,605.273987 
	C662.059448,609.233337 662.430725,613.210083 662.579590,617.179199 
	C662.608337,619.186890 662.637085,621.194641 662.838745,623.601562 
	C664.798950,644.047302 666.604492,664.092285 668.356384,684.141968 
	C668.660034,687.617737 668.748169,691.112854 668.915771,694.599976 
	C669.126892,698.994751 666.996826,701.042114 662.621216,700.995789 
	C653.137207,700.895447 643.652405,700.856873 634.167969,700.800659 
	C592.398376,700.553101 550.628967,700.266602 508.859009,700.111328 
	C503.214050,700.090332 497.566620,700.733398 491.202087,701.109131 
	C489.949707,701.301575 489.415558,701.453857 488.881409,701.606140 
	C484.557526,701.764771 480.233643,701.923401 475.049500,702.097168 
	C471.423065,702.294617 468.656860,702.476929 465.890686,702.659302 
M588.669434,632.391785 
	C586.207336,631.438782 583.461731,630.812439 582.545593,633.976074 
	C582.216248,635.113281 583.974487,637.816772 585.287354,638.243225 
	C587.276794,638.889282 589.709717,638.169922 591.954224,638.030640 
	C591.175720,636.369385 590.397156,634.708191 589.597717,632.082581 
	C591.221802,632.063965 593.158630,632.590698 594.388611,631.885132 
	C595.837280,631.054016 596.673340,629.155273 597.775024,627.719421 
	C595.654297,626.640320 593.625793,625.153748 591.376038,624.644287 
	C590.146973,624.365906 587.326599,625.771057 587.341125,626.365173 
	C587.381714,628.021851 588.563904,629.637207 589.214478,631.300537 
	C589.411255,631.803528 589.343872,632.409729 588.669434,632.391785 
M447.010132,647.586670 
	C446.599670,649.313843 446.189178,651.040955 445.778656,652.768127 
	C447.570404,652.792847 449.475952,653.216492 451.126251,652.745483 
	C453.403992,652.095581 455.489136,650.770691 457.899353,649.618958 
	C460.652405,658.668823 463.042725,667.133423 465.909882,675.433289 
	C466.475891,677.071838 468.877533,678.076294 470.432617,679.373108 
	C471.034698,677.418762 472.490936,675.262451 472.085205,673.546387 
	C470.634094,667.409058 468.588257,661.409485 466.699341,655.379150 
	C463.995270,646.746460 464.013306,646.881592 472.579376,643.942444 
	C474.002777,643.453979 474.858307,641.310425 475.976288,639.931763 
	C474.424225,639.088867 472.847198,637.509827 471.325409,637.561401 
	C468.448914,637.658813 465.604126,638.693420 462.623444,639.366272 
	C462.077881,637.480469 461.671356,636.075195 461.150208,634.273743 
	C462.766571,633.536133 464.224365,632.817261 465.723450,632.198608 
	C468.419708,631.085938 473.343903,631.417297 471.799194,626.889099 
	C470.279114,622.433167 465.970886,624.776428 463.175232,625.956909 
	C459.771484,627.394043 457.925995,626.980408 456.761353,623.423218 
	C456.419678,622.379700 455.643829,621.065430 454.741211,620.715332 
	C453.394409,620.193054 451.512634,619.920471 450.337189,620.504700 
	C449.617676,620.862305 449.522614,623.047668 449.651581,624.362793 
	C449.757568,625.443237 450.509918,626.514954 451.146118,627.478027 
	C452.858032,630.069397 451.985565,631.401794 449.424011,632.917053 
	C446.583191,634.597412 444.217499,637.081055 442.038605,638.888428 
	C439.616364,638.302124 437.160004,637.316833 434.653687,637.166870 
	C422.136230,636.418030 412.407654,642.998535 402.926300,649.879028 
	C401.900299,650.623657 402.062683,653.005798 401.673859,654.628418 
	C403.420532,654.771729 405.505249,655.597534 406.850800,654.931030 
	C410.952820,652.899292 414.769989,650.292419 419.197479,647.606445 
	C422.299438,656.373108 422.733429,663.936951 416.439606,670.988953 
	C415.265808,672.304138 414.501343,675.775574 415.320343,676.728333 
	C417.417725,679.168335 419.693420,677.423157 421.574677,675.447144 
	C428.638611,668.027222 429.346588,659.246704 427.209473,649.823059 
	C426.860077,648.282471 426.512604,646.741455 426.256927,645.610474 
	C431.311127,641.077576 439.413544,648.604065 442.765320,639.978882 
	C447.547607,645.616455 450.503113,638.350342 454.543549,638.391174 
	C456.935364,641.240662 456.282837,643.039551 452.842194,644.281982 
	C450.989929,644.950928 449.333984,646.163330 447.010132,647.586670 
M539.520081,641.696594 
	C541.760559,640.926575 544.001038,640.156494 546.847107,639.178345 
	C546.667847,641.182068 546.668457,642.311401 546.453430,643.398132 
	C544.779907,651.857056 542.893555,660.280029 541.519165,668.786194 
	C541.269226,670.333191 543.059570,672.209839 543.908020,673.934265 
	C545.294373,672.626099 547.381897,671.558533 547.929749,669.962524 
	C549.322876,665.904053 550.177490,661.637146 550.970825,657.401855 
	C552.069458,651.537109 553.098694,645.646973 553.806824,639.725708 
	C554.324829,635.393982 551.755615,631.613098 547.753845,632.457275 
	C541.780579,633.717346 536.154846,636.784973 530.553101,639.445251 
	C529.844055,639.781921 529.543335,642.748474 530.204407,643.677307 
	C530.804749,644.520752 533.067932,644.662720 534.427490,644.356689 
	C535.974243,644.008484 537.331970,642.820496 539.520081,641.696594 
M635.201782,637.393799 
	C634.259216,634.958618 633.707458,631.624146 630.066345,632.965332 
	C628.966370,633.370544 628.031677,636.202942 628.214478,637.785767 
	C629.277771,646.992737 630.508118,656.192139 632.131531,665.314087 
	C632.525269,667.526245 634.611206,669.437256 635.919067,671.486755 
	C638.106567,670.031494 640.495605,668.800842 642.430847,667.064392 
	C644.883606,664.863586 647.088684,662.349121 649.158447,659.775269 
	C650.165344,658.523010 650.622070,656.828369 651.327881,655.333984 
	C649.791687,654.755981 648.046204,653.408813 646.762390,653.758179 
	C643.993103,654.511658 641.460999,656.136597 638.720642,657.458618 
	C637.638550,651.066650 636.543701,644.599426 635.201782,637.393799 
M592.722778,653.824707 
	C588.209778,650.418335 583.892090,646.703247 579.130493,643.689697 
	C574.049316,640.473877 567.655029,641.830200 565.089966,646.397339 
	C564.388733,647.645874 565.028076,649.647400 565.052246,651.303284 
	C566.567566,651.261292 568.742188,651.848389 569.485168,651.069641 
	C572.891235,647.499451 575.689636,649.168640 578.620544,651.503113 
	C583.436951,655.339355 588.117249,659.372925 593.165344,662.875916 
	C594.660217,663.913208 597.197815,663.447754 599.257690,663.670898 
	C598.694092,661.682739 598.492859,659.473938 597.457153,657.773254 
	C596.560486,656.300964 594.717041,655.405273 592.722778,653.824707 
M617.913147,649.657776 
	C617.296631,653.903748 616.460876,658.134155 616.156067,662.402344 
	C616.003967,664.532227 616.197693,668.133179 617.320618,668.633972 
	C620.561768,670.079163 622.279480,667.116272 622.612366,664.465576 
	C623.452942,657.773254 624.210266,651.009521 624.106323,644.288208 
	C624.062256,641.436340 622.130981,638.363831 620.349670,635.904114 
	C619.569092,634.826172 617.016479,635.031494 615.268494,634.654114 
	C615.207458,636.433838 614.794312,638.290527 615.162903,639.976318 
	C615.817078,642.968079 616.945618,645.856201 617.913147,649.657776 
M504.321899,647.528381 
	C505.301086,647.368652 506.404877,647.443237 507.234406,647.002136 
	C509.184509,645.965271 512.547913,644.726318 512.583374,643.490112 
	C512.685608,639.924561 509.300690,639.588806 506.710632,640.246338 
	C501.143097,641.659912 495.618500,643.364746 490.282227,645.471802 
	C489.113892,645.933167 488.805634,648.572876 488.101318,650.209412 
	C489.826874,650.605896 491.703156,651.637207 493.247437,651.270447 
	C496.753693,650.437683 500.096588,648.917236 504.321899,647.528381 
M543.333557,620.659180 
	C538.145386,622.620422 532.832764,624.324707 527.860474,626.731812 
	C526.684631,627.301025 526.651978,630.231689 526.093384,632.076111 
	C528.000488,632.085266 530.056580,632.561340 531.784790,632.009827 
	C535.824951,630.720459 539.747620,629.028748 543.636169,627.314392 
	C545.377686,626.546570 546.922791,625.333252 548.557007,624.322021 
	C547.069458,623.102600 545.581970,621.883118 543.333557,620.659180 
M416.155273,625.624573 
	C412.917450,627.601135 409.493256,629.343018 406.545654,631.684875 
	C405.550995,632.475220 405.764832,634.786560 405.426361,636.402771 
	C407.028412,636.594971 408.886871,637.407227 410.187073,636.869507 
	C415.190277,634.800476 420.086914,632.433044 424.853394,629.861938 
	C425.997589,629.244812 427.321228,627.194946 427.058624,626.201355 
	C426.759277,625.068787 424.765198,623.640808 423.529602,623.661316 
	C421.294495,623.698425 419.075684,624.715393 416.155273,625.624573 
z"/>
<path fill="#071708" opacity="1.000000" stroke="none" 
	d="
M662.992126,617.126099 
	C662.430725,613.210083 662.059448,609.233337 662.195801,605.273987 
	C662.330933,601.349304 660.594849,599.691589 656.877197,599.852783 
	C646.904480,600.285034 636.937927,601.035095 626.961975,601.179138 
	C603.342041,601.520325 579.715820,601.867065 556.096069,601.690552 
	C522.982788,601.442993 489.874420,600.593994 456.761383,600.246582 
	C432.299469,599.989807 407.833405,600.119873 383.369202,600.083862 
	C375.071259,600.071655 373.839539,601.344238 374.177734,609.697266 
	C374.345978,613.852966 374.617615,618.004395 374.712708,622.555420 
	C370.617462,621.352966 366.652008,619.752808 362.342224,617.691162 
	C359.666962,613.440674 357.494293,609.541870 354.961884,605.892578 
	C352.274384,602.019775 348.361786,598.749390 346.620789,594.539124 
	C344.970001,590.547058 346.017883,585.520203 344.845520,581.230835 
	C342.841187,573.897583 345.069031,567.152588 346.370789,560.183533 
	C347.127625,556.131653 347.386108,552.302551 351.540222,549.668579 
	C353.965363,548.130981 353.744904,545.509949 350.467865,543.933228 
	C347.105499,542.315552 343.917725,540.322632 340.708557,538.402039 
	C337.143829,536.268799 333.641266,534.031677 329.569977,531.503418 
	C329.162384,531.685181 328.015594,532.196533 326.219910,532.997192 
	C327.603210,528.034607 325.050690,527.007263 321.308563,526.937927 
	C320.292297,526.919128 318.947083,526.499451 318.336578,525.773132 
	C315.109985,521.934082 312.069885,517.938293 308.972412,513.624146 
	C308.984619,512.505981 308.989532,511.760620 308.994415,511.015259 
	C344.009613,544.015015 387.663879,558.133118 433.170929,568.939087 
	C462.872681,575.992004 493.003754,578.004395 523.197327,580.257202 
	C551.055847,582.335632 578.807922,581.134277 606.257690,576.035156 
	C620.802673,573.333191 635.166382,569.552490 649.492493,565.802734 
	C664.691833,561.824402 679.297913,556.269409 693.021729,547.094788 
	C694.445129,546.255310 695.177124,545.520996 695.909119,544.786682 
	C698.615662,542.521484 701.322205,540.256287 704.342896,537.919556 
	C705.913147,538.048279 707.169373,538.248596 709.259827,538.581848 
	C706.257446,541.214722 706.311523,544.854187 700.820312,544.924133 
	C695.135864,544.996521 694.015808,551.437439 695.803650,557.124512 
	C697.959839,563.983276 698.623779,571.312744 699.888123,578.446533 
	C699.966187,578.886902 699.723145,579.437805 699.499512,579.869995 
	C695.713196,587.187073 692.131165,594.624207 687.994385,601.738525 
	C686.318054,604.621521 683.422363,606.795471 681.038208,609.635071 
	C675.131531,612.343079 669.268066,614.708069 662.992126,617.126099 
z"/>
<path fill="#0D1A0E" opacity="1.000000" stroke="none" 
	d="
M308.965118,513.996887 
	C312.069885,517.938293 315.109985,521.934082 318.336578,525.773132 
	C318.947083,526.499451 320.292297,526.919128 321.308563,526.937927 
	C325.050690,527.007263 327.603210,528.034607 326.219910,532.997192 
	C328.015594,532.196533 329.162384,531.685181 329.569977,531.503418 
	C333.641266,534.031677 337.143829,536.268799 340.708557,538.402039 
	C343.917725,540.322632 347.105499,542.315552 350.467865,543.933228 
	C353.744904,545.509949 353.965363,548.130981 351.540222,549.668579 
	C347.386108,552.302551 347.127625,556.131653 346.370789,560.183533 
	C345.069031,567.152588 342.841187,573.897583 344.845520,581.230835 
	C346.017883,585.520203 344.970001,590.547058 346.620789,594.539124 
	C348.361786,598.749390 352.274384,602.019775 354.961884,605.892578 
	C357.494293,609.541870 359.666962,613.440674 361.997162,617.620300 
	C350.970398,613.618042 339.740204,609.660767 329.011719,604.633118 
	C324.251648,602.402405 320.505157,598.008911 316.101868,593.947571 
	C302.864441,567.803101 298.437408,541.554382 308.965118,513.996887 
z"/>
<path fill="#1C2B1C" opacity="1.000000" stroke="none" 
	d="
M308.972412,513.624146 
	C298.437408,541.554382 302.864441,567.803101 315.943115,593.653198 
	C308.238525,592.252625 304.140320,585.620056 298.999817,580.663025 
	C294.218964,576.052673 289.653992,570.585510 286.944305,564.611023 
	C283.037903,555.997803 279.469238,546.750488 278.391479,537.467773 
	C277.265259,527.767822 279.259827,517.705566 279.943848,507.401489 
	C283.011688,501.317902 285.950226,495.592133 289.100464,489.985291 
	C289.772491,488.789185 291.213928,488.025360 292.649475,486.995178 
	C298.242310,494.751251 303.486633,502.574524 308.862671,510.706512 
	C308.989532,511.760620 308.984619,512.505981 308.972412,513.624146 
z"/>
<path fill="#FDFBE5" opacity="1.000000" stroke="none" 
	d="
M310.808960,475.928589 
	C310.654724,475.703247 310.500488,475.477905 310.105927,474.600098 
	C309.362732,472.780365 308.859894,471.613098 308.357056,470.445831 
	C308.664856,470.206299 308.972687,469.966797 309.280518,469.727264 
	C310.922028,470.846924 312.563538,471.966553 314.205048,473.086212 
	C315.922424,474.863373 317.639801,476.640533 319.745178,478.901306 
	C321.622803,480.592468 323.112427,481.799988 324.602051,483.007507 
	C324.602051,483.007507 324.863525,483.159576 325.109314,483.504456 
	C326.411652,484.596069 327.468170,485.342773 328.524689,486.089478 
	C330.118225,487.186371 331.711761,488.283264 333.704163,489.848511 
	C335.131134,491.978912 336.159210,493.640930 337.187286,495.302948 
	C336.634399,495.165710 336.081512,495.028473 334.936981,494.514038 
	C332.403076,493.422424 330.460846,492.708008 328.518616,491.993591 
	C328.264130,491.863068 328.009613,491.732574 327.294556,491.126160 
	C324.737885,489.109009 322.641815,487.567719 320.545715,486.026459 
	C318.513245,484.020477 316.480774,482.014465 314.164246,479.491821 
	C312.856445,477.959686 311.832703,476.944153 310.808960,475.928589 
z"/>
<path fill="#C8BAA7" opacity="1.000000" stroke="none" 
	d="
M337.252716,495.598389 
	C336.159210,493.640930 335.131134,491.978912 334.001465,490.069550 
	C339.266571,491.730530 344.179291,494.194336 347.456818,499.942810 
	C342.115906,501.337585 339.747467,498.548737 337.252716,495.598389 
z"/>
<path fill="#C8BAA7" opacity="1.000000" stroke="none" 
	d="
M450.950317,536.321045 
	C449.568726,535.533691 448.536255,534.899780 447.503815,534.265808 
	C447.692810,533.730774 447.881805,533.195801 448.070831,532.660767 
	C451.677551,533.650574 455.284241,534.640381 458.890961,535.630249 
	C458.750671,536.308350 458.610382,536.986511 458.470093,537.664673 
	C456.079895,537.267883 453.689667,536.871094 450.950317,536.321045 
z"/>
<path fill="#C8BAA7" opacity="1.000000" stroke="none" 
	d="
M314.336456,472.774414 
	C312.563538,471.966553 310.922028,470.846924 309.280518,469.727264 
	C308.972687,469.966797 308.664856,470.206299 308.357056,470.445831 
	C308.859894,471.613098 309.362732,472.780365 309.913391,474.238586 
	C308.548248,472.973724 307.135315,471.417908 305.272644,469.366852 
	C310.581726,467.347382 313.023956,468.796631 314.336456,472.774414 
z"/>
<path fill="#C8BAA7" opacity="1.000000" stroke="none" 
	d="
M320.463196,486.337280 
	C322.641815,487.567719 324.737885,489.109009 326.932861,490.895447 
	C324.814758,489.643097 322.597717,488.145599 320.463196,486.337280 
z"/>
<path fill="#C8BAA7" opacity="1.000000" stroke="none" 
	d="
M328.468994,492.299988 
	C330.460846,492.708008 332.403076,493.422424 334.542328,494.348938 
	C332.632660,493.909454 330.526031,493.257904 328.468994,492.299988 
z"/>
<path fill="#C8BAA7" opacity="1.000000" stroke="none" 
	d="
M324.631287,482.686951 
	C323.112427,481.799988 321.622803,480.592468 320.023682,479.147766 
	C321.496277,480.062500 323.078400,481.214447 324.631287,482.686951 
z"/>
<path fill="#C8BAA7" opacity="1.000000" stroke="none" 
	d="
M310.669373,476.220001 
	C311.832703,476.944153 312.856445,477.959686 313.908875,479.242859 
	C312.801605,478.510834 311.665680,477.511108 310.669373,476.220001 
z"/>
<path fill="#C8BAA7" opacity="1.000000" stroke="none" 
	d="
M328.572205,485.763855 
	C327.468170,485.342773 326.411652,484.596069 325.216309,483.611389 
	C326.258240,484.061646 327.438965,484.749939 328.572205,485.763855 
z"/>
<path fill="#0D1A0E" opacity="1.000000" stroke="none" 
	d="
M695.591797,544.843201 
	C695.177124,545.520996 694.445129,546.255310 693.347656,546.993530 
	C693.746277,546.298157 694.510376,545.598938 695.591797,544.843201 
z"/>
<path fill="#655135" opacity="1.000000" stroke="none" 
	d="
M544.691650,227.916428 
	C545.567688,228.141281 546.069275,228.381454 546.753235,229.234573 
	C547.582031,235.228439 548.228455,240.609360 548.874817,245.990265 
	C548.057251,245.982895 547.239624,245.975510 546.020447,245.571136 
	C545.050781,237.997131 542.113464,235.510010 536.890381,237.986023 
	C535.743713,238.529617 535.014099,239.952881 534.092468,240.971039 
	C535.255127,241.631363 536.410583,242.304749 537.582214,242.948822 
	C539.173706,243.823730 540.777588,244.676224 542.376160,245.538330 
	C540.609375,246.708817 538.922363,248.724792 537.061768,248.900192 
	C529.850708,249.579956 522.586060,249.744934 515.337036,249.919083 
	C514.057251,249.949829 512.756470,249.107697 511.569885,247.615112 
	C514.364502,247.137665 517.274475,246.986481 519.908386,246.054733 
	C521.379150,245.534470 523.466187,243.643326 523.387207,242.500565 
	C523.220337,240.087860 521.531372,238.226868 518.262573,239.659348 
	C515.148071,238.911758 512.227417,238.005737 509.440399,236.792709 
	C509.053497,236.624313 509.325867,234.941254 509.885376,234.214035 
	C516.641541,235.310974 522.799866,236.732712 528.971069,236.791122 
	C533.060913,236.829834 538.160645,236.653870 539.946472,230.370712 
	C537.974609,229.556564 536.095581,228.780746 534.216492,228.004913 
	C533.802063,224.642075 535.898376,224.548859 538.140381,225.253265 
	C540.269653,225.922272 542.263733,227.021606 544.691650,227.916428 
z"/>
<path fill="#655135" opacity="1.000000" stroke="none" 
	d="
M550.687378,258.044830 
	C550.905457,258.902679 550.679749,259.728058 550.239502,260.795013 
	C537.608459,266.834412 524.955017,267.725586 511.656250,262.798920 
	C508.222473,260.431335 505.156677,258.135712 501.903839,255.554153 
	C503.029358,255.130707 504.672485,254.412689 505.604523,254.943420 
	C517.987122,261.994446 531.135193,260.582855 544.349915,258.740082 
	C546.310242,258.466705 548.278809,258.253418 550.687378,258.044830 
z"/>
<path fill="#A79070" opacity="1.000000" stroke="none" 
	d="
M549.198975,246.153580 
	C548.228455,240.609360 547.582031,235.228439 546.947388,229.435577 
	C547.972595,228.516113 548.986023,228.008591 550.156555,227.158600 
	C551.348999,228.162781 553.049316,229.395737 553.302368,230.876114 
	C554.298950,236.705948 554.840454,242.613571 555.550903,248.492340 
	C554.910034,248.743546 554.269104,248.994751 553.628235,249.245956 
	C552.259888,248.269592 550.891541,247.293243 549.198975,246.153580 
z"/>
<path fill="#C8BAA7" opacity="1.000000" stroke="none" 
	d="
M542.623230,245.608673 
	C540.777588,244.676224 539.173706,243.823730 537.582214,242.948822 
	C536.410583,242.304749 535.255127,241.631363 534.092468,240.971039 
	C535.014099,239.952881 535.743713,238.529617 536.890381,237.986023 
	C542.113464,235.510010 545.050781,237.997131 545.611694,245.561279 
	C544.693115,245.858627 543.781677,245.768814 542.623230,245.608673 
z"/>
<path fill="#655135" opacity="1.000000" stroke="none" 
	d="
M551.827454,257.762695 
	C551.937378,257.893402 551.502808,258.089203 551.264038,258.092072 
	C551.255981,257.940613 551.486755,257.786285 551.827454,257.762695 
z"/>
<path fill="#655135" opacity="1.000000" stroke="none" 
	d="
M559.589050,271.036987 
	C554.342346,278.891113 546.012207,281.732819 537.090881,283.440063 
	C521.318726,286.458191 506.059357,285.430847 491.813507,277.314850 
	C490.340607,276.475708 489.315948,274.849670 488.048187,273.226013 
	C494.407013,274.966370 500.681244,277.603424 507.218079,279.069427 
	C524.627991,282.973846 541.333923,281.010010 556.862732,271.665222 
	C557.535278,271.260498 558.429321,271.223694 559.589050,271.036987 
z"/>
<path fill="#C8BAA7" opacity="1.000000" stroke="none" 
	d="
M524.662415,273.273315 
	C518.713928,275.539795 518.509705,269.524017 513.856079,268.086182 
	C524.614380,268.086182 533.637451,268.086182 542.660522,268.086182 
	C542.772827,268.633331 542.885132,269.180481 542.997437,269.727631 
	C540.338562,272.054657 537.608765,274.146393 533.460571,273.676025 
	C530.676392,273.360321 527.862610,273.305695 524.662415,273.273315 
z"/>
<path fill="#A79070" opacity="1.000000" stroke="none" 
	d="
M485.936401,272.314026 
	C485.954224,272.033203 486.413574,271.885010 486.654053,271.876770 
	C486.728088,272.180817 486.561646,272.493103 486.186615,272.979919 
	C485.958252,272.967926 485.938416,272.781403 485.936401,272.314026 
z"/>
<path fill="#A79070" opacity="1.000000" stroke="none" 
	d="
M548.900146,199.584991 
	C551.275085,198.812866 553.772095,198.394836 556.697205,198.048309 
	C555.088501,201.684631 552.290283,201.858215 548.900146,199.584991 
z"/>
<path fill="#7D694F" opacity="1.000000" stroke="none" 
	d="
M533.831055,227.973663 
	C536.095581,228.780746 537.974609,229.556564 539.946472,230.370712 
	C538.160645,236.653870 533.060913,236.829834 528.971069,236.791122 
	C522.799866,236.732712 516.641541,235.310974 510.234253,234.175064 
	C516.696411,231.667480 523.382507,229.389587 530.130249,227.312393 
	C531.080627,227.019821 532.333008,227.708130 533.831055,227.973663 
z"/>
<path fill="#655135" opacity="1.000000" stroke="none" 
	d="
M517.769653,219.191925 
	C517.484558,218.935074 517.516113,218.496887 517.489990,218.278275 
	C523.460876,218.276871 529.462585,221.031662 535.876099,218.030945 
	C531.720947,223.784836 523.248901,224.441086 517.769653,219.191925 
z"/>
<path fill="#2B2F1E" opacity="1.000000" stroke="none" 
	d="
M466.132416,702.993408 
	C468.656860,702.476929 471.423065,702.294617 474.607117,702.241699 
	C472.141357,702.689941 469.257751,703.008789 466.132416,702.993408 
z"/>
<path fill="#2B2F1E" opacity="1.000000" stroke="none" 
	d="
M488.994324,701.872559 
	C489.415558,701.453857 489.949707,701.301575 490.754272,701.248169 
	C490.385529,701.611084 489.746399,701.875061 488.994324,701.872559 
z"/>
<path fill="#171717" opacity="1.000000" stroke="none" 
	d="
M447.299805,647.358643 
	C449.333984,646.163330 450.989929,644.950928 452.842194,644.281982 
	C456.282837,643.039551 456.935364,641.240662 454.543549,638.391174 
	C450.503113,638.350342 447.547607,645.616455 442.765320,639.978882 
	C439.413544,648.604065 431.311127,641.077576 426.256927,645.610474 
	C426.512604,646.741455 426.860077,648.282471 427.209473,649.823059 
	C429.346588,659.246704 428.638611,668.027222 421.574677,675.447144 
	C419.693420,677.423157 417.417725,679.168335 415.320343,676.728333 
	C414.501343,675.775574 415.265808,672.304138 416.439606,670.988953 
	C422.733429,663.936951 422.299438,656.373108 419.197479,647.606445 
	C414.769989,650.292419 410.952820,652.899292 406.850800,654.931030 
	C405.505249,655.597534 403.420532,654.771729 401.673828,654.628418 
	C402.062683,653.005798 401.900299,650.623657 402.926300,649.879028 
	C412.407654,642.998535 422.136230,636.418030 434.653687,637.166870 
	C437.160004,637.316833 439.616364,638.302124 442.038605,638.888428 
	C444.217499,637.081055 446.583191,634.597412 449.424011,632.917053 
	C451.985565,631.401794 452.858032,630.069397 451.146118,627.478027 
	C450.509918,626.514954 449.757568,625.443237 449.651581,624.362793 
	C449.522614,623.047668 449.617676,620.862305 450.337189,620.504700 
	C451.512634,619.920471 453.394409,620.193054 454.741211,620.715332 
	C455.643829,621.065430 456.419678,622.379700 456.761353,623.423218 
	C457.925995,626.980408 459.771484,627.394043 463.175232,625.956909 
	C465.970886,624.776428 470.279114,622.433167 471.799194,626.889099 
	C473.343903,631.417297 468.419708,631.085938 465.723450,632.198608 
	C464.224365,632.817261 462.766571,633.536133 461.150208,634.273743 
	C461.671356,636.075195 462.077881,637.480469 462.623444,639.366272 
	C465.604126,638.693420 468.448914,637.658813 471.325409,637.561401 
	C472.847198,637.509827 474.424225,639.088867 475.976257,639.931763 
	C474.858307,641.310425 474.002777,643.453979 472.579376,643.942444 
	C464.013306,646.881592 463.995270,646.746460 466.699341,655.379150 
	C468.588257,661.409485 470.634094,667.409058 472.085205,673.546387 
	C472.490936,675.262451 471.034698,677.418762 470.432617,679.373108 
	C468.877533,678.076294 466.475891,677.071838 465.909882,675.433289 
	C463.042725,667.133423 460.652405,658.668823 457.899353,649.618958 
	C455.489136,650.770691 453.403992,652.095581 451.126251,652.745483 
	C449.475952,653.216492 447.570404,652.792847 445.778687,652.768127 
	C446.189178,651.040955 446.599670,649.313843 447.299805,647.358643 
z"/>
<path fill="#171717" opacity="1.000000" stroke="none" 
	d="
M539.145996,641.847046 
	C537.331970,642.820496 535.974243,644.008484 534.427490,644.356689 
	C533.067932,644.662720 530.804749,644.520752 530.204407,643.677307 
	C529.543335,642.748474 529.844055,639.781921 530.553101,639.445251 
	C536.154846,636.784973 541.780579,633.717346 547.753845,632.457275 
	C551.755615,631.613098 554.324829,635.393982 553.806824,639.725708 
	C553.098694,645.646973 552.069458,651.537109 550.970825,657.401855 
	C550.177490,661.637146 549.322876,665.904053 547.929749,669.962524 
	C547.381897,671.558533 545.294373,672.626099 543.908020,673.934265 
	C543.059570,672.209839 541.269226,670.333191 541.519165,668.786194 
	C542.893555,660.280029 544.779907,651.857056 546.453430,643.398132 
	C546.668457,642.311401 546.667847,641.182068 546.847107,639.178345 
	C544.001038,640.156494 541.760559,640.926575 539.145996,641.847046 
z"/>
<path fill="#171717" opacity="1.000000" stroke="none" 
	d="
M635.325317,637.763062 
	C636.543701,644.599426 637.638550,651.066650 638.720642,657.458618 
	C641.460999,656.136597 643.993103,654.511658 646.762390,653.758179 
	C648.046204,653.408813 649.791687,654.755981 651.327881,655.333984 
	C650.622070,656.828369 650.165344,658.523010 649.158447,659.775269 
	C647.088684,662.349121 644.883606,664.863586 642.430847,667.064392 
	C640.495605,668.800842 638.106567,670.031494 635.919067,671.486694 
	C634.611206,669.437256 632.525269,667.526245 632.131531,665.314087 
	C630.508118,656.192139 629.277771,646.992737 628.214478,637.785767 
	C628.031677,636.202942 628.966370,633.370544 630.066345,632.965332 
	C633.707458,631.624146 634.259216,634.958618 635.325317,637.763062 
z"/>
<path fill="#171717" opacity="1.000000" stroke="none" 
	d="
M593.007446,654.039673 
	C594.717041,655.405273 596.560486,656.300964 597.457153,657.773254 
	C598.492859,659.473938 598.694092,661.682739 599.257690,663.670898 
	C597.197815,663.447754 594.660217,663.913208 593.165344,662.875916 
	C588.117249,659.372925 583.436951,655.339355 578.620544,651.503113 
	C575.689636,649.168640 572.891235,647.499451 569.485168,651.069641 
	C568.742188,651.848389 566.567566,651.261292 565.052246,651.303345 
	C565.028076,649.647400 564.388733,647.645874 565.089966,646.397339 
	C567.655029,641.830200 574.049316,640.473877 579.130493,643.689697 
	C583.892090,646.703247 588.209778,650.418335 593.007446,654.039673 
z"/>
<path fill="#171717" opacity="1.000000" stroke="none" 
	d="
M617.894409,649.222717 
	C616.945618,645.856201 615.817078,642.968079 615.162903,639.976318 
	C614.794312,638.290527 615.207458,636.433838 615.268494,634.654114 
	C617.016479,635.031494 619.569092,634.826172 620.349670,635.904114 
	C622.130981,638.363831 624.062256,641.436340 624.106323,644.288208 
	C624.210266,651.009521 623.452942,657.773254 622.612366,664.465576 
	C622.279480,667.116272 620.561768,670.079163 617.320618,668.633972 
	C616.197693,668.133179 616.003967,664.532227 616.156067,662.402344 
	C616.460876,658.134155 617.296631,653.903748 617.894409,649.222717 
z"/>
<path fill="#171717" opacity="1.000000" stroke="none" 
	d="
M503.913879,647.602417 
	C500.096588,648.917236 496.753693,650.437683 493.247437,651.270447 
	C491.703156,651.637207 489.826874,650.605896 488.101318,650.209412 
	C488.805634,648.572876 489.113892,645.933167 490.282227,645.471802 
	C495.618500,643.364746 501.143097,641.659912 506.710632,640.246338 
	C509.300690,639.588806 512.685608,639.924561 512.583374,643.490112 
	C512.547913,644.726318 509.184509,645.965271 507.234406,647.002136 
	C506.404877,647.443237 505.301086,647.368652 503.913879,647.602417 
z"/>
<path fill="#171717" opacity="1.000000" stroke="none" 
	d="
M543.713989,620.661438 
	C545.581970,621.883118 547.069458,623.102600 548.557007,624.322021 
	C546.922791,625.333252 545.377686,626.546570 543.636169,627.314392 
	C539.747620,629.028748 535.824951,630.720459 531.784790,632.009827 
	C530.056580,632.561340 528.000488,632.085266 526.093384,632.076050 
	C526.651978,630.231689 526.684631,627.301025 527.860474,626.731812 
	C532.832764,624.324707 538.145386,622.620422 543.713989,620.661438 
z"/>
<path fill="#171717" opacity="1.000000" stroke="none" 
	d="
M416.502686,625.473877 
	C419.075684,624.715393 421.294495,623.698425 423.529602,623.661316 
	C424.765198,623.640808 426.759277,625.068787 427.058624,626.201355 
	C427.321228,627.194946 425.997589,629.244812 424.853394,629.861938 
	C420.086914,632.433044 415.190277,634.800476 410.187073,636.869507 
	C408.886871,637.407227 407.028412,636.594971 405.426331,636.402771 
	C405.764832,634.786560 405.550995,632.475220 406.545654,631.684875 
	C409.493256,629.343018 412.917450,627.601135 416.502686,625.473877 
z"/>
<path fill="#2B2F1E" opacity="1.000000" stroke="none" 
	d="
M589.397461,632.968689 
	C589.343872,632.409729 589.411255,631.803528 589.214478,631.300537 
	C588.563904,629.637207 587.381714,628.021851 587.341125,626.365173 
	C587.326599,625.771057 590.146973,624.365906 591.376038,624.644287 
	C593.625793,625.153748 595.654297,626.640320 597.775024,627.719421 
	C596.673340,629.155273 595.837280,631.054016 594.388611,631.885132 
	C593.158630,632.590698 591.221802,632.063965 589.566284,632.570312 
	C589.534912,633.057983 589.397461,632.968689 589.397461,632.968689 
z"/>
<path fill="#1C2B1C" opacity="1.000000" stroke="none" 
	d="
M589.033447,632.680237 
	C589.397461,632.968689 589.534912,633.057983 589.576782,633.052490 
	C590.397156,634.708191 591.175720,636.369385 591.954224,638.030640 
	C589.709717,638.169922 587.276794,638.889282 585.287354,638.243225 
	C583.974487,637.816772 582.216248,635.113281 582.545593,633.976074 
	C583.461731,630.812439 586.207336,631.438782 589.033447,632.680237 
z"/>
</svg>