<?xml version="1.0" encoding="UTF-8"?><svg id="_レイヤー_2" xmlns="http://www.w3.org/2000/svg" viewBox="0 0 96 96"><defs><style>.cls-1{fill:#f3cf22;}.cls-2{fill:#fafafa;}.cls-3{fill:#fdfbe5;}.cls-4{fill:#655135;}.cls-5{fill:#7d694f;}.cls-6{fill:#a79070;}.cls-7{fill:#c7a40c;}.cls-8{fill:#c5a40e;}.cls-9{fill:#c8baa7;}.cls-10{fill:#171717;}.cls-11{fill:#071708;}.cls-12{fill:#090909;}.cls-13{fill:#070502;}.cls-14{fill:#1d2110;}.cls-15{fill:#1c2b1c;}.cls-16{fill:#0d1a0e;}.cls-17{fill:#2b2f1e;}.cls-18{fill:#3a3f2e;}</style></defs><g id="_レイヤー_2-2"><g id="Layer_1"><path class="cls-1" d="m18.31,27.54c1.8-3.36,4.05-6.45,7.2-8.82,4.26-3.18,9-5.49,14.56-6,1.68-.15,3.39-.12,5.16-.09-.09.63-.24,1.2-.45,1.8-.24,1.08.27,2.16,1.35,2.55,3.96,1.47,7.92,1.56,11.77-.24.42-.21.63-.84.93-1.29.18-.27.3-.57.45-.78.18.18.36.3.57.36,1.2.39,2.46.72,3.66,1.14,3.45,1.14,6.6,2.82,9.21,5.22,2.34,2.16,4.02,4.77,5.46,7.53.66,1.29.54,2.43-.18,3.51-.78,1.2-1.74,2.28-2.7,3.39-.3.33-.75.57-1.08.81.09-.12.15-.18.18-.24.39-.69.27-1.59-.27-2.04-.48-.39-1.02-.54-1.56-.15-.69.51-.6,1.17-.36,1.86.09.21.12.48.03.66-.33.87-.75,1.71-1.14,2.58-.06.06-.06.12-.09.24-.12.18-.24.3-.39.42-.06.06-.09.12-.09.21,0,0-.06.06-.12.06-.66.39-1.26.78-1.86,1.2-2.55,1.83-5.31,3.3-8.46,3.96-1.86.39-3.75.57-5.67.84-.15,0-.24-.06-.36-.09h-.51c-.81-.15-1.53-.27-2.25-.42-5.34-.99-9.63-3.42-12.52-7.77-.45-.69-.9-1.29-.42-2.19.33-.66-.18-1.32-.99-1.59-1.02-.33-1.74-.09-2.1.66-.33.75-.12,1.53.69,1.8.69.24.87.66,1.05,1.2.84,2.94,2.13,5.7,3.87,8.31-3.54-.39-6.78-1.5-9.85-3.06-1.8-.9-3.45-2.16-5.07-3.36-3.51-2.58-5.7-6-7.08-9.9-.27-.72-.33-1.53-.48-2.28m26.56,11.37s.12.27.21.33c.33.27.78.75.99.69.36-.12.69-.57.87-.93.21-.48.27-1.02.39-1.53.72-3.15.57-6.27-.6-9.33-.27-.75-.66-1.56-1.71-1.53-.69,0-1.29.81-1.38,1.92-.24,3.48,0,6.93,1.2,10.41m19.84-3.03c.3.93.57,1.89.96,2.79.12.27.57.57.87.57.18,0,.42-.45.63-.72.06-.09.06-.21.09-.3.78-2.79.51-5.58-.15-8.37-.24-1.02-.75-1.98-1.29-2.91-.39-.66-1.08-.63-1.53,0-.3.45-.63,1.05-.57,1.53.24,2.43.63,4.83.99,7.38m-31.82-16.77c.36-.06.75-.09,1.11-.18,1.02-.21,1.2-.48,1.2-1.68,0-1.11-.21-1.44-1.17-1.65-1.65-.39-3.66.21-4.5,1.59-.93,1.53-1.59,3.21-2.37,4.8-.21.45-.18.99.39,1.11.18.06.54-.48.84-.78.03-.03.03-.09.06-.15.66-1.95,2.16-2.91,4.44-3.09m5.79-3.78s.21.33.36.45c.45.33.99.54,1.47.12.48-.48.09-.87-.3-1.2-.21-.18-.42-.45-.66-.48-.42-.06-.84.06-1.26.09.12.33.21.63.42,1.05l-.03-.03Z"/><path class="cls-12" d="m95.57,69.72c.15.63.48,1.23.42,1.83-.18,2.22-.36,4.47-.81,6.66-.33,1.5-.93,3-1.74,4.35-.6.96-1.65,1.77-2.64,2.43-1.74,1.17-3.6,2.22-5.46,3.21-1.41.75-2.88,1.38-4.32,2.04-1.62.72-3.27,1.5-4.95,2.13-1.47.57-3,1.02-4.53,1.41-3.54.93-7.17,1.26-10.84,1.65-3.6.39-7.23.66-10.84.54-3.03-.09-6.12,0-9.12-.57-1.83-.33-3.75-.36-5.58-.72-2.49-.45-4.92-1.08-7.38-1.65-1.95-.45-3.96-.81-5.88-1.35-2.31-.63-4.56-1.41-6.84-2.13-1.26-.39-2.55-.72-3.78-1.23-2.31-.96-4.59-2.01-6.9-3.03-.84-.36-1.32-1.02-1.56-1.8-.6-1.98-1.23-3.96-1.74-5.94-.81-3.15-1.17-6.36-1.02-9.6,0-.36.15-.72.33-1.05,1.08,4.35,3.9,7.62,7.65,10.14,2.34,1.56,4.95,2.79,7.53,4.02,2.01.93,4.11,1.71,6.21,2.4,1.77.6,3.6,1.05,5.4,1.53.99.27,1.98.45,3,.72.33.15.66.21.96.3,3.84,1.14,7.8,1.8,11.83,2.16,3.3.3,6.6.54,9.91.6,3.54.09,7.11-.09,10.66-.12.18,0,.36,0,.51-.06,2.01-.51,4.02-.93,5.97-1.53,3.18-.99,6.36-2.01,9.42-3.24,2.37-.96,4.65-2.13,6.81-3.45,1.68-1.02,3.15-2.34,4.65-3.6.63-.51,1.08-1.2,1.65-1.86.45-.57.96-1.05,1.29-1.62.66-1.17,1.2-2.37,1.77-3.57h-.03Z"/><path class="cls-7" d="m74.17,36.66c.36-.27.81-.51,1.11-.84.93-1.11,1.89-2.19,2.7-3.39.72-1.08.84-2.22.18-3.51-1.44-2.76-3.12-5.37-5.46-7.53-2.61-2.4-5.76-4.05-9.21-5.22-1.2-.39-2.43-.75-3.66-1.14-.21-.06-.36-.21-.51-.39.33-.09.66-.09.96-.09.09,0,.15,0,.3.09.93.24,1.8.45,2.67.63,0,0,.06,0,.15.06,1.77.54,3.45,1.05,5.16,1.56l.03.06c.6.27,1.14.48,1.68.72.06,0,.12.06.27.15.48.27.9.45,1.32.63.06,0,.12.06.24.15.87.69,1.71,1.32,2.52,1.92.45.42.87.81,1.35,1.32.36.39.66.69.99.99.06.06.12.15.21.3.75,1.02,1.47,1.95,2.19,2.88.06.12.12.24.21.45.06.21.09.3.15.39,1.11,1.98,2.34,3.96,2.76,6.21.03.15.18.3.3.45v.3c.06.33.15.57.24.81v.3c.06.39.12.69.18.96v.3c.06.51.12.93.21,1.35v.6c.03.51.12.9.21,1.32v.3c.03.33.12.57.18.81.03.06.09.09.15.21.06.12.06.18.06.3-.27,1.23-.3,2.49-.87,3.51-.9,1.68-2.1,3.27-3.3,4.8-1.05,1.32-2.31,2.49-3.93,3.27-3.45,1.65-7.17,2.25-10.99,2.43-1.83.09-3.66.12-5.49.18-2.97.09-5.91.18-8.88.33-3.6.18-7.14-.42-10.63-1.05-4.17-.75-8.28-1.62-12.25-3.18-4.08-1.62-7.86-3.51-10.81-6.66-1.77-1.89-3-3.93-2.31-6.57.12-.48,0-1.02,0-1.53.33-.93.63-1.86.99-2.76.84-2.07,1.74-4.11,2.67-6.21.21.72.27,1.53.51,2.25,1.38,3.9,3.57,7.32,7.08,9.9,1.62,1.2,3.27,2.43,5.07,3.36,3.06,1.53,6.3,2.67,9.91,3.06.87.72,1.62,1.5,2.46,2.19,6.12,4.83,13.54,6.39,20.8,2.82,4.11-2.01,7.2-4.8,8.37-9.09.39-1.5.69-3,1.08-4.53.24-.3.45-.57.63-.84h0l.03-.09Z"/><path class="cls-17" d="m30.11,85.68c-.99-.21-2.01-.39-3-.66-1.8-.48-3.63-.93-5.4-1.53-2.1-.72-4.23-1.47-6.21-2.4-2.58-1.23-5.19-2.43-7.53-4.02-3.75-2.52-6.57-5.79-7.59-10.2-.15-1.02-.24-2.01-.21-3.03.33-.57.51-1.08.75-1.56,1.38-2.64,2.79-5.25,4.74-7.56,1.02-1.23,2.19-2.28,3.78-2.79-.12,1.65-.45,3.24-.27,4.8.18,1.47.81,2.94,1.47,4.32.48.96,1.26,1.83,2.07,2.55.9.78,1.59,1.86,2.94,2.16.75.6,1.41,1.29,2.22,1.65,1.86.81,3.78,1.44,5.73,2.13.75.27,1.41.51,2.13.84.03,3.87.06,7.68.03,11.49,0,.96.33,1.32,1.41,1.32,1.38,0,2.73,0,4.11.09-.24.78-.48,1.5-.78,2.19-.03.09-.3.09-.45.15l.06.06Z"/><path class="cls-1" d="m14.56,36.57c.06.48.15,1.02,0,1.5-.66,2.64.57,4.68,2.31,6.57,2.94,3.15,6.72,5.04,10.81,6.66,3.96,1.56,8.1,2.43,12.25,3.18,3.48.63,7.02,1.23,10.63,1.05,2.97-.15,5.91-.24,8.88-.33,1.83-.06,3.66-.09,5.49-.18,3.81-.15,7.53-.78,10.99-2.43,1.62-.78,2.88-1.95,3.93-3.27,1.2-1.53,2.37-3.12,3.3-4.8.54-1.02.6-2.28.9-3.48.12-.06.18-.03.27,0v.06c.06.06.12.09.15.12v.06c.06.06.12.09.15.12,0,0,.03.06.06.15.39.66.75,1.23,1.11,1.8.06.18.15.33.21.6,0,.15,0,.18.09.18,0,.06.03.12,0,.27-.06.09-.06.15-.15.21-.39.9-.63,1.83-1.05,2.67-1.71,3.3-4.17,6.09-7.38,8.22-1.62,1.08-3.48,1.92-5.34,2.64-1.14.45-2.43.51-3.66.78-3.09.66-6.21,1.11-9.42,1.14-.63,0-1.26.03-1.89.03-1.86,0-3.72.15-5.58.06-2.88-.12-5.76-.36-8.61-.6-2.31-.21-4.62-.36-6.87-.81-4.14-.81-8.04-2.28-11.86-3.93-3.15-1.38-5.94-3.3-8.79-5.13-1.92-1.23-3.33-2.7-3.96-4.8-.03-.12-.21-.21-.36-.39-.03-.39-.06-.72-.09-1.05,0-.18.06-.33.15-.6s.09-.45.09-.63c0-.09,0-.21.12-.36.09-.27.12-.45.15-.63l.06-.06c.09-.18.12-.3.12-.45.45-1.62,1.41-2.94,2.7-4.14m2.61,11.49s-.06,0-.03-.12c-.27-.18-.54-.36-.9-.63-.3-.27-.6-.57-.84-.96-.24-.57-.66-.81-1.59-.48.33.33.57.57.87.93,0,.03.06.06.03.21.21.15.39.33.66.57.36.33.69.63,1.02,1.05.39.24.75.48,1.26.78.03,0,.09.03.12.15.36.09.72.21,1.23.36.09,0,.18.03.3.15.42.42.84.87,1.74.66-.57-.93-1.41-1.32-2.43-1.68-.27-.18-.54-.36-.81-.63-.21-.12-.42-.21-.66-.36m21.79,8.49c.42.06.81.12,1.23.18,0-.12.06-.21.06-.33-.63-.15-1.23-.33-1.86-.48-.03.09-.06.18-.09.27.18.09.36.21.66.36Z"/><path class="cls-8" d="m11.26,44.55s.3.21.33.33c.66,2.07,2.07,3.57,3.96,4.8,2.85,1.83,5.61,3.75,8.79,5.13,3.81,1.65,7.71,3.12,11.86,3.93,2.25.42,4.56.6,6.87.81,2.88.24,5.73.48,8.61.6,1.86.09,3.72-.03,5.58-.06.63,0,1.26-.03,1.89-.03,3.18-.03,6.3-.48,9.42-1.14,1.23-.27,2.52-.33,3.66-.78,1.86-.75,3.69-1.56,5.34-2.64,3.21-2.13,5.67-4.92,7.38-8.22.45-.84.66-1.77,1.08-2.61.27.48.42.93.57,1.38v.48c0,1.71,0,3.27.06,4.83,0,.06,0,.12-.09.27-.09.21-.12.36-.12.51l-.06.03c-.18.33-.27.66-.39.96-.09.15-.18.33-.33.54-1.08,1.11-2.07,2.16-3.15,3.21-.51.36-.99.72-1.5,1.11-.18.12-.33.24-.51.36-2.31,1.47-4.8,2.34-7.44,2.97-2.46.6-4.95,1.2-7.44,1.62-4.74.81-9.51.99-14.32.66-5.19-.36-10.39-.69-15.52-1.8-7.83-1.71-15.37-3.96-21.4-9.27-.93-1.29-1.83-2.55-2.73-3.84-.15-.45-.3-.84-.42-1.23,0-.42-.06-.87-.09-1.38,0-.12,0-.15-.03-.18,0-.36-.03-.72,0-1.17.09-.09.12-.09.15-.09l-.03-.09Z"/><path class="cls-17" d="m95.57,69.66c-.6,1.26-1.14,2.46-1.77,3.63-.33.57-.84,1.05-1.35,1.62-1.62-.12-3.15-.24-4.68-.42-3.9-.45-7.59-1.44-10.99-3.36-.42-.24-.9-.42-1.38-.69-.03-.39-.03-.69,0-1.02,1.08-.39,2.1-.75,3.15-1.14,2.73-1.08,5.13-2.58,7.02-4.62.96-1.05,1.8-2.25,1.71-3.78-.06-1.14,0-2.25.03-3.39.18.06.33.12.42.21,1.35,1.29,2.76,2.55,4.02,3.9,1.05,1.14,1.95,2.43,2.94,3.63.24.27.48.54.72.84.12,1.11.27,2.22.39,3.3,0,.18-.06.36-.15.63-.06.18-.09.27-.12.36v.27l.03.03Z"/><path class="cls-16" d="m87.32,56.49c0,1.14-.03,2.25,0,3.39.09,1.53-.75,2.73-1.71,3.78-1.89,2.07-4.29,3.54-7.02,4.56.36-.45.84-.81,1.14-1.26.72-1.14,1.32-2.31,1.98-3.48.03-.06.09-.15.06-.24-.21-1.14-.33-2.31-.69-3.39-.3-.9-.12-1.92.87-1.95.96,0,.93-.6,1.44-1.02-.36-.06-.57-.09-.78-.12,1.02-1.05,2.01-2.07,3.09-3.15.33.24.63.51.9.87.24.72.48,1.35.72,1.98v.03Z"/><path class="cls-18" d="m11.2,47.4c.18.36.33.75.42,1.23-.24.21-.48.33-.6.54-.54.9-1.05,1.8-1.56,2.7-1.59.57-2.76,1.62-3.78,2.85-1.95,2.34-3.36,4.95-4.74,7.56-.24.48-.45.99-.72,1.5-.18-3.9,1.38-7.23,3.9-10.32,1.98-2.46,4.44-4.32,7.11-6.09l-.03.03Z"/><path class="cls-5" d="m55.92,6.51c.81.21,1.47,1.17,1.56,2.28.09,1.08,0,2.16-.72,3.18-.21.09-.33.15-.48.15-.06,0-.09,0-.12.06h-.06c-.42.03-.75.06-1.08.12-2.28.3-4.53.51-6.66-.6-.15-.09-.45,0-.72.03-.18,0-.3,0-.42-.03-.06-.81-.12-1.62-.09-2.49.42.69,1.11.84,1.89.75.42-.06.84-.09,1.26-.18.12,0,.15-.3.27-.51.57-.24.84.06.87.45,0,.18-.36.48-.6.57-.45.15-.96.18-1.44.24.21.24.42.36.66.36,1.26,0,2.49-.06,3.75-.15.33,0,.6-.36.96-.51.21,0,.36.03.57.06.21,0,.36,0,.54.03.3.18.54.33.75.48.12-.03.21-.09.33-.12-.12-.93-.21-1.89-.39-2.82-.03-.24-.33-.42-.54-.69-.03-.24-.06-.45-.09-.63v-.03Z"/><path class="cls-6" d="m58.2,13.44s.18.24.21.42c-.27.18-.51.3-.81.39-.21,0-.36.03-.48.09-2.67,1.5-5.55,1.8-8.55,1.17-1.14-.24-2.22-.66-3.3-1.05v-.21c.6-1.11.78-1.14,1.92-.63.36.15.81.18,1.23.24.06,0,.12-.06.18-.12-.12-.21-.24-.36-.36-.54.39-.12.72-.24,1.08-.33,2.28.78,4.47.63,6.6-.21.03.27.06.66.09.66.72.06,1.44.06,2.13.06m-6.54,1.14c.48,0,.96.03,1.44.09.72.06,1.17-.27,1.65-.63l-.06-.27h-4.95c.81.24.84,1.2,1.92.81Z"/><path class="cls-5" d="m57.66,14.25c.24-.12.45-.21.75-.33.06,0,.09,0,.12.06v.66c.15.93-.18,1.62-1.2,1.92-1.14.33-2.25.69-3.42.87-2.25.39-4.5.24-6.66-.48-1.17-.42-2.4-.84-2.31-2.37.06-.09.09-.12.18-.18h.15v.21c.21.3.39.57.66.69,2.46,1.29,5.07,1.47,7.8.99,1.53-.27,2.97-.72,3.93-1.98v-.06Z"/><path class="cls-18" d="m87.38,56.49c-.3-.63-.57-1.26-.78-1.92,1.83.54,3.33,1.56,4.56,2.91,1.68,1.86,3.06,3.9,3.96,6.18.15.42.21.87.33,1.38-.24-.21-.48-.48-.69-.75-.99-1.23-1.89-2.49-2.94-3.63-1.26-1.35-2.67-2.61-4.02-3.9-.09-.09-.24-.15-.42-.21v-.06Z"/><path class="cls-6" d="m46.71,2.73c.06-.39.12-.78.3-1.23.81-.18,1.5-.36,2.22-.45.42-.06.96-.09,1.32.09.72.39,2.16.45,2.85,0,.45-.3,1.53-.21,2.04.09.72.42.45.9.09,1.41-.24-.24-.45-.45-.54-.57-.78.3-1.5.63-2.25.81-.81.21-1.68.39-2.49.36-1.17-.06-2.34-.3-3.51-.48l-.03-.03Z"/><path class="cls-4" d="m46.68,2.79c1.2.12,2.34.36,3.54.42.81.03,1.68-.15,2.49-.36.75-.18,1.47-.51,2.25-.81.12.12.3.33.57.6.12.09.15.12.24.21.57.36,1.08.33,1.47-.27.18-.06.3-.12.45-.15.36.87-.27,1.62-1.5,1.71-.63.06-1.26.09-1.86.18-.21.03-.36.27-.63.39-.27-.18-.45-.48-.66-.51-.72-.09-1.44-.09-2.19-.09-.18,0-.39.15-.57.21-.54-.12-1.08-.21-1.62-.36-.78-.21-1.62-.3-1.95-1.2l-.03.03Z"/><path class="cls-9" d="m55.74,2.82s-.09-.06-.15-.12c.3-.54.54-1.02-.18-1.44-.51-.3-1.62-.39-2.04-.09-.66.45-2.1.39-2.85,0-.36-.18-.9-.15-1.32-.09-.69.09-1.38.27-2.16.42.24-.24.54-.6.9-.72,2.43-.66,4.89-1.17,7.41-.39.6.21,1.23.48,1.71.87.3.24.39.69.57,1.14-.15.12-.27.15-.51.21-.54.09-.99.15-1.41.21h.03Z"/><path class="cls-6" d="m50.46,9.3c-.06.15-.09.45-.21.48-.39.12-.84.12-1.26.18-.78.09-1.47-.03-1.86-.81-.06-.18-.06-.36,0-.6.96-.39,1.83-.72,2.49-.96.27-.6.51-1.14.81-1.59.93.84,2.4.72,3.24-.18.09,0,.12-.03.15-.06,0,0,.06,0,.09.09.33.42.6.72.9,1.05.12.15.21.33.27.48-.42-.15-.75-.33-1.14-.42-.39-.12-.75-.09-.75.42-.27-.03-.48-.15-.63-.12-1.17.33-2.31.69-3.54,1.05-.06.15-.09.42-.03.45.48.18.99.33,1.47.51v.03Z"/><path class="cls-4" d="m44.94,14.58c-.06,1.5,1.14,1.95,2.34,2.37,2.16.75,4.41.87,6.66.48,1.17-.18,2.28-.57,3.42-.87,1.02-.3,1.35-.99,1.2-1.92v-.63c.54.09,1.11.27,1.68.51-.27.03-.57.03-.93.06-.18.3-.3.6-.48.87-.3.45-.48,1.11-.93,1.29-3.87,1.83-7.83,1.71-11.77.24-1.08-.39-1.62-1.47-1.35-2.55.09-.03.15,0,.15,0v.15Z"/><path class="cls-9" d="m44.94,14.4h-.09c.15-.57.3-1.14.48-1.77.6-.33,1.2-.6,1.83-.9.15,0,.27,0,.48.03.63.42,1.14.78,1.68,1.14-.3.09-.63.21-1.02.33.12.15.24.33.36.54-.06.03-.12.12-.18.12-.42-.06-.87-.09-1.23-.24-1.17-.51-1.32-.48-1.92.63-.03.06-.06.06-.18.09-.09,0-.18.03-.18.03h-.03Z"/><path class="cls-5" d="m53.76,5.67s-.03.09-.18.12c-1.14.48-2.19.06-3.24,0-.03,0-.06-.06-.06-.06v-1.35c.21-.15.39-.27.57-.27.72,0,1.47,0,2.19.09.21,0,.39.33.6.54.06.3.09.57.12.9v.03Z"/><path class="cls-9" d="m50.19,5.79s.09.03.15.06c.03,0,.03.09.03.09-.24.51-.48,1.02-.75,1.65-.66.24-1.53.57-2.46.9.03-1.53.84-2.22,3.06-2.7h-.03Z"/><path class="cls-9" d="m58.2,13.38c-.69.03-1.41.03-2.13,0-.06,0-.06-.39-.06-.69.09-.24.12-.36.15-.48h.12c.15-.03.27-.09.45-.12.51.42.96.87,1.44,1.35l.03-.06Z"/><path class="cls-4" d="m82.79,33.48s-.27-.24-.3-.39c-.42-2.25-1.65-4.2-2.76-6.21-.06-.09-.09-.21-.12-.36.66.99,1.41,2.01,1.92,3.09.54,1.2.87,2.52,1.26,3.84v.03Z"/><path class="cls-9" d="m55.11,7.38c-.12-.15-.21-.33-.33-.48-.27-.33-.57-.66-.87-1.02.63.15,1.26.36,1.95.63.06.24.09.42.09.72-.18.18-.36.27-.57.33-.12-.06-.21-.12-.3-.15l.03-.03Z"/><path class="cls-4" d="m86.75,51.24c-.06-1.53-.09-3.09-.09-4.74.09,0,.18.03.18.09,0,1.53-.03,3.09-.09,4.65Z"/><path class="cls-4" d="m68.5,16.89c-1.65-.45-3.36-.96-5.07-1.5,1.65.45,3.36.96,5.07,1.5Z"/><path class="cls-4" d="m79.36,25.98c-.72-.87-1.44-1.8-2.16-2.79.72.87,1.44,1.8,2.16,2.79Z"/><path class="cls-4" d="m74.59,20.49c-.81-.57-1.62-1.2-2.46-1.86.81.57,1.62,1.2,2.46,1.86Z"/><path class="cls-4" d="m63.19,15.24c-.84-.15-1.68-.33-2.58-.57.84.15,1.68.33,2.58.57Z"/><path class="cls-4" d="m85.88,43.23c-.39-.51-.75-1.08-1.08-1.71.36.51.75,1.08,1.08,1.71Z"/><path class="cls-4" d="m86.66,45.93c-.18-.39-.33-.84-.54-1.35,0-.09,0-.15.06-.18.21.48.36.99.48,1.53Z"/><path class="cls-4" d="m70.27,17.64c-.54-.18-1.08-.39-1.65-.66.54.18,1.08.39,1.65.66Z"/><path class="cls-4" d="m71.83,18.42c-.39-.15-.81-.33-1.23-.54.39.15.81.33,1.23.54Z"/><path class="cls-4" d="m83.66,39.39c-.09-.33-.18-.72-.21-1.17.09.33.18.72.21,1.17Z"/><path class="cls-4" d="m76.93,22.8c-.33-.24-.63-.54-.96-.9.33.24.63.54.96.9Z"/><path class="cls-4" d="m83.48,37.5c-.09-.33-.18-.75-.21-1.23.09.33.18.75.21,1.23Z"/><path class="cls-4" d="m86.06,53.01c.06-.27.18-.6.36-.93-.06.3-.18.6-.36.93Z"/><path class="cls-4" d="m83.27,35.88c-.09-.24-.15-.54-.21-.87.09.24.15.54.21.87Z"/><path class="cls-4" d="m83.84,40.5c-.09-.18-.15-.42-.18-.69.09.18.15.42.18.69Z"/><path class="cls-4" d="m83.06,34.59c-.12-.21-.21-.45-.27-.72.12.21.21.42.27.72Z"/><path class="cls-18" d="m11.23,44.46s-.06.09-.12.12c-.06-.33-.06-.69,0-1.11.06.27.09.6.12.99Z"/><path class="cls-8" d="m11.62,41.22c0,.15,0,.36-.09.57,0-.15,0-.36.09-.57Z"/><path class="cls-8" d="m11.38,42.24s.03.33,0,.51c-.03-.15-.03-.3,0-.51Z"/><path class="cls-4" d="m86.51,52.02s0-.24.09-.42c0,.12,0,.27-.09.42Z"/><path class="cls-12" d="m95.63,69.39s0-.18.06-.3c0,.06,0,.18-.06.3Z"/><path class="cls-4" d="m84.35,41.01s-.15.03-.27,0c-.03-.06-.06-.12-.06-.21.12,0,.21.09.33.21Z"/><path class="cls-8" d="m11.8,40.74s0,.24-.09.39c0-.09,0-.24.09-.39Z"/><path class="cls-4" d="m84.5,41.16s-.09,0-.15-.06c.03,0,.09,0,.15.06Z"/><path class="cls-4" d="m84.68,41.34s-.09,0-.15-.06c.03,0,.09,0,.15.06Z"/><path class="cls-4" d="m86.18,44.04s-.12,0-.09-.12c.09,0,.12,0,.09.12Z"/><path class="cls-18" d="m11.11,45.81s.06.03.06.09c-.03,0-.06-.03-.06-.09Z"/><path class="cls-13" d="m73.51,37.56c-.33,1.5-.63,3.03-1.05,4.5-1.14,4.32-4.26,7.08-8.37,9.09-7.26,3.57-14.68,2.01-20.8-2.82-.84-.66-1.56-1.47-2.4-2.22-1.83-2.58-3.12-5.34-3.96-8.28-.15-.54-.36-.99-1.05-1.2-.81-.27-1.02-1.05-.69-1.8.33-.78,1.08-.99,2.1-.66.81.27,1.32.93.99,1.59-.48.9,0,1.53.42,2.19,2.91,4.35,7.17,6.78,12.52,7.77.72.12,1.47.27,2.31.45h.51c.09,0,.18.06.39.09,2.34-.09,4.59-.06,6.78-.39,2.07-.3,3.99-1.2,5.64-2.43,1.29-.96,2.4-2.16,3.57-3.24,0,0,.06-.03.09-.09.06-.09.09-.15.12-.21.12-.12.21-.24.36-.45.06-.12.09-.18.09-.24.39-.84.78-1.68,1.11-2.55.09-.18.03-.45-.03-.66-.27-.69-.33-1.35.36-1.86.54-.39,1.08-.24,1.56.15.57.45.69,1.35.27,2.04-.03.06-.12.12-.18.24q0,.06-.09.06c-.57.12-.81.36-.6.87l.03.06Z"/><path class="cls-13" d="m44.85,38.88c-1.17-3.42-1.41-6.87-1.17-10.35.06-1.11.69-1.92,1.38-1.92,1.08,0,1.44.81,1.71,1.53,1.17,3.03,1.35,6.15.6,9.33-.12.51-.18,1.05-.39,1.53-.18.39-.51.84-.87.93-.24.06-.66-.42-.99-.69-.09-.09-.15-.24-.24-.39l-.03.03Z"/><path class="cls-13" d="m64.72,35.82c-.33-2.49-.72-4.89-.96-7.32-.06-.51.27-1.08.57-1.53.42-.63,1.14-.66,1.53,0,.54.9,1.05,1.89,1.29,2.91.66,2.76.93,5.55.15,8.37,0,.09,0,.24-.09.3-.21.27-.45.75-.63.72-.33,0-.75-.3-.87-.57-.39-.9-.66-1.86-.99-2.85v-.03Z"/><path class="cls-3" d="m32.84,19.11c-2.22.18-3.72,1.14-4.38,3.09,0,.06,0,.12-.06.15-.27.27-.66.81-.84.78-.54-.15-.6-.66-.39-1.11.75-1.62,1.44-3.27,2.37-4.8.84-1.38,2.85-1.98,4.5-1.59.93.24,1.17.57,1.17,1.65,0,1.23-.21,1.47-1.2,1.68-.36.06-.72.12-1.17.18v-.03Z"/><path class="cls-8" d="m70.36,40.23c-1.11,1.08-2.22,2.28-3.51,3.24-1.65,1.23-3.57,2.13-5.64,2.43-2.19.33-4.44.3-6.72.39,1.8-.3,3.69-.48,5.55-.87,3.18-.66,5.94-2.13,8.46-3.96.57-.42,1.2-.81,1.86-1.2v-.03Z"/><path class="cls-3" d="m38.66,15.3c-.15-.36-.27-.69-.36-.99.42-.03.84-.15,1.26-.09.24.03.45.3.66.48.39.33.81.75.3,1.2-.45.45-1.02.24-1.47-.12-.15-.12-.24-.3-.42-.48h.03Z"/><path class="cls-8" d="m54,46.17s-.24.03-.39,0h.39Z"/><path class="cls-8" d="m71.08,39.3s0,.09-.03.15c0-.03,0-.09.03-.15Z"/><path class="cls-8" d="m70.6,39.96s0,.09-.06.18c0-.03,0-.09.06-.18Z"/><path class="cls-14" d="m75.43,70.53c.45.21.9.39,1.35.63,3.39,1.92,7.08,2.91,10.99,3.36,1.53.18,3.06.33,4.65.48-.45.6-.93,1.29-1.56,1.8-1.5,1.26-2.97,2.58-4.65,3.6-2.16,1.32-4.44,2.49-6.81,3.45-3.06,1.23-6.24,2.25-9.42,3.24-1.95.63-3.99,1.02-5.97,1.53-.15.03-.33.06-.51.06-3.54.06-7.11.21-10.66.12-3.3-.06-6.6-.33-9.91-.6-4.02-.36-7.95-1.02-11.83-2.16-.3-.09-.63-.18-.96-.3.15-.12.39-.12.42-.21.27-.69.51-1.41.84-2.22,3.39-.15,6.72-.18,10.12-.18.54,0,1.02-.06,1.62-.12.81-.06,1.56-.06,2.34-.06.12,0,.24-.03.42-.12,1.05-.09,2.01-.18,3-.18,7.2,0,14.38.06,21.58.12,1.62,0,3.27,0,4.89.03.75,0,1.11-.33,1.08-1.02,0-.57-.03-1.11-.09-1.68-.3-3.21-.6-6.39-.93-9.6v.03Z"/><path class="cls-1" d="m73.54,37.53c-.27-.48,0-.72.57-.84-.12.27-.33.54-.57.84Z"/><path class="cls-2" d="m41.45,83.04c-3.33.06-6.66.12-10.06.18h-4.17c-1.08,0-1.41-.36-1.41-1.32v-11.55c-.06-.78-.09-1.47-.12-2.13-.06-1.32.15-1.53,1.59-1.53h12.64c5.7.06,11.41.18,17.11.24,4.08,0,8.13,0,12.22-.09,1.71,0,3.42-.15,5.16-.21.63,0,.93.24.93.87s.03,1.26.06,1.89c0,.33,0,.63.03,1.02.33,3.27.66,6.45.96,9.66.06.54.06,1.11.09,1.68.03.69-.33,1.02-1.08,1.02-1.62,0-3.27,0-4.89-.03-7.2-.03-14.38-.09-21.58-.12-.96,0-1.95.09-3.03.15-.21.03-.3.06-.39.09-.75,0-1.5.06-2.37.09-.63.03-1.11.06-1.59.09m21.16-11.19c-.42-.15-.9-.24-1.05.24-.06.18.24.6.48.69.33.09.75,0,1.14-.03-.12-.27-.27-.54-.42-.96.27,0,.6.09.81-.03.24-.12.39-.45.57-.66-.36-.18-.72-.42-1.11-.48-.21-.03-.69.18-.69.27,0,.27.21.51.33.78.03.09,0,.18-.09.18m-24.4,2.43c-.06.27-.15.54-.21.84.3,0,.63.06.93,0,.39-.09.75-.3,1.17-.51.48,1.44.9,2.79,1.38,4.11.09.27.51.42.78.63.09-.3.36-.66.27-.93-.24-.99-.6-1.92-.93-2.91-.48-1.38-.45-1.35,1.02-1.83.24-.09.39-.42.57-.63-.27-.12-.54-.39-.81-.39-.51,0-.99.18-1.5.3-.09-.3-.15-.51-.24-.81.27-.12.54-.24.78-.33.45-.18,1.32-.12,1.05-.84-.27-.72-.99-.33-1.47-.15-.6.24-.9.15-1.11-.39-.06-.18-.18-.39-.36-.42-.24-.09-.57-.12-.75-.03-.12.06-.15.42-.12.6,0,.18.15.33.27.51.3.42.15.63-.3.87-.48.27-.9.66-1.26.96-.42-.09-.84-.24-1.26-.27-2.16-.12-3.84.93-5.46,2.04-.18.12-.15.51-.21.75.3,0,.66.15.9.06.72-.33,1.35-.75,2.13-1.17.54,1.41.6,2.61-.48,3.72-.21.21-.33.75-.18.9.36.39.75.12,1.08-.21,1.23-1.17,1.35-2.58.96-4.08-.06-.24-.12-.48-.15-.66.87-.72,2.28.48,2.85-.9.81.9,1.32-.27,2.04-.24.42.45.3.75-.3.93-.33.12-.6.3-.99.54m15.94-.93c.39-.12.78-.24,1.26-.39-.03.33-.03.51-.06.66-.3,1.35-.6,2.7-.84,4.05-.03.24.27.54.42.81.24-.21.6-.39.69-.63.24-.66.39-1.32.51-2.01.18-.93.36-1.86.48-2.82.09-.69-.36-1.29-1.05-1.17-1.02.21-2.01.69-2.97,1.11-.12.06-.18.54-.06.66.09.12.48.15.72.12.27-.06.51-.24.87-.42m16.48-.69c-.15-.39-.27-.93-.87-.72-.18.06-.36.51-.33.78.18,1.47.39,2.94.66,4.38.06.36.42.66.66.99.39-.24.78-.42,1.11-.69.42-.36.81-.75,1.17-1.17.18-.21.24-.48.36-.72-.27-.09-.57-.3-.78-.24-.48.12-.9.39-1.38.6-.18-1.02-.36-2.04-.6-3.21m-7.32,2.61c-.78-.54-1.53-1.14-2.34-1.62-.87-.51-1.98-.3-2.43.42-.12.21,0,.51,0,.78.27,0,.63.09.75-.03.6-.57,1.08-.3,1.56.06.84.6,1.62,1.26,2.49,1.8.27.18.69.09,1.05.12-.09-.33-.12-.66-.3-.93-.15-.24-.48-.39-.81-.63m4.35-.66c-.12.69-.24,1.35-.3,2.04,0,.33,0,.9.21.99.57.24.84-.24.9-.66.15-1.08.27-2.13.27-3.21,0-.45-.33-.93-.66-1.35-.12-.18-.57-.15-.87-.21,0,.27-.09.57,0,.84.12.48.3.93.48,1.53m-19.57-.33c.18,0,.36,0,.51-.09.33-.18.9-.36.93-.57,0-.57-.57-.63-1.02-.51-.96.24-1.92.51-2.82.84-.21.06-.24.48-.39.75.3.06.63.24.9.18.6-.12,1.17-.39,1.92-.6m6.72-4.29c-.9.3-1.8.57-2.67.96-.21.09-.21.57-.3.84.33,0,.69.09.99,0,.69-.21,1.38-.48,2.04-.75.3-.12.57-.33.84-.48-.27-.18-.51-.39-.9-.57m-21.91.78c-.57.33-1.14.6-1.65.96-.18.12-.12.48-.18.75.27.03.6.15.81.06.87-.33,1.71-.72,2.52-1.11.21-.09.42-.42.39-.57-.06-.18-.39-.42-.6-.39-.39,0-.78.18-1.26.3h-.03Z"/><path class="cls-11" d="m75.43,69.42c-.09-.63-.15-1.26-.15-1.89s-.27-.9-.93-.87c-1.71.06-3.42.18-5.16.21-4.08.06-8.13.12-12.22.09-5.7-.03-11.41-.18-17.11-.24-4.2-.03-8.43,0-12.64,0-1.44,0-1.65.21-1.59,1.53,0,.66.09,1.32.09,2.04-.72-.18-1.38-.45-2.13-.78-.45-.69-.84-1.29-1.26-1.89-.45-.63-1.14-1.14-1.44-1.8-.27-.63-.09-1.44-.3-2.13-.36-1.17.03-2.25.27-3.36.12-.66.18-1.26.9-1.68.42-.24.39-.66-.18-.9-.57-.27-1.14-.57-1.68-.87-.6-.33-1.23-.69-1.92-1.11-.06,0-.27.12-.57.24.24-.78-.21-.96-.84-.96-.18,0-.42-.06-.51-.18-.57-.6-1.08-1.26-1.62-1.95v-.42c6.03,5.25,13.54,7.5,21.4,9.24,5.1,1.11,10.3,1.44,15.52,1.8,4.8.33,9.57.15,14.32-.66,2.49-.42,4.98-1.02,7.44-1.62,2.61-.63,5.13-1.53,7.5-2.97.24-.12.36-.24.51-.36.48-.36.93-.72,1.44-1.08.27,0,.48.06.84.12-.51.42-.51.99-1.44,1.02-.99,0-1.17,1.05-.87,1.95.36,1.08.48,2.25.69,3.39,0,.06,0,.15-.06.24-.66,1.17-1.26,2.34-1.98,3.48-.3.45-.78.81-1.2,1.26-1.02.42-2.04.81-3.12,1.2v-.09Z"/><path class="cls-16" d="m14.44,52.98c.54.63,1.05,1.26,1.62,1.89.12.12.33.18.51.18.63,0,1.08.18.84.96.3-.12.51-.21.57-.24.69.39,1.29.75,1.92,1.11.54.3,1.11.63,1.68.87.57.24.6.66.18.9-.72.42-.75,1.02-.9,1.68-.21,1.11-.6,2.19-.27,3.36.21.69,0,1.47.3,2.13s.96,1.2,1.44,1.8c.45.57.81,1.2,1.2,1.86-1.89-.63-3.84-1.26-5.67-2.07-.81-.36-1.47-1.05-2.22-1.71-2.28-4.17-3.03-8.34-1.23-12.75l.03.03Z"/><path class="cls-15" d="m14.44,52.92c-1.8,4.44-1.05,8.64,1.2,12.75-1.32-.21-2.04-1.29-2.91-2.07-.81-.72-1.62-1.62-2.07-2.55-.66-1.38-1.29-2.85-1.47-4.32-.18-1.56.15-3.15.27-4.8.54-.96,1.02-1.89,1.59-2.79.12-.18.36-.3.6-.48.96,1.23,1.86,2.49,2.79,3.78v.48Z"/><path class="cls-3" d="m14.74,46.92s-.06-.06-.12-.21c-.12-.3-.21-.48-.3-.66.06-.03.12-.09.15-.12.27.18.57.36.84.54.3.27.6.57.96.93.33.27.57.45.84.66,0,0,.06,0,.09.09.21.18.42.3.6.42.27.18.54.36.9.6.24.33.42.6.6.87-.09,0-.18-.03-.39-.12-.45-.18-.78-.3-1.11-.39-.03,0-.09-.03-.21-.15-.45-.33-.81-.57-1.17-.81-.36-.33-.69-.63-1.11-1.05-.24-.24-.39-.42-.57-.57v-.03Z"/><path class="cls-9" d="m19.3,50.04c-.18-.3-.36-.57-.57-.87.9.27,1.74.66,2.31,1.56-.93.21-1.32-.21-1.77-.69h.03Z"/><path class="cls-9" d="m38.9,56.55c-.24-.12-.42-.24-.6-.33.03-.09.06-.18.09-.27.63.15,1.23.33,1.86.48,0,.12-.06.21-.06.33-.42-.06-.81-.12-1.29-.21Z"/><path class="cls-9" d="m15.37,46.41c-.3-.12-.6-.3-.87-.48-.06.03-.12.09-.15.12.09.18.18.36.27.6-.24-.21-.48-.45-.81-.78.9-.33,1.32-.09,1.56.54Z"/><path class="cls-9" d="m16.42,48.57c.39.21.75.45,1.11.72-.36-.21-.75-.45-1.11-.72Z"/><path class="cls-9" d="m17.8,49.53c.33.06.69.18,1.05.33-.33-.06-.69-.18-1.05-.33Z"/><path class="cls-9" d="m17.14,48c-.27-.15-.51-.33-.78-.57.24.15.54.33.78.57Z"/><path class="cls-9" d="m14.74,46.95c.21.12.39.27.57.48-.18-.12-.39-.27-.57-.48Z"/><path class="cls-9" d="m17.8,48.48c-.18-.06-.36-.18-.57-.33.18.06.39.18.57.33Z"/><path class="cls-16" d="m81.05,57.9s-.21.24-.39.33c.06-.12.21-.21.39-.33Z"/><path class="cls-4" d="m55.05,7.38c.15.03.24.06.36.21.15.96.24,1.8.36,2.67-.15,0-.27,0-.48-.06-.18-1.2-.66-1.59-1.56-1.2-.21.09-.33.3-.48.48.21.12.39.21.6.33.27.15.54.27.84.42-.3.18-.6.51-.9.54-1.23.12-2.49.12-3.75.15-.21,0-.45-.12-.66-.36.48-.09.99-.09,1.44-.24.24-.09.6-.39.6-.57,0-.39-.33-.69-.87-.45-.54-.12-1.05-.27-1.53-.45-.06,0,0-.3.09-.42,1.17.18,2.22.39,3.3.42.69,0,1.59,0,1.89-1.02-.33-.12-.66-.24-.99-.39-.06-.54.3-.54.69-.45.36.12.72.27,1.14.42l-.09-.03Z"/><path class="cls-4" d="m56.07,12.18s0,.27-.09.45c-2.16.96-4.35,1.11-6.63.33-.6-.39-1.11-.75-1.68-1.14.18-.06.48-.18.63-.09,2.13,1.11,4.41.9,6.66.6.33-.03.69-.09,1.08-.12l.03-.03Z"/><path class="cls-6" d="m55.8,10.29c-.18-.87-.27-1.74-.39-2.67.18-.15.36-.24.54-.36.21.15.51.36.54.6.18.93.27,1.86.39,2.82-.12.03-.21.09-.33.12-.24-.15-.48-.3-.75-.48v-.03Z"/><path class="cls-9" d="m54.69,10.2c-.33-.15-.6-.27-.87-.42-.21-.09-.39-.21-.6-.33.15-.15.27-.39.48-.48.9-.39,1.41,0,1.5,1.2-.15.06-.33.03-.51,0v.03Z"/><path class="cls-4" d="m56.28,12.15s-.06.06-.09.06c0,0,.03-.06.09-.06Z"/><path class="cls-4" d="m57.6,14.25c-.9,1.26-2.34,1.71-3.87,1.98-2.73.48-5.34.33-7.8-.99-.24-.12-.42-.39-.66-.66,1.08.27,2.16.69,3.3.93,3,.63,5.88.3,8.55-1.17.12-.06.27-.06.48-.09Z"/><path class="cls-9" d="m51.6,14.61c-1.02.36-1.05-.6-1.86-.84h4.95l.06.27c-.45.36-.93.69-1.65.63-.48-.06-.96-.06-1.5-.06Z"/><path class="cls-6" d="m44.91,14.46s.09-.06.12-.06c0,.06,0,.09-.09.18-.03,0-.03-.03-.03-.12Z"/><path class="cls-6" d="m55.77,2.85c.42-.12.84-.18,1.35-.24-.27.57-.75.6-1.35.24Z"/><path class="cls-5" d="m53.16,7.38c.39.12.72.24,1.05.39-.3.99-1.2,1.02-1.89,1.02-1.05,0-2.13-.24-3.24-.42,1.11-.39,2.25-.75,3.42-1.08.15-.06.39.06.63.12l.03-.03Z"/><path class="cls-4" d="m50.4,6s-.03-.12-.06-.15c1.02,0,2.07.45,3.18-.03-.72.93-2.16,1.02-3.12.18Z"/><path class="cls-17" d="m41.51,83.1c.42-.09.9-.12,1.47-.12-.42.06-.93.12-1.47.12Z"/><path class="cls-17" d="m45.45,82.92s.15-.09.3-.09c-.06.06-.18.09-.3.09Z"/><path class="cls-10" d="m38.27,74.25c.36-.18.63-.39.96-.48.6-.21.69-.48.3-.93-.69,0-1.2,1.14-2.04.24-.57,1.38-1.98.18-2.85.9.03.18.09.42.15.66.36,1.5.24,2.91-.96,4.08-.33.3-.72.6-1.08.21-.15-.15,0-.72.18-.9,1.08-1.11,1.02-2.34.48-3.72-.75.42-1.41.84-2.13,1.17-.24.12-.6,0-.9-.06.06-.27.03-.63.21-.75,1.62-1.11,3.3-2.16,5.46-2.04.42,0,.84.18,1.26.27.39-.3.78-.69,1.26-.96.45-.24.6-.45.3-.87-.12-.15-.24-.33-.27-.51,0-.21,0-.57.12-.6.21-.09.54-.06.75.03.15.06.3.27.36.42.21.57.51.63,1.11.39.48-.18,1.23-.57,1.47.15.27.72-.57.66-1.05.84-.27.09-.51.21-.78.33.09.3.15.51.24.81.51-.12.99-.27,1.5-.3.27,0,.54.24.81.39-.18.21-.33.57-.57.63-1.47.48-1.47.45-1.02,1.83.33.96.69,1.92.93,2.91.06.27-.18.63-.27.93-.27-.21-.69-.36-.78-.63-.48-1.32-.9-2.67-1.38-4.11-.42.18-.78.39-1.17.51-.27.09-.6,0-.93,0,.06-.27.15-.54.27-.87l.06.03Z"/><path class="cls-10" d="m54.09,73.35c-.3.15-.54.33-.81.39-.24.06-.63,0-.72-.12-.12-.15-.06-.63.06-.66.96-.42,1.92-.9,2.97-1.11.69-.12,1.14.48,1.05,1.17-.12.93-.3,1.89-.48,2.82-.15.69-.27,1.35-.51,2.01-.09.24-.45.42-.69.63-.15-.27-.45-.57-.42-.81.24-1.35.57-2.7.84-4.05.03-.18.03-.36.06-.66-.48.15-.87.27-1.32.42l-.03-.03Z"/><path class="cls-10" d="m70.66,72.72c.21,1.08.39,2.13.57,3.15.48-.21.9-.48,1.38-.6.21-.06.51.15.78.24-.12.24-.21.51-.36.72-.36.42-.75.81-1.17,1.17-.33.27-.75.48-1.11.69-.24-.33-.57-.63-.66-.99-.27-1.44-.48-2.91-.66-4.38-.03-.24.12-.69.33-.78.63-.21.72.33.9.75v.03Z"/><path class="cls-10" d="m63.37,75.3c.3.21.6.36.78.6.18.27.21.63.3.93-.36-.03-.78.03-1.05-.12-.87-.57-1.68-1.2-2.49-1.8-.51-.36-.99-.63-1.56-.06-.12.12-.51.03-.75.03,0-.27-.12-.57,0-.78.45-.72,1.53-.93,2.43-.42.81.48,1.56,1.08,2.4,1.65l-.06-.03Z"/><path class="cls-10" d="m67.66,74.55c-.15-.54-.36-.99-.48-1.47-.06-.27,0-.57,0-.84.3.06.75,0,.87.21.3.39.63.87.66,1.35,0,1.08-.12,2.16-.27,3.21-.06.42-.36.9-.9.66-.18-.09-.24-.66-.21-.99.06-.69.21-1.35.3-2.1l.03-.03Z"/><path class="cls-10" d="m48.03,74.28c-.66.21-1.23.45-1.83.57-.27.06-.6-.12-.9-.18.12-.27.18-.69.39-.75.93-.33,1.86-.6,2.82-.84.45-.09,1.02-.06,1.02.51,0,.21-.6.39-.93.57-.15.06-.33.06-.57.09v.03Z"/><path class="cls-10" d="m54.87,69.99c.33.18.57.39.84.57-.27.15-.54.36-.84.48-.66.27-1.35.54-2.04.75-.3.09-.66,0-.99,0,.09-.3.09-.75.3-.84.87-.39,1.77-.66,2.73-.96Z"/><path class="cls-10" d="m32.96,70.74c.45-.12.81-.27,1.2-.3.21,0,.57.21.6.39.06.15-.18.48-.39.57-.81.42-1.65.78-2.52,1.11-.21.09-.54-.03-.81-.06.06-.27,0-.63.18-.75.51-.36,1.11-.66,1.71-.99l.03.03Z"/><path class="cls-17" d="m62.74,71.94s0-.18-.03-.27c-.12-.27-.33-.51-.33-.78,0-.09.48-.33.69-.27.39.09.75.33,1.11.48-.18.24-.33.54-.57.66-.21.12-.54,0-.84.12,0,.09,0,.06,0,.06h-.03Z"/><path class="cls-15" d="m62.68,71.91l.09.06c.15.27.27.54.42.78-.39,0-.81.15-1.14.03-.24-.06-.54-.51-.48-.69.15-.51.63-.39,1.11-.21v.03Z"/></g></g></svg>