<?xml version="1.0" encoding="UTF-8"?><svg id="_レイヤー_2" xmlns="http://www.w3.org/2000/svg" viewBox="0 0 64 64"><defs><style>.cls-1{fill:#f3cf22;}.cls-2{fill:#fafafa;}.cls-3{fill:#fdfbe5;}.cls-4{fill:#655135;}.cls-5{fill:#7d694f;}.cls-6{fill:#a79070;}.cls-7{fill:#c7a40c;}.cls-8{fill:#c5a40e;}.cls-9{fill:#c8baa7;}.cls-10{fill:#171717;}.cls-11{fill:#071708;}.cls-12{fill:#090909;}.cls-13{fill:#070502;}.cls-14{fill:#1d2110;}.cls-15{fill:#1c2b1c;}.cls-16{fill:#0d1a0e;}.cls-17{fill:#2b2f1e;}.cls-18{fill:#3a3f2e;}</style></defs><g id="_レイヤー_2-2"><g id="Layer_1"><path class="cls-1" d="m12.21,18.36c1.2-2.24,2.7-4.3,4.8-5.88,2.84-2.12,6-3.66,9.71-4,1.12-.1,2.26-.08,3.44-.06-.06.42-.16.8-.3,1.2-.16.72.18,1.44.9,1.7,2.64.98,5.28,1.04,7.84-.16.28-.14.42-.56.62-.86.12-.18.2-.38.3-.52.12.12.24.2.38.24.8.26,1.64.48,2.44.76,2.3.76,4.4,1.88,6.14,3.48,1.56,1.44,2.68,3.18,3.64,5.02.44.86.36,1.62-.12,2.34-.52.8-1.16,1.52-1.8,2.26-.2.22-.5.38-.72.54.06-.08.1-.12.12-.16.26-.46.18-1.06-.18-1.36-.32-.26-.68-.36-1.04-.1-.46.34-.4.78-.24,1.24.06.14.08.32.02.44-.22.58-.5,1.14-.76,1.72-.04.04-.04.08-.06.16-.08.12-.16.2-.26.28-.04.04-.06.08-.06.14,0,0-.04.04-.08.04-.44.26-.84.52-1.24.8-1.7,1.22-3.54,2.2-5.64,2.64-1.24.26-2.5.38-3.78.56-.1,0-.16-.04-.24-.06h-.34c-.54-.1-1.02-.18-1.5-.28-3.56-.66-6.42-2.28-8.34-5.18-.3-.46-.6-.86-.28-1.46.22-.44-.12-.88-.66-1.06-.68-.22-1.16-.06-1.4.44-.22.5-.08,1.02.46,1.2.46.16.58.44.7.8.56,1.96,1.42,3.8,2.58,5.54-2.36-.26-4.52-1-6.56-2.04-1.2-.6-2.3-1.44-3.38-2.24-2.34-1.72-3.8-4-4.72-6.6-.18-.48-.22-1.02-.32-1.52m17.71,7.58s.08.18.14.22c.22.18.52.5.66.46.24-.08.46-.38.58-.62.14-.32.18-.68.26-1.02.48-2.1.38-4.18-.4-6.22-.18-.5-.44-1.04-1.14-1.02-.46,0-.86.54-.92,1.28-.16,2.32,0,4.62.8,6.94m13.23-2.02c.2.62.38,1.26.64,1.86.08.18.38.38.58.38.12,0,.28-.3.42-.48.04-.06.04-.14.06-.2.52-1.86.34-3.72-.1-5.58-.16-.68-.5-1.32-.86-1.94-.26-.44-.72-.42-1.02,0-.2.3-.42.7-.38,1.02.16,1.62.42,3.22.66,4.92m-21.21-11.18c.24-.04.5-.06.74-.12.68-.14.8-.32.8-1.12,0-.74-.14-.96-.78-1.1-1.1-.26-2.44.14-3,1.06-.62,1.02-1.06,2.14-1.58,3.2-.14.3-.12.66.26.74.12.04.36-.32.56-.52.02-.02.02-.06.04-.1.44-1.3,1.44-1.94,2.96-2.06m3.86-2.52s.14.22.24.3c.3.22.66.36.98.08.32-.32.06-.58-.2-.8-.14-.12-.28-.3-.44-.32-.28-.04-.56.04-.84.06.08.22.14.42.28.7l-.02-.02Z"/><path class="cls-12" d="m63.72,46.48c.1.42.32.82.28,1.22-.12,1.48-.24,2.98-.54,4.44-.22,1-.62,2-1.16,2.9-.4.64-1.1,1.18-1.76,1.62-1.16.78-2.4,1.48-3.64,2.14-.94.5-1.92.92-2.88,1.36-1.08.48-2.18,1-3.3,1.42-.98.38-2,.68-3.02.94-2.36.62-4.78.84-7.22,1.1-2.4.26-4.82.44-7.22.36-2.02-.06-4.08,0-6.08-.38-1.22-.22-2.5-.24-3.72-.48-1.66-.3-3.28-.72-4.92-1.1-1.3-.3-2.64-.54-3.92-.9-1.54-.42-3.04-.94-4.56-1.42-.84-.26-1.7-.48-2.52-.82-1.54-.64-3.06-1.34-4.6-2.02-.56-.24-.88-.68-1.04-1.2-.4-1.32-.82-2.64-1.16-3.96-.54-2.1-.78-4.24-.68-6.4,0-.24.1-.48.22-.7.72,2.9,2.6,5.08,5.1,6.76,1.56,1.04,3.3,1.86,5.02,2.68,1.34.62,2.74,1.14,4.14,1.6,1.18.4,2.4.7,3.6,1.02.66.18,1.32.3,2,.48.22.1.44.14.64.2,2.56.76,5.2,1.2,7.88,1.44,2.2.2,4.4.36,6.6.4,2.36.06,4.74-.06,7.1-.08.12,0,.24,0,.34-.04,1.34-.34,2.68-.62,3.98-1.02,2.12-.66,4.24-1.34,6.28-2.16,1.58-.64,3.1-1.42,4.54-2.3,1.12-.68,2.1-1.56,3.1-2.4.42-.34.72-.8,1.1-1.24.3-.38.64-.7.86-1.08.44-.78.8-1.58,1.18-2.38h-.02Z"/><path class="cls-7" d="m49.45,24.44c.24-.18.54-.34.74-.56.62-.74,1.26-1.46,1.8-2.26.48-.72.56-1.48.12-2.34-.96-1.84-2.08-3.58-3.64-5.02-1.74-1.6-3.84-2.7-6.14-3.48-.8-.26-1.62-.5-2.44-.76-.14-.04-.24-.14-.34-.26.22-.06.44-.06.64-.06.06,0,.1,0,.2.06.62.16,1.2.3,1.78.42,0,0,.04,0,.1.04,1.18.36,2.3.7,3.44,1.04l.02.04c.4.18.76.32,1.12.48.04,0,.08.04.18.1.32.18.6.3.88.42.04,0,.08.04.16.1.58.46,1.14.88,1.68,1.28.3.28.58.54.9.88.24.26.44.46.66.66.04.04.08.1.14.2.5.68.98,1.3,1.46,1.92.04.08.08.16.14.3.04.14.06.2.1.26.74,1.32,1.56,2.64,1.84,4.14.02.1.12.2.2.3v.2c.04.22.1.38.16.54v.2c.04.26.08.46.12.64v.2c.04.34.08.62.14.9v.4c.02.34.08.6.14.88v.2c.02.22.08.38.12.54.02.04.06.06.1.14.04.08.04.12.04.2-.18.82-.2,1.66-.58,2.34-.6,1.12-1.4,2.18-2.2,3.2-.7.88-1.54,1.66-2.62,2.18-2.3,1.1-4.78,1.5-7.32,1.62-1.22.06-2.44.08-3.66.12-1.98.06-3.94.12-5.92.22-2.4.12-4.76-.28-7.08-.7-2.78-.5-5.52-1.08-8.16-2.12-2.72-1.08-5.24-2.34-7.2-4.44-1.18-1.26-2-2.62-1.54-4.38.08-.32,0-.68,0-1.02.22-.62.42-1.24.66-1.84.56-1.38,1.16-2.74,1.78-4.14.14.48.18,1.02.34,1.5.92,2.6,2.38,4.88,4.72,6.6,1.08.8,2.18,1.62,3.38,2.24,2.04,1.02,4.2,1.78,6.6,2.04.58.48,1.08,1,1.64,1.46,4.08,3.22,9.02,4.26,13.87,1.88,2.74-1.34,4.8-3.2,5.58-6.06.26-1,.46-2,.72-3.02.16-.2.3-.38.42-.56h0l.02-.06Z"/><path class="cls-17" d="m20.07,57.12c-.66-.14-1.34-.26-2-.44-1.2-.32-2.42-.62-3.6-1.02-1.4-.48-2.82-.98-4.14-1.6-1.72-.82-3.46-1.62-5.02-2.68-2.5-1.68-4.38-3.86-5.06-6.8-.1-.68-.16-1.34-.14-2.02.22-.38.34-.72.5-1.04.92-1.76,1.86-3.5,3.16-5.04.68-.82,1.46-1.52,2.52-1.86-.08,1.1-.3,2.16-.18,3.2.12.98.54,1.96.98,2.88.32.64.84,1.22,1.38,1.7.6.52,1.06,1.24,1.96,1.44.5.4.94.86,1.48,1.1,1.24.54,2.52.96,3.82,1.42.5.18.94.34,1.42.56.02,2.58.04,5.12.02,7.66,0,.64.22.88.94.88.92,0,1.82,0,2.74.06-.16.52-.32,1-.52,1.46-.02.06-.2.06-.3.1l.04.04Z"/><path class="cls-1" d="m9.71,24.38c.04.32.1.68,0,1-.44,1.76.38,3.12,1.54,4.38,1.96,2.1,4.48,3.36,7.2,4.44,2.64,1.04,5.4,1.62,8.16,2.12,2.32.42,4.68.82,7.08.7,1.98-.1,3.94-.16,5.92-.22,1.22-.04,2.44-.06,3.66-.12,2.54-.1,5.02-.52,7.32-1.62,1.08-.52,1.92-1.3,2.62-2.18.8-1.02,1.58-2.08,2.2-3.2.36-.68.4-1.52.6-2.32.08-.04.12-.02.18,0v.04s.08.06.1.08v.04s.08.06.1.08c0,0,.02.04.04.1.26.44.5.82.74,1.2.04.12.1.22.14.4,0,.1,0,.12.06.12,0,.04.02.08,0,.18-.04.06-.04.1-.1.14-.26.6-.42,1.22-.7,1.78-1.14,2.2-2.78,4.06-4.92,5.48-1.08.72-2.32,1.28-3.56,1.76-.76.3-1.62.34-2.44.52-2.06.44-4.14.74-6.28.76-.42,0-.84.02-1.26.02-1.24,0-2.48.1-3.72.04-1.92-.08-3.84-.24-5.74-.4-1.54-.14-3.08-.24-4.58-.54-2.76-.54-5.36-1.52-7.9-2.62-2.1-.92-3.96-2.2-5.86-3.42-1.28-.82-2.22-1.8-2.64-3.2-.02-.08-.14-.14-.24-.26-.02-.26-.04-.48-.06-.7,0-.12.04-.22.1-.4s.06-.3.06-.42c0-.06,0-.14.08-.24.06-.18.08-.3.1-.42l.04-.04c.06-.12.08-.2.08-.3.3-1.08.94-1.96,1.8-2.76m1.74,7.66s-.04,0-.02-.08c-.18-.12-.36-.24-.6-.42-.2-.18-.4-.38-.56-.64-.16-.38-.44-.54-1.06-.32.22.22.38.38.58.62,0,.02.04.04.02.14.14.1.26.22.44.38.24.22.46.42.68.7.26.16.5.32.84.52.02,0,.06.02.08.1.24.06.48.14.82.24.06,0,.12.02.2.1.28.28.56.58,1.16.44-.38-.62-.94-.88-1.62-1.12-.18-.12-.36-.24-.54-.42-.14-.08-.28-.14-.44-.24m14.53,5.66c.28.04.54.08.82.12,0-.08.04-.14.04-.22-.42-.1-.82-.22-1.24-.32-.02.06-.04.12-.06.18.12.06.24.14.44.24Z"/><path class="cls-8" d="m7.51,29.7s.2.14.22.22c.44,1.38,1.38,2.38,2.64,3.2,1.9,1.22,3.74,2.5,5.86,3.42,2.54,1.1,5.14,2.08,7.9,2.62,1.5.28,3.04.4,4.58.54,1.92.16,3.82.32,5.74.4,1.24.06,2.48-.02,3.72-.04.42,0,.84-.02,1.26-.02,2.12-.02,4.2-.32,6.28-.76.82-.18,1.68-.22,2.44-.52,1.24-.5,2.46-1.04,3.56-1.76,2.14-1.42,3.78-3.28,4.92-5.48.3-.56.44-1.18.72-1.74.18.32.28.62.38.92v.32c0,1.14,0,2.18.04,3.22,0,.04,0,.08-.06.18-.06.14-.08.24-.08.34l-.04.02c-.12.22-.18.44-.26.64-.06.1-.12.22-.22.36-.72.74-1.38,1.44-2.1,2.14-.34.24-.66.48-1,.74-.12.08-.22.16-.34.24-1.54.98-3.2,1.56-4.96,1.98-1.64.4-3.3.8-4.96,1.08-3.16.54-6.34.66-9.54.44-3.46-.24-6.92-.46-10.35-1.2-5.22-1.14-10.25-2.64-14.27-6.18-.62-.86-1.22-1.7-1.82-2.56-.1-.3-.2-.56-.28-.82,0-.28-.04-.58-.06-.92,0-.08,0-.1-.02-.12,0-.24-.02-.48,0-.78.06-.06.08-.06.1-.06l-.02-.06Z"/><path class="cls-17" d="m63.72,46.44c-.4.84-.76,1.64-1.18,2.42-.22.38-.56.7-.9,1.08-1.08-.08-2.1-.16-3.12-.28-2.6-.3-5.06-.96-7.32-2.24-.28-.16-.6-.28-.92-.46-.02-.26-.02-.46,0-.68.72-.26,1.4-.5,2.1-.76,1.82-.72,3.42-1.72,4.68-3.08.64-.7,1.2-1.5,1.14-2.52-.04-.76,0-1.5.02-2.26.12.04.22.08.28.14.9.86,1.84,1.7,2.68,2.6.7.76,1.3,1.62,1.96,2.42.16.18.32.36.48.56.08.74.18,1.48.26,2.2,0,.12-.04.24-.1.42-.04.12-.06.18-.08.24v.18l.02.02Z"/><path class="cls-16" d="m58.21,37.66c0,.76-.02,1.5,0,2.26.06,1.02-.5,1.82-1.14,2.52-1.26,1.38-2.86,2.36-4.68,3.04.24-.3.56-.54.76-.84.48-.76.88-1.54,1.32-2.32.02-.04.06-.1.04-.16-.14-.76-.22-1.54-.46-2.26-.2-.6-.08-1.28.58-1.3.64,0,.62-.4.96-.68-.24-.04-.38-.06-.52-.08.68-.7,1.34-1.38,2.06-2.1.22.16.42.34.6.58.16.48.32.9.48,1.32v.02Z"/><path class="cls-18" d="m7.47,31.6c.12.24.22.5.28.82-.16.14-.32.22-.4.36-.36.6-.7,1.2-1.04,1.8-1.06.38-1.84,1.08-2.52,1.9-1.3,1.56-2.24,3.3-3.16,5.04-.16.32-.3.66-.48,1-.12-2.6.92-4.82,2.6-6.88,1.32-1.64,2.96-2.88,4.74-4.06l-.02.02Z"/><path class="cls-5" d="m37.28,4.34c.54.14.98.78,1.04,1.52.06.72,0,1.44-.48,2.12-.14.06-.22.1-.32.1-.04,0-.06,0-.08.04h-.04c-.28.02-.5.04-.72.08-1.52.2-3.02.34-4.44-.4-.1-.06-.3,0-.48.02-.12,0-.2,0-.28-.02-.04-.54-.08-1.08-.06-1.66.28.46.74.56,1.26.5.28-.04.56-.06.84-.12.08,0,.1-.2.18-.34.38-.16.56.04.58.3,0,.12-.24.32-.4.38-.3.1-.64.12-.96.16.14.16.28.24.44.24.84,0,1.66-.04,2.5-.1.22,0,.4-.24.64-.34.14,0,.24.02.38.04.14,0,.24,0,.36.02.2.12.36.22.5.32.08-.02.14-.06.22-.08-.08-.62-.14-1.26-.26-1.88-.02-.16-.22-.28-.36-.46-.02-.16-.04-.3-.06-.42v-.02Z"/><path class="cls-6" d="m38.8,8.96s.12.16.14.28c-.18.12-.34.2-.54.26-.14,0-.24.02-.32.06-1.78,1-3.7,1.2-5.7.78-.76-.16-1.48-.44-2.2-.7v-.14c.4-.74.52-.76,1.28-.42.24.1.54.12.82.16.04,0,.08-.04.12-.08-.08-.14-.16-.24-.24-.36.26-.08.48-.16.72-.22,1.52.52,2.98.42,4.4-.14.02.18.04.44.06.44.48.04.96.04,1.42.04m-4.36.76c.32,0,.64.02.96.06.48.04.78-.18,1.1-.42l-.04-.18h-3.3c.54.16.56.8,1.28.54Z"/><path class="cls-5" d="m38.44,9.5c.16-.08.3-.14.5-.22.04,0,.06,0,.08.04v.44c.1.62-.12,1.08-.8,1.28-.76.22-1.5.46-2.28.58-1.5.26-3,.16-4.44-.32-.78-.28-1.6-.56-1.54-1.58.04-.06.06-.08.12-.12h.1v.14c.14.2.26.38.44.46,1.64.86,3.38.98,5.2.66,1.02-.18,1.98-.48,2.62-1.32v-.04Z"/><path class="cls-18" d="m58.25,37.66c-.2-.42-.38-.84-.52-1.28,1.22.36,2.22,1.04,3.04,1.94,1.12,1.24,2.04,2.6,2.64,4.12.1.28.14.58.22.92-.16-.14-.32-.32-.46-.5-.66-.82-1.26-1.66-1.96-2.42-.84-.9-1.78-1.74-2.68-2.6-.06-.06-.16-.1-.28-.14v-.04Z"/><path class="cls-6" d="m31.14,1.82c.04-.26.08-.52.2-.82.54-.12,1-.24,1.48-.3.28-.04.64-.06.88.06.48.26,1.44.3,1.9,0,.3-.2,1.02-.14,1.36.06.48.28.3.6.06.94-.16-.16-.3-.3-.36-.38-.52.2-1,.42-1.5.54-.54.14-1.12.26-1.66.24-.78-.04-1.56-.2-2.34-.32l-.02-.02Z"/><path class="cls-4" d="m31.12,1.86c.8.08,1.56.24,2.36.28.54.02,1.12-.1,1.66-.24.5-.12.98-.34,1.5-.54.08.08.2.22.38.4.08.06.1.08.16.14.38.24.72.22.98-.18.12-.04.2-.08.3-.1.24.58-.18,1.08-1,1.14-.42.04-.84.06-1.24.12-.14.02-.24.18-.42.26-.18-.12-.3-.32-.44-.34-.48-.06-.96-.06-1.46-.06-.12,0-.26.1-.38.14-.36-.08-.72-.14-1.08-.24-.52-.14-1.08-.2-1.3-.8l-.02.02Z"/><path class="cls-9" d="m37.16,1.88s-.06-.04-.1-.08c.2-.36.36-.68-.12-.96-.34-.2-1.08-.26-1.36-.06-.44.3-1.4.26-1.9,0-.24-.12-.6-.1-.88-.06-.46.06-.92.18-1.44.28.16-.16.36-.4.6-.48,1.62-.44,3.26-.78,4.94-.26.4.14.82.32,1.14.58.2.16.26.46.38.76-.1.08-.18.1-.34.14-.36.06-.66.1-.94.14h.02Z"/><path class="cls-6" d="m33.64,6.2c-.04.1-.06.3-.14.32-.26.08-.56.08-.84.12-.52.06-.98-.02-1.24-.54-.04-.12-.04-.24,0-.4.64-.26,1.22-.48,1.66-.64.18-.4.34-.76.54-1.06.62.56,1.6.48,2.16-.12.06,0,.08-.02.1-.04,0,0,.04,0,.06.06.22.28.4.48.6.7.08.1.14.22.18.32-.28-.1-.5-.22-.76-.28-.26-.08-.5-.06-.5.28-.18-.02-.32-.1-.42-.08-.78.22-1.54.46-2.36.7-.04.1-.06.28-.02.3.32.12.66.22.98.34v.02Z"/><path class="cls-4" d="m29.96,9.72c-.04,1,.76,1.3,1.56,1.58,1.44.5,2.94.58,4.44.32.78-.12,1.52-.38,2.28-.58.68-.2.9-.66.8-1.28v-.42c.36.06.74.18,1.12.34-.18.02-.38.02-.62.04-.12.2-.2.4-.32.58-.2.3-.32.74-.62.86-2.58,1.22-5.22,1.14-7.84.16-.72-.26-1.08-.98-.9-1.7.06-.02.1,0,.1,0v.1Z"/><path class="cls-9" d="m29.96,9.6h-.06c.1-.38.2-.76.32-1.18.4-.22.8-.4,1.22-.6.1,0,.18,0,.32.02.42.28.76.52,1.12.76-.2.06-.42.14-.68.22.08.1.16.22.24.36-.04.02-.08.08-.12.08-.28-.04-.58-.06-.82-.16-.78-.34-.88-.32-1.28.42-.02.04-.04.04-.12.06-.06,0-.12.02-.12.02h-.02Z"/><path class="cls-5" d="m35.84,3.78s-.02.06-.12.08c-.76.32-1.46.04-2.16,0-.02,0-.04-.04-.04-.04v-.9c.14-.1.26-.18.38-.18.48,0,.98,0,1.46.06.14,0,.26.22.4.36.04.2.06.38.08.6v.02Z"/><path class="cls-9" d="m33.46,3.86s.06.02.1.04c.02,0,.02.06.02.06-.16.34-.32.68-.5,1.1-.44.16-1.02.38-1.64.6.02-1.02.56-1.48,2.04-1.8h-.02Z"/><path class="cls-9" d="m38.8,8.92c-.46.02-.94.02-1.42,0-.04,0-.04-.26-.04-.46.06-.16.08-.24.1-.32h.08c.1-.02.18-.06.3-.08.34.28.64.58.96.9l.02-.04Z"/><path class="cls-4" d="m55.19,22.32s-.18-.16-.2-.26c-.28-1.5-1.1-2.8-1.84-4.14-.04-.06-.06-.14-.08-.24.44.66.94,1.34,1.28,2.06.36.8.58,1.68.84,2.56v.02Z"/><path class="cls-9" d="m36.74,4.92c-.08-.1-.14-.22-.22-.32-.18-.22-.38-.44-.58-.68.42.1.84.24,1.3.42.04.16.06.28.06.48-.12.12-.24.18-.38.22-.08-.04-.14-.08-.2-.1l.02-.02Z"/><path class="cls-4" d="m57.83,34.16c-.04-1.02-.06-2.06-.06-3.16.06,0,.12.02.12.06,0,1.02-.02,2.06-.06,3.1Z"/><path class="cls-4" d="m45.67,11.26c-1.1-.3-2.24-.64-3.38-1,1.1.3,2.24.64,3.38,1Z"/><path class="cls-4" d="m52.91,17.32c-.48-.58-.96-1.2-1.44-1.86.48.58.96,1.2,1.44,1.86Z"/><path class="cls-4" d="m49.73,13.66c-.54-.38-1.08-.8-1.64-1.24.54.38,1.08.8,1.64,1.24Z"/><path class="cls-4" d="m42.12,10.16c-.56-.1-1.12-.22-1.72-.38.56.1,1.12.22,1.72.38Z"/><path class="cls-4" d="m57.25,28.82c-.26-.34-.5-.72-.72-1.14.24.34.5.72.72,1.14Z"/><path class="cls-4" d="m57.77,30.62c-.12-.26-.22-.56-.36-.9,0-.06,0-.1.04-.12.14.32.24.66.32,1.02Z"/><path class="cls-4" d="m46.85,11.76c-.36-.12-.72-.26-1.1-.44.36.12.72.26,1.1.44Z"/><path class="cls-4" d="m47.89,12.28c-.26-.1-.54-.22-.82-.36.26.1.54.22.82.36Z"/><path class="cls-4" d="m55.77,26.26c-.06-.22-.12-.48-.14-.78.06.22.12.48.14.78Z"/><path class="cls-4" d="m51.29,15.2c-.22-.16-.42-.36-.64-.6.22.16.42.36.64.6Z"/><path class="cls-4" d="m55.65,25c-.06-.22-.12-.5-.14-.82.06.22.12.5.14.82Z"/><path class="cls-4" d="m57.37,35.34c.04-.18.12-.4.24-.62-.04.2-.12.4-.24.62Z"/><path class="cls-4" d="m55.51,23.92c-.06-.16-.1-.36-.14-.58.06.16.1.36.14.58Z"/><path class="cls-4" d="m55.89,27c-.06-.12-.1-.28-.12-.46.06.12.1.28.12.46Z"/><path class="cls-4" d="m55.37,23.06c-.08-.14-.14-.3-.18-.48.08.14.14.28.18.48Z"/><path class="cls-18" d="m7.49,29.64s-.04.06-.08.08c-.04-.22-.04-.46,0-.74.04.18.06.4.08.66Z"/><path class="cls-8" d="m7.75,27.48c0,.1,0,.24-.06.38,0-.1,0-.24.06-.38Z"/><path class="cls-8" d="m7.59,28.16s.02.22,0,.34c-.02-.1-.02-.2,0-.34Z"/><path class="cls-4" d="m57.67,34.68s0-.16.06-.28c0,.08,0,.18-.06.28Z"/><path class="cls-12" d="m63.76,46.26s0-.12.04-.2c0,.04,0,.12-.04.2Z"/><path class="cls-4" d="m56.23,27.34s-.1.02-.18,0c-.02-.04-.04-.08-.04-.14.08,0,.14.06.22.14Z"/><path class="cls-8" d="m7.87,27.16s0,.16-.06.26c0-.06,0-.16.06-.26Z"/><path class="cls-4" d="m56.33,27.44s-.06,0-.1-.04c.02,0,.06,0,.1.04Z"/><path class="cls-4" d="m56.45,27.56s-.06,0-.1-.04c.02,0,.06,0,.1.04Z"/><path class="cls-4" d="m57.45,29.36s-.08,0-.06-.08c.06,0,.08,0,.06.08Z"/><path class="cls-18" d="m7.41,30.54s.04.02.04.06c-.02,0-.04-.02-.04-.06Z"/><path class="cls-13" d="m49.01,25.04c-.22,1-.42,2.02-.7,3-.76,2.88-2.84,4.72-5.58,6.06-4.84,2.38-9.79,1.34-13.87-1.88-.56-.44-1.04-.98-1.6-1.48-1.22-1.72-2.08-3.56-2.64-5.52-.1-.36-.24-.66-.7-.8-.54-.18-.68-.7-.46-1.2.22-.52.72-.66,1.4-.44.54.18.88.62.66,1.06-.32.6,0,1.02.28,1.46,1.94,2.9,4.78,4.52,8.34,5.18.48.08.98.18,1.54.3h.34c.06,0,.12.04.26.06,1.56-.06,3.06-.04,4.52-.26,1.38-.2,2.66-.8,3.76-1.62.86-.64,1.6-1.44,2.38-2.16,0,0,.04-.02.06-.06.04-.06.06-.1.08-.14.08-.08.14-.16.24-.3.04-.08.06-.12.06-.16.26-.56.52-1.12.74-1.7.06-.12.02-.3-.02-.44-.18-.46-.22-.9.24-1.24.36-.26.72-.16,1.04.1.38.3.46.9.18,1.36-.02.04-.08.08-.12.16t-.06.04c-.38.08-.54.24-.4.58l.02.04Z"/><path class="cls-13" d="m29.9,25.92c-.78-2.28-.94-4.58-.78-6.9.04-.74.46-1.28.92-1.28.72,0,.96.54,1.14,1.02.78,2.02.9,4.1.4,6.22-.08.34-.12.7-.26,1.02-.12.26-.34.56-.58.62-.16.04-.44-.28-.66-.46-.06-.06-.1-.16-.16-.26l-.02.02Z"/><path class="cls-13" d="m43.14,23.88c-.22-1.66-.48-3.26-.64-4.88-.04-.34.18-.72.38-1.02.28-.42.76-.44,1.02,0,.36.6.7,1.26.86,1.94.44,1.84.62,3.7.1,5.58,0,.06,0,.16-.06.2-.14.18-.3.5-.42.48-.22,0-.5-.2-.58-.38-.26-.6-.44-1.24-.66-1.9v-.02Z"/><path class="cls-3" d="m21.89,12.74c-1.48.12-2.48.76-2.92,2.06,0,.04,0,.08-.04.1-.18.18-.44.54-.56.52-.36-.1-.4-.44-.26-.74.5-1.08.96-2.18,1.58-3.2.56-.92,1.9-1.32,3-1.06.62.16.78.38.78,1.1,0,.82-.14.98-.8,1.12-.24.04-.48.08-.78.12v-.02Z"/><path class="cls-8" d="m46.91,26.82c-.74.72-1.48,1.52-2.34,2.16-1.1.82-2.38,1.42-3.76,1.62-1.46.22-2.96.2-4.48.26,1.2-.2,2.46-.32,3.7-.58,2.12-.44,3.96-1.42,5.64-2.64.38-.28.8-.54,1.24-.8v-.02Z"/><path class="cls-3" d="m25.78,10.2c-.1-.24-.18-.46-.24-.66.28-.02.56-.1.84-.06.16.02.3.2.44.32.26.22.54.5.2.8-.3.3-.68.16-.98-.08-.1-.08-.16-.2-.28-.32h.02Z"/><path class="cls-8" d="m36,30.78s-.16.02-.26,0h.26Z"/><path class="cls-8" d="m47.39,26.2s0,.06-.02.1c0-.02,0-.06.02-.1Z"/><path class="cls-8" d="m47.07,26.64s0,.06-.04.12c0-.02,0-.06.04-.12Z"/><path class="cls-14" d="m50.29,47.02c.3.14.6.26.9.42,2.26,1.28,4.72,1.94,7.32,2.24,1.02.12,2.04.22,3.1.32-.3.4-.62.86-1.04,1.2-1,.84-1.98,1.72-3.1,2.4-1.44.88-2.96,1.66-4.54,2.3-2.04.82-4.16,1.5-6.28,2.16-1.3.42-2.66.68-3.98,1.02-.1.02-.22.04-.34.04-2.36.04-4.74.14-7.1.08-2.2-.04-4.4-.22-6.6-.4-2.68-.24-5.3-.68-7.88-1.44-.2-.06-.42-.12-.64-.2.1-.08.26-.08.28-.14.18-.46.34-.94.56-1.48,2.26-.1,4.48-.12,6.74-.12.36,0,.68-.04,1.08-.08.54-.04,1.04-.04,1.56-.04.08,0,.16-.02.28-.08.7-.06,1.34-.12,2-.12,4.8,0,9.58.04,14.39.08,1.08,0,2.18,0,3.26.02.5,0,.74-.22.72-.68,0-.38-.02-.74-.06-1.12-.2-2.14-.4-4.26-.62-6.4v.02Z"/><path class="cls-1" d="m49.03,25.02c-.18-.32,0-.48.38-.56-.08.18-.22.36-.38.56Z"/><path class="cls-2" d="m27.64,55.36c-2.22.04-4.44.08-6.7.12h-2.78c-.72,0-.94-.24-.94-.88v-7.7c-.04-.52-.06-.98-.08-1.42-.04-.88.1-1.02,1.06-1.02h8.42c3.8.04,7.6.12,11.41.16,2.72,0,5.42,0,8.14-.06,1.14,0,2.28-.1,3.44-.14.42,0,.62.16.62.58s.02.84.04,1.26c0,.22,0,.42.02.68.22,2.18.44,4.3.64,6.44.04.36.04.74.06,1.12.02.46-.22.68-.72.68-1.08,0-2.18,0-3.26-.02-4.8-.02-9.58-.06-14.39-.08-.64,0-1.3.06-2.02.1-.14.02-.2.04-.26.06-.5,0-1,.04-1.58.06-.42.02-.74.04-1.06.06m14.11-7.46c-.28-.1-.6-.16-.7.16-.04.12.16.4.32.46.22.06.5,0,.76-.02-.08-.18-.18-.36-.28-.64.18,0,.4.06.54-.02.16-.08.26-.3.38-.44-.24-.12-.48-.28-.74-.32-.14-.02-.46.12-.46.18,0,.18.14.34.22.52.02.06,0,.12-.06.12m-16.27,1.62c-.04.18-.1.36-.14.56.2,0,.42.04.62,0,.26-.06.5-.2.78-.34.32.96.6,1.86.92,2.74.06.18.34.28.52.42.06-.2.24-.44.18-.62-.16-.66-.4-1.28-.62-1.94-.32-.92-.3-.9.68-1.22.16-.06.26-.28.38-.42-.18-.08-.36-.26-.54-.26-.34,0-.66.12-1,.2-.06-.2-.1-.34-.16-.54.18-.08.36-.16.52-.22.3-.12.88-.08.7-.56-.18-.48-.66-.22-.98-.1-.4.16-.6.1-.74-.26-.04-.12-.12-.26-.24-.28-.16-.06-.38-.08-.5-.02-.08.04-.1.28-.08.4,0,.12.1.22.18.34.2.28.1.42-.2.58-.32.18-.6.44-.84.64-.28-.06-.56-.16-.84-.18-1.44-.08-2.56.62-3.64,1.36-.12.08-.1.34-.14.5.2,0,.44.1.6.04.48-.22.9-.5,1.42-.78.36.94.4,1.74-.32,2.48-.14.14-.22.5-.12.6.24.26.5.08.72-.14.82-.78.9-1.72.64-2.72-.04-.16-.08-.32-.1-.44.58-.48,1.52.32,1.9-.6.54.6.88-.18,1.36-.16.28.3.2.5-.2.62-.22.08-.4.2-.66.36m10.63-.62c.26-.08.52-.16.84-.26-.02.22-.02.34-.04.44-.2.9-.4,1.8-.56,2.7-.02.16.18.36.28.54.16-.14.4-.26.46-.42.16-.44.26-.88.34-1.34.12-.62.24-1.24.32-1.88.06-.46-.24-.86-.7-.78-.68.14-1.34.46-1.98.74-.08.04-.12.36-.04.44.06.08.32.1.48.08.18-.04.34-.16.58-.28m10.99-.46c-.1-.26-.18-.62-.58-.48-.12.04-.24.34-.22.52.12.98.26,1.96.44,2.92.04.24.28.44.44.66.26-.16.52-.28.74-.46.28-.24.54-.5.78-.78.12-.14.16-.32.24-.48-.18-.06-.38-.2-.52-.16-.32.08-.6.26-.92.4-.12-.68-.24-1.36-.4-2.14m-4.88,1.74c-.52-.36-1.02-.76-1.56-1.08-.58-.34-1.32-.2-1.62.28-.08.14,0,.34,0,.52.18,0,.42.06.5-.02.4-.38.72-.2,1.04.04.56.4,1.08.84,1.66,1.2.18.12.46.06.7.08-.06-.22-.08-.44-.2-.62-.1-.16-.32-.26-.54-.42m2.9-.44c-.08.46-.16.9-.2,1.36,0,.22,0,.6.14.66.38.16.56-.16.6-.44.1-.72.18-1.42.18-2.14,0-.3-.22-.62-.44-.9-.08-.12-.38-.1-.58-.14,0,.18-.06.38,0,.56.08.32.2.62.32,1.02m-13.05-.22c.12,0,.24,0,.34-.06.22-.12.6-.24.62-.38,0-.38-.38-.42-.68-.34-.64.16-1.28.34-1.88.56-.14.04-.16.32-.26.5.2.04.42.16.6.12.4-.08.78-.26,1.28-.4m4.48-2.86c-.6.2-1.2.38-1.78.64-.14.06-.14.38-.2.56.22,0,.46.06.66,0,.46-.14.92-.32,1.36-.5.2-.08.38-.22.56-.32-.18-.12-.34-.26-.6-.38m-14.61.52c-.38.22-.76.4-1.1.64-.12.08-.08.32-.12.5.18.02.4.1.54.04.58-.22,1.14-.48,1.68-.74.14-.06.28-.28.26-.38-.04-.12-.26-.28-.4-.26-.26,0-.52.12-.84.2h-.02Z"/><path class="cls-11" d="m50.29,46.28c-.06-.42-.1-.84-.1-1.26s-.18-.6-.62-.58c-1.14.04-2.28.12-3.44.14-2.72.04-5.42.08-8.14.06-3.8-.02-7.6-.12-11.41-.16-2.8-.02-5.62,0-8.42,0-.96,0-1.1.14-1.06,1.02,0,.44.06.88.06,1.36-.48-.12-.92-.3-1.42-.52-.3-.46-.56-.86-.84-1.26-.3-.42-.76-.76-.96-1.2-.18-.42-.06-.96-.2-1.42-.24-.78.02-1.5.18-2.24.08-.44.12-.84.6-1.12.28-.16.26-.44-.12-.6-.38-.18-.76-.38-1.12-.58-.4-.22-.82-.46-1.28-.74-.04,0-.18.08-.38.16.16-.52-.14-.64-.56-.64-.12,0-.28-.04-.34-.12-.38-.4-.72-.84-1.08-1.3v-.28c4.02,3.5,9.02,5,14.27,6.16,3.4.74,6.86.96,10.35,1.2,3.2.22,6.38.1,9.54-.44,1.66-.28,3.32-.68,4.96-1.08,1.74-.42,3.42-1.02,5-1.98.16-.08.24-.16.34-.24.32-.24.62-.48.96-.72.18,0,.32.04.56.08-.34.28-.34.66-.96.68-.66,0-.78.7-.58,1.3.24.72.32,1.5.46,2.26,0,.04,0,.1-.04.16-.44.78-.84,1.56-1.32,2.32-.2.3-.52.54-.8.84-.68.28-1.36.54-2.08.8v-.06Z"/><path class="cls-16" d="m9.63,35.32c.36.42.7.84,1.08,1.26.08.08.22.12.34.12.42,0,.72.12.56.64.2-.08.34-.14.38-.16.46.26.86.5,1.28.74.36.2.74.42,1.12.58.38.16.4.44.12.6-.48.28-.5.68-.6,1.12-.14.74-.4,1.46-.18,2.24.14.46,0,.98.2,1.42s.64.8.96,1.2c.3.38.54.8.8,1.24-1.26-.42-2.56-.84-3.78-1.38-.54-.24-.98-.7-1.48-1.14-1.52-2.78-2.02-5.56-.82-8.5l.02.02Z"/><path class="cls-15" d="m9.63,35.28c-1.2,2.96-.7,5.76.8,8.5-.88-.14-1.36-.86-1.94-1.38-.54-.48-1.08-1.08-1.38-1.7-.44-.92-.86-1.9-.98-2.88-.12-1.04.1-2.1.18-3.2.36-.64.68-1.26,1.06-1.86.08-.12.24-.2.4-.32.64.82,1.24,1.66,1.86,2.52v.32Z"/><path class="cls-3" d="m9.83,31.28s-.04-.04-.08-.14c-.08-.2-.14-.32-.2-.44.04-.02.08-.06.1-.08.18.12.38.24.56.36.2.18.4.38.64.62.22.18.38.3.56.44,0,0,.04,0,.06.06.14.12.28.2.4.28.18.12.36.24.6.4.16.22.28.4.4.58-.06,0-.12-.02-.26-.08-.3-.12-.52-.2-.74-.26-.02,0-.06-.02-.14-.1-.3-.22-.54-.38-.78-.54-.24-.22-.46-.42-.74-.7-.16-.16-.26-.28-.38-.38v-.02Z"/><path class="cls-9" d="m12.87,33.36c-.12-.2-.24-.38-.38-.58.6.18,1.16.44,1.54,1.04-.62.14-.88-.14-1.18-.46h.02Z"/><path class="cls-9" d="m25.94,37.7c-.16-.08-.28-.16-.4-.22.02-.06.04-.12.06-.18.42.1.82.22,1.24.32,0,.08-.04.14-.04.22-.28-.04-.54-.08-.86-.14Z"/><path class="cls-9" d="m10.25,30.94c-.2-.08-.4-.2-.58-.32-.04.02-.08.06-.1.08.06.12.12.24.18.4-.16-.14-.32-.3-.54-.52.6-.22.88-.06,1.04.36Z"/><path class="cls-9" d="m10.95,32.38c.26.14.5.3.74.48-.24-.14-.5-.3-.74-.48Z"/><path class="cls-9" d="m11.87,33.02c.22.04.46.12.7.22-.22-.04-.46-.12-.7-.22Z"/><path class="cls-9" d="m11.43,32c-.18-.1-.34-.22-.52-.38.16.1.36.22.52.38Z"/><path class="cls-9" d="m9.83,31.3c.14.08.26.18.38.32-.12-.08-.26-.18-.38-.32Z"/><path class="cls-9" d="m11.87,32.32c-.12-.04-.24-.12-.38-.22.12.04.26.12.38.22Z"/><path class="cls-16" d="m54.03,38.6s-.14.16-.26.22c.04-.08.14-.14.26-.22Z"/><path class="cls-4" d="m36.7,4.92c.1.02.16.04.24.14.1.64.16,1.2.24,1.78-.1,0-.18,0-.32-.04-.12-.8-.44-1.06-1.04-.8-.14.06-.22.2-.32.32.14.08.26.14.4.22.18.1.36.18.56.28-.2.12-.4.34-.6.36-.82.08-1.66.08-2.5.1-.14,0-.3-.08-.44-.24.32-.06.66-.06.96-.16.16-.06.4-.26.4-.38,0-.26-.22-.46-.58-.3-.36-.08-.7-.18-1.02-.3-.04,0,0-.2.06-.28.78.12,1.48.26,2.2.28.46,0,1.06,0,1.26-.68-.22-.08-.44-.16-.66-.26-.04-.36.2-.36.46-.3.24.08.48.18.76.28l-.06-.02Z"/><path class="cls-4" d="m37.38,8.12s0,.18-.06.3c-1.44.64-2.9.74-4.42.22-.4-.26-.74-.5-1.12-.76.12-.04.32-.12.42-.06,1.42.74,2.94.6,4.44.4.22-.02.46-.06.72-.08l.02-.02Z"/><path class="cls-6" d="m37.2,6.86c-.12-.58-.18-1.16-.26-1.78.12-.1.24-.16.36-.24.14.1.34.24.36.4.12.62.18,1.24.26,1.88-.08.02-.14.06-.22.08-.16-.1-.32-.2-.5-.32v-.02Z"/><path class="cls-9" d="m36.46,6.8c-.22-.1-.4-.18-.58-.28-.14-.06-.26-.14-.4-.22.1-.1.18-.26.32-.32.6-.26.94,0,1,.8-.1.04-.22.02-.34,0v.02Z"/><path class="cls-4" d="m37.52,8.1s-.04.04-.06.04c0,0,.02-.04.06-.04Z"/><path class="cls-4" d="m38.4,9.5c-.6.84-1.56,1.14-2.58,1.32-1.82.32-3.56.22-5.2-.66-.16-.08-.28-.26-.44-.44.72.18,1.44.46,2.2.62,2,.42,3.92.2,5.7-.78.08-.04.18-.04.32-.06Z"/><path class="cls-9" d="m34.4,9.74c-.68.24-.7-.4-1.24-.56h3.3l.04.18c-.3.24-.62.46-1.1.42-.32-.04-.64-.04-1-.04Z"/><path class="cls-6" d="m29.94,9.64s.06-.04.08-.04c0,.04,0,.06-.06.12-.02,0-.02-.02-.02-.08Z"/><path class="cls-6" d="m37.18,1.9c.28-.08.56-.12.9-.16-.18.38-.5.4-.9.16Z"/><path class="cls-5" d="m35.44,4.92c.26.08.48.16.7.26-.2.66-.8.68-1.26.68-.7,0-1.42-.16-2.16-.28.74-.26,1.5-.5,2.28-.72.1-.04.26.04.42.08l.02-.02Z"/><path class="cls-4" d="m33.6,4s-.02-.08-.04-.1c.68,0,1.38.3,2.12-.02-.48.62-1.44.68-2.08.12Z"/><path class="cls-17" d="m27.68,55.4c.28-.06.6-.08.98-.08-.28.04-.62.08-.98.08Z"/><path class="cls-17" d="m30.3,55.28s.1-.06.2-.06c-.04.04-.12.06-.2.06Z"/><path class="cls-10" d="m25.52,49.5c.24-.12.42-.26.64-.32.4-.14.46-.32.2-.62-.46,0-.8.76-1.36.16-.38.92-1.32.12-1.9.6.02.12.06.28.1.44.24,1,.16,1.94-.64,2.72-.22.2-.48.4-.72.14-.1-.1,0-.48.12-.6.72-.74.68-1.56.32-2.48-.5.28-.94.56-1.42.78-.16.08-.4,0-.6-.04.04-.18.02-.42.14-.5,1.08-.74,2.2-1.44,3.64-1.36.28,0,.56.12.84.18.26-.2.52-.46.84-.64.3-.16.4-.3.2-.58-.08-.1-.16-.22-.18-.34,0-.14,0-.38.08-.4.14-.06.36-.04.5.02.1.04.2.18.24.28.14.38.34.42.74.26.32-.12.82-.38.98.1.18.48-.38.44-.7.56-.18.06-.34.14-.52.22.06.2.1.34.16.54.34-.08.66-.18,1-.2.18,0,.36.16.54.26-.12.14-.22.38-.38.42-.98.32-.98.3-.68,1.22.22.64.46,1.28.62,1.94.04.18-.12.42-.18.62-.18-.14-.46-.24-.52-.42-.32-.88-.6-1.78-.92-2.74-.28.12-.52.26-.78.34-.18.06-.4,0-.62,0,.04-.18.1-.36.18-.58l.04.02Z"/><path class="cls-10" d="m36.06,48.9c-.2.1-.36.22-.54.26-.16.04-.42,0-.48-.08-.08-.1-.04-.42.04-.44.64-.28,1.28-.6,1.98-.74.46-.08.76.32.7.78-.08.62-.2,1.26-.32,1.88-.1.46-.18.9-.34,1.34-.06.16-.3.28-.46.42-.1-.18-.3-.38-.28-.54.16-.9.38-1.8.56-2.7.02-.12.02-.24.04-.44-.32.1-.58.18-.88.28l-.02-.02Z"/><path class="cls-10" d="m47.11,48.48c.14.72.26,1.42.38,2.1.32-.14.6-.32.92-.4.14-.04.34.1.52.16-.08.16-.14.34-.24.48-.24.28-.5.54-.78.78-.22.18-.5.32-.74.46-.16-.22-.38-.42-.44-.66-.18-.96-.32-1.94-.44-2.92-.02-.16.08-.46.22-.52.42-.14.48.22.6.5v.02Z"/><path class="cls-10" d="m42.24,50.2c.2.14.4.24.52.4.12.18.14.42.2.62-.24-.02-.52.02-.7-.08-.58-.38-1.12-.8-1.66-1.2-.34-.24-.66-.42-1.04-.04-.08.08-.34.02-.5.02,0-.18-.08-.38,0-.52.3-.48,1.02-.62,1.62-.28.54.32,1.04.72,1.6,1.1l-.04-.02Z"/><path class="cls-10" d="m45.11,49.7c-.1-.36-.24-.66-.32-.98-.04-.18,0-.38,0-.56.2.04.5,0,.58.14.2.26.42.58.44.9,0,.72-.08,1.44-.18,2.14-.04.28-.24.6-.6.44-.12-.06-.16-.44-.14-.66.04-.46.14-.9.2-1.4l.02-.02Z"/><path class="cls-10" d="m32.02,49.52c-.44.14-.82.3-1.22.38-.18.04-.4-.08-.6-.12.08-.18.12-.46.26-.5.62-.22,1.24-.4,1.88-.56.3-.06.68-.04.68.34,0,.14-.4.26-.62.38-.1.04-.22.04-.38.06v.02Z"/><path class="cls-10" d="m36.58,46.66c.22.12.38.26.56.38-.18.1-.36.24-.56.32-.44.18-.9.36-1.36.5-.2.06-.44,0-.66,0,.06-.2.06-.5.2-.56.58-.26,1.18-.44,1.82-.64Z"/><path class="cls-10" d="m21.97,47.16c.3-.08.54-.18.8-.2.14,0,.38.14.4.26.04.1-.12.32-.26.38-.54.28-1.1.52-1.68.74-.14.06-.36-.02-.54-.04.04-.18,0-.42.12-.5.34-.24.74-.44,1.14-.66l.02.02Z"/><path class="cls-17" d="m41.82,47.96s0-.12-.02-.18c-.08-.18-.22-.34-.22-.52,0-.06.32-.22.46-.18.26.06.5.22.74.32-.12.16-.22.36-.38.44-.14.08-.36,0-.56.08,0,.06,0,.04,0,.04h-.02Z"/><path class="cls-15" d="m41.78,47.94l.06.04c.1.18.18.36.28.52-.26,0-.54.1-.76.02-.16-.04-.36-.34-.32-.46.1-.34.42-.26.74-.14v.02Z"/></g></g></svg>