<?xml version="1.0" encoding="UTF-8"?>
<svg xmlns="http://www.w3.org/2000/svg" xmlns:xlink="http://www.w3.org/1999/xlink" width="32px" height="32px" viewBox="0 0 32 32" version="1.1">
<g id="surface1">
<path style=" stroke:none;fill-rule:nonzero;fill:rgb(0%,0%,0%);fill-opacity:1;" d="M 21.21875 32.03125 C 14.144531 32.03125 7.089844 32.03125 0.03125 32.03125 C 0.03125 21.363281 0.03125 10.699219 0.03125 0.03125 C 10.699219 0.03125 21.363281 0.03125 32.03125 0.03125 C 32.03125 10.699219 32.03125 21.363281 32.03125 32.03125 C 28.433594 32.03125 24.832031 32.03125 21.21875 32.03125 M 22.367188 13.757812 C 22.367188 13.757812 22.367188 13.753906 22.367188 13.738281 C 22.355469 13.734375 22.347656 13.730469 22.339844 13.722656 C 22.339844 13.722656 22.335938 13.722656 22.335938 13.703125 C 22.316406 13.691406 22.296875 13.679688 22.265625 13.65625 C 22.257812 13.644531 22.25 13.636719 22.246094 13.601562 C 22.238281 13.558594 22.226562 13.511719 22.214844 13.449219 C 22.214844 13.4375 22.210938 13.421875 22.21875 13.382812 C 22.207031 13.308594 22.195312 13.230469 22.179688 13.132812 C 22.179688 13.101562 22.175781 13.070312 22.183594 13.011719 C 22.167969 12.933594 22.15625 12.851562 22.140625 12.753906 C 22.140625 12.742188 22.136719 12.730469 22.148438 12.699219 C 22.136719 12.640625 22.121094 12.582031 22.105469 12.503906 C 22.105469 12.492188 22.101562 12.480469 22.113281 12.453125 C 22.09375 12.40625 22.078125 12.359375 22.058594 12.292969 C 22.054688 12.28125 22.054688 12.265625 22.054688 12.230469 C 21.980469 11.980469 21.921875 11.726562 21.820312 11.488281 C 21.730469 11.273438 21.59375 11.074219 21.46875 10.851562 C 21.457031 10.828125 21.445312 10.804688 21.433594 10.761719 C 21.300781 10.578125 21.171875 10.394531 21.03125 10.199219 C 21.019531 10.1875 21.007812 10.171875 20.996094 10.136719 C 20.9375 10.078125 20.882812 10.019531 20.808594 9.945312 C 20.730469 9.863281 20.652344 9.785156 20.5625 9.683594 C 20.417969 9.5625 20.269531 9.441406 20.105469 9.3125 C 20.09375 9.304688 20.082031 9.300781 20.0625 9.277344 C 19.988281 9.242188 19.914062 9.203125 19.820312 9.160156 C 19.808594 9.152344 19.796875 9.148438 19.777344 9.125 C 19.675781 9.082031 19.578125 9.039062 19.472656 8.992188 C 19.472656 8.992188 19.472656 8.992188 19.460938 8.976562 C 19.152344 8.878906 18.84375 8.78125 18.523438 8.679688 C 18.515625 8.675781 18.511719 8.675781 18.496094 8.65625 C 18.339844 8.617188 18.183594 8.578125 18.007812 8.539062 C 17.996094 8.535156 17.980469 8.53125 17.957031 8.511719 C 17.855469 8.476562 17.757812 8.441406 17.652344 8.398438 C 17.652344 8.398438 17.644531 8.398438 17.640625 8.378906 C 17.625 8.355469 17.609375 8.332031 17.589844 8.289062 C 17.507812 8.203125 17.425781 8.117188 17.34375 8.011719 C 17.457031 7.820312 17.480469 7.613281 17.460938 7.398438 C 17.445312 7.1875 17.324219 6.996094 17.164062 6.9375 C 17.046875 6.898438 16.929688 6.855469 16.804688 6.804688 C 16.804688 6.804688 16.792969 6.800781 16.785156 6.777344 C 16.78125 6.726562 16.777344 6.671875 16.789062 6.605469 C 16.824219 6.578125 16.851562 6.535156 16.886719 6.527344 C 17 6.507812 17.113281 6.503906 17.226562 6.492188 C 17.449219 6.472656 17.566406 6.328125 17.5 6.132812 C 17.46875 6.058594 17.453125 5.96875 17.394531 5.921875 C 17.304688 5.851562 17.195312 5.792969 17.082031 5.753906 C 16.625 5.597656 16.179688 5.703125 15.738281 5.828125 C 15.671875 5.847656 15.621094 5.921875 15.539062 5.980469 C 15.53125 6.058594 15.519531 6.136719 15.503906 6.238281 C 15.566406 6.402344 15.71875 6.421875 15.859375 6.460938 C 15.957031 6.488281 16.058594 6.507812 16.152344 6.558594 C 16.152344 6.640625 16.152344 6.722656 16.128906 6.8125 C 15.738281 6.902344 15.59375 7.042969 15.566406 7.363281 C 15.570312 7.398438 15.570312 7.433594 15.5625 7.492188 C 15.574219 7.652344 15.582031 7.808594 15.578125 7.984375 C 15.46875 8.035156 15.363281 8.089844 15.226562 8.136719 C 14.917969 8.148438 14.609375 8.140625 14.304688 8.171875 C 13.296875 8.269531 12.433594 8.722656 11.664062 9.347656 C 11.089844 9.808594 10.6875 10.417969 10.34375 11.089844 C 10.183594 11.492188 10.023438 11.894531 9.867188 12.300781 C 9.800781 12.476562 9.746094 12.660156 9.667969 12.847656 C 9.441406 13.078125 9.265625 13.339844 9.171875 13.667969 C 9.164062 13.695312 9.160156 13.71875 9.152344 13.75 C 9.152344 13.75 9.152344 13.75 9.140625 13.761719 C 9.132812 13.800781 9.125 13.835938 9.113281 13.890625 C 9.109375 13.910156 9.109375 13.929688 9.089844 13.964844 C 9.089844 13.996094 9.085938 14.03125 9.074219 14.089844 C 9.070312 14.121094 9.066406 14.15625 9.042969 14.207031 C 9.042969 14.277344 9.042969 14.347656 9.042969 14.441406 C 9.046875 14.511719 9.050781 14.585938 9.046875 14.664062 C 9.050781 14.671875 9.054688 14.679688 9.0625 14.710938 C 9.066406 14.796875 9.070312 14.878906 9.058594 14.96875 C 8.582031 15.3125 8.136719 15.683594 7.777344 16.160156 C 7.320312 16.769531 7.039062 17.421875 7.042969 18.207031 C 7.058594 18.398438 7.078125 18.589844 7.074219 18.796875 C 7.0625 18.867188 7.035156 18.933594 7.03125 19.003906 C 7.003906 19.640625 7.070312 20.269531 7.21875 20.886719 C 7.308594 21.277344 7.421875 21.664062 7.535156 22.054688 C 7.578125 22.207031 7.660156 22.335938 7.816406 22.40625 C 8.234375 22.605469 8.644531 22.8125 9.066406 23 C 9.285156 23.097656 9.523438 23.164062 9.75 23.242188 C 10.164062 23.382812 10.574219 23.53125 10.992188 23.65625 C 11.34375 23.761719 11.707031 23.835938 12.0625 23.921875 C 12.507812 24.03125 12.953125 24.152344 13.402344 24.242188 C 13.738281 24.308594 14.082031 24.316406 14.417969 24.382812 C 14.964844 24.492188 15.523438 24.476562 16.074219 24.492188 C 16.730469 24.511719 17.386719 24.464844 18.042969 24.382812 C 18.703125 24.304688 19.367188 24.242188 20.007812 24.058594 C 20.285156 23.980469 20.5625 23.890625 20.832031 23.78125 C 21.136719 23.660156 21.433594 23.511719 21.730469 23.367188 C 21.992188 23.238281 22.261719 23.113281 22.515625 22.964844 C 22.851562 22.769531 23.1875 22.5625 23.503906 22.335938 C 23.6875 22.203125 23.875 22.046875 23.984375 21.859375 C 24.132812 21.597656 24.242188 21.304688 24.300781 21.007812 C 24.386719 20.582031 24.414062 20.140625 24.449219 19.703125 C 24.460938 19.585938 24.402344 19.464844 24.375 19.324219 C 24.375 19.308594 24.375 19.296875 24.394531 19.277344 C 24.398438 19.257812 24.402344 19.238281 24.40625 19.191406 C 24.414062 19.15625 24.425781 19.121094 24.421875 19.085938 C 24.402344 18.867188 24.378906 18.652344 24.351562 18.410156 C 24.332031 18.324219 24.320312 18.234375 24.289062 18.152344 C 24.128906 17.703125 23.878906 17.304688 23.570312 16.941406 C 23.351562 16.683594 23.078125 16.480469 22.746094 16.347656 C 22.695312 16.292969 22.644531 16.238281 22.59375 16.164062 C 22.609375 16.132812 22.625 16.101562 22.660156 16.0625 C 22.679688 16 22.703125 15.941406 22.722656 15.878906 C 22.722656 15.878906 22.722656 15.878906 22.738281 15.867188 C 22.742188 15.839844 22.75 15.8125 22.757812 15.761719 C 22.761719 15.75 22.761719 15.738281 22.785156 15.710938 C 22.789062 15.410156 22.792969 15.109375 22.792969 14.808594 C 22.792969 14.796875 22.773438 14.785156 22.757812 14.753906 C 22.757812 14.730469 22.753906 14.707031 22.765625 14.667969 C 22.734375 14.570312 22.707031 14.472656 22.671875 14.355469 C 22.667969 14.34375 22.667969 14.332031 22.671875 14.304688 C 22.675781 14.292969 22.667969 14.289062 22.648438 14.265625 C 22.636719 14.230469 22.625 14.199219 22.617188 14.140625 C 22.550781 14.03125 22.484375 13.917969 22.40625 13.796875 C 22.40625 13.796875 22.398438 13.785156 22.398438 13.769531 C 22.386719 13.765625 22.378906 13.761719 22.367188 13.757812 Z M 22.367188 13.757812 "/>
<path style=" stroke:none;fill-rule:nonzero;fill:rgb(95.294118%,81.176471%,13.333333%);fill-opacity:1;" d="M 10.359375 11.074219 C 10.6875 10.417969 11.089844 9.808594 11.664062 9.347656 C 12.433594 8.722656 13.296875 8.269531 14.304688 8.171875 C 14.609375 8.140625 14.917969 8.148438 15.238281 8.152344 C 15.222656 8.277344 15.195312 8.386719 15.15625 8.503906 C 15.109375 8.714844 15.207031 8.929688 15.402344 9.007812 C 16.121094 9.296875 16.839844 9.3125 17.539062 8.957031 C 17.617188 8.917969 17.65625 8.792969 17.707031 8.703125 C 17.738281 8.652344 17.757812 8.59375 17.785156 8.550781 C 17.820312 8.585938 17.851562 8.613281 17.886719 8.625 C 18.109375 8.699219 18.332031 8.765625 18.550781 8.847656 C 19.175781 9.074219 19.746094 9.398438 20.21875 9.867188 C 20.648438 10.292969 20.953125 10.800781 21.210938 11.34375 C 21.332031 11.59375 21.3125 11.820312 21.179688 12.03125 C 21.035156 12.265625 20.863281 12.480469 20.691406 12.695312 C 20.640625 12.761719 20.558594 12.804688 20.496094 12.851562 C 20.511719 12.832031 20.523438 12.820312 20.527344 12.804688 C 20.601562 12.667969 20.578125 12.492188 20.476562 12.40625 C 20.390625 12.332031 20.292969 12.300781 20.195312 12.378906 C 20.070312 12.480469 20.085938 12.609375 20.132812 12.746094 C 20.148438 12.785156 20.15625 12.839844 20.140625 12.878906 C 20.078125 13.046875 20.007812 13.210938 19.929688 13.382812 C 19.921875 13.394531 19.917969 13.40625 19.914062 13.425781 C 19.890625 13.460938 19.871094 13.484375 19.84375 13.511719 C 19.832031 13.523438 19.828125 13.535156 19.824219 13.554688 C 19.824219 13.558594 19.8125 13.5625 19.804688 13.5625 C 19.683594 13.644531 19.574219 13.71875 19.46875 13.800781 C 19.003906 14.160156 18.503906 14.449219 17.929688 14.578125 C 17.59375 14.652344 17.25 14.6875 16.898438 14.742188 C 16.871094 14.738281 16.855469 14.734375 16.832031 14.722656 C 16.800781 14.71875 16.777344 14.71875 16.738281 14.71875 C 16.59375 14.691406 16.460938 14.664062 16.328125 14.640625 C 15.359375 14.445312 14.582031 13.964844 14.058594 13.113281 C 13.972656 12.980469 13.894531 12.859375 13.980469 12.683594 C 14.039062 12.554688 13.945312 12.421875 13.800781 12.371094 C 13.613281 12.308594 13.480469 12.351562 13.421875 12.503906 C 13.359375 12.652344 13.398438 12.804688 13.546875 12.855469 C 13.671875 12.898438 13.707031 12.984375 13.734375 13.09375 C 13.890625 13.667969 14.121094 14.210938 14.4375 14.71875 C 13.796875 14.644531 13.203125 14.421875 12.652344 14.121094 C 12.320312 13.941406 12.027344 13.699219 11.730469 13.464844 C 11.09375 12.957031 10.695312 12.285156 10.445312 11.523438 C 10.398438 11.378906 10.386719 11.226562 10.359375 11.074219 M 15.175781 13.304688 C 15.1875 13.328125 15.195312 13.359375 15.214844 13.375 C 15.273438 13.425781 15.355469 13.519531 15.398438 13.507812 C 15.464844 13.484375 15.523438 13.394531 15.558594 13.320312 C 15.597656 13.226562 15.609375 13.121094 15.628906 13.019531 C 15.761719 12.402344 15.730469 11.789062 15.519531 11.191406 C 15.46875 11.046875 15.402344 10.890625 15.207031 10.890625 C 15.085938 10.890625 14.972656 11.050781 14.960938 11.265625 C 14.917969 11.949219 14.957031 12.625 15.175781 13.304688 M 18.777344 12.710938 C 18.835938 12.894531 18.882812 13.082031 18.953125 13.257812 C 18.976562 13.3125 19.054688 13.367188 19.113281 13.371094 C 19.148438 13.375 19.191406 13.28125 19.226562 13.226562 C 19.238281 13.210938 19.238281 13.1875 19.242188 13.167969 C 19.382812 12.621094 19.332031 12.070312 19.214844 11.53125 C 19.171875 11.332031 19.078125 11.140625 18.976562 10.960938 C 18.910156 10.835938 18.78125 10.839844 18.703125 10.960938 C 18.648438 11.050781 18.589844 11.167969 18.601562 11.265625 C 18.644531 11.738281 18.714844 12.210938 18.777344 12.710938 M 13.007812 9.421875 C 13.074219 9.410156 13.140625 9.402344 13.207031 9.386719 C 13.390625 9.347656 13.421875 9.292969 13.425781 9.054688 C 13.429688 8.839844 13.386719 8.773438 13.214844 8.730469 C 12.917969 8.652344 12.550781 8.769531 12.398438 9.042969 C 12.230469 9.34375 12.109375 9.667969 11.96875 9.988281 C 11.929688 10.078125 11.9375 10.179688 12.039062 10.207031 C 12.074219 10.214844 12.140625 10.109375 12.191406 10.054688 C 12.195312 10.050781 12.199219 10.035156 12.199219 10.027344 C 12.320312 9.644531 12.589844 9.457031 13.007812 9.421875 M 14.054688 8.683594 C 14.078125 8.710938 14.09375 8.746094 14.121094 8.769531 C 14.207031 8.835938 14.304688 8.875 14.390625 8.789062 C 14.476562 8.699219 14.40625 8.617188 14.332031 8.550781 C 14.292969 8.515625 14.253906 8.464844 14.210938 8.460938 C 14.136719 8.449219 14.058594 8.46875 13.980469 8.476562 C 14.003906 8.539062 14.023438 8.601562 14.054688 8.683594 Z M 14.054688 8.683594 "/>
<path style=" stroke:none;fill-rule:nonzero;fill:rgb(3.529412%,3.529412%,3.529412%);fill-opacity:1;" d="M 24.375 19.34375 C 24.402344 19.464844 24.460938 19.585938 24.449219 19.703125 C 24.414062 20.140625 24.386719 20.582031 24.300781 21.007812 C 24.242188 21.304688 24.132812 21.597656 23.984375 21.859375 C 23.875 22.046875 23.6875 22.203125 23.503906 22.335938 C 23.1875 22.5625 22.851562 22.769531 22.515625 22.964844 C 22.261719 23.113281 21.992188 23.238281 21.730469 23.367188 C 21.433594 23.511719 21.136719 23.660156 20.832031 23.78125 C 20.5625 23.890625 20.285156 23.980469 20.007812 24.058594 C 19.367188 24.242188 18.703125 24.304688 18.042969 24.382812 C 17.386719 24.464844 16.730469 24.511719 16.074219 24.492188 C 15.523438 24.476562 14.964844 24.492188 14.417969 24.382812 C 14.082031 24.316406 13.738281 24.308594 13.402344 24.242188 C 12.953125 24.152344 12.507812 24.03125 12.0625 23.921875 C 11.707031 23.835938 11.34375 23.761719 10.992188 23.65625 C 10.574219 23.53125 10.164062 23.382812 9.75 23.242188 C 9.523438 23.164062 9.285156 23.097656 9.066406 23 C 8.644531 22.8125 8.234375 22.605469 7.816406 22.40625 C 7.660156 22.335938 7.578125 22.207031 7.535156 22.054688 C 7.421875 21.664062 7.308594 21.277344 7.21875 20.886719 C 7.070312 20.269531 7.003906 19.640625 7.03125 19.003906 C 7.035156 18.933594 7.0625 18.867188 7.09375 18.796875 C 7.289062 19.652344 7.800781 20.292969 8.480469 20.789062 C 8.902344 21.09375 9.378906 21.335938 9.847656 21.574219 C 10.210938 21.757812 10.59375 21.90625 10.976562 22.046875 C 11.296875 22.164062 11.628906 22.25 11.957031 22.34375 C 12.132812 22.394531 12.316406 22.429688 12.5 22.484375 C 12.5625 22.511719 12.621094 22.523438 12.675781 22.542969 C 13.375 22.765625 14.09375 22.898438 14.820312 22.96875 C 15.417969 23.023438 16.019531 23.074219 16.617188 23.085938 C 17.261719 23.101562 17.90625 23.074219 18.550781 23.0625 C 18.582031 23.0625 18.613281 23.058594 18.644531 23.050781 C 19.003906 22.953125 19.375 22.871094 19.726562 22.75 C 20.304688 22.554688 20.878906 22.355469 21.4375 22.113281 C 21.867188 21.925781 22.28125 21.691406 22.671875 21.433594 C 22.976562 21.234375 23.242188 20.972656 23.515625 20.726562 C 23.628906 20.625 23.714844 20.492188 23.816406 20.367188 C 23.898438 20.253906 23.992188 20.160156 24.050781 20.046875 C 24.167969 19.816406 24.265625 19.578125 24.375 19.34375 Z M 24.375 19.34375 "/>
<path style=" stroke:none;fill-rule:nonzero;fill:rgb(78.039216%,64.313725%,4.705882%);fill-opacity:1;" d="M 20.492188 12.859375 C 20.558594 12.804688 20.640625 12.761719 20.691406 12.695312 C 20.863281 12.480469 21.035156 12.265625 21.179688 12.03125 C 21.3125 11.820312 21.332031 11.59375 21.210938 11.34375 C 20.953125 10.800781 20.648438 10.292969 20.21875 9.867188 C 19.746094 9.398438 19.175781 9.074219 18.550781 8.847656 C 18.332031 8.765625 18.109375 8.699219 17.886719 8.625 C 17.851562 8.613281 17.820312 8.585938 17.792969 8.546875 C 17.855469 8.527344 17.910156 8.527344 17.96875 8.527344 C 17.980469 8.53125 17.996094 8.535156 18.023438 8.550781 C 18.195312 8.597656 18.351562 8.636719 18.507812 8.675781 C 18.511719 8.675781 18.515625 8.675781 18.535156 8.6875 C 18.859375 8.796875 19.164062 8.894531 19.472656 8.992188 C 19.472656 8.992188 19.472656 8.992188 19.480469 9.003906 C 19.585938 9.054688 19.6875 9.097656 19.785156 9.140625 C 19.796875 9.148438 19.808594 9.152344 19.832031 9.171875 C 19.921875 9.222656 19.996094 9.257812 20.070312 9.296875 C 20.082031 9.300781 20.09375 9.304688 20.113281 9.324219 C 20.273438 9.460938 20.421875 9.582031 20.570312 9.703125 C 20.652344 9.785156 20.730469 9.863281 20.816406 9.964844 C 20.878906 10.039062 20.9375 10.101562 20.996094 10.160156 C 21.007812 10.171875 21.019531 10.1875 21.035156 10.21875 C 21.171875 10.417969 21.300781 10.601562 21.433594 10.78125 C 21.445312 10.804688 21.457031 10.828125 21.472656 10.871094 C 21.480469 10.910156 21.488281 10.933594 21.496094 10.949219 C 21.699219 11.339844 21.917969 11.722656 21.996094 12.164062 C 22.003906 12.195312 22.03125 12.226562 22.050781 12.253906 C 22.054688 12.265625 22.054688 12.28125 22.054688 12.3125 C 22.066406 12.375 22.082031 12.421875 22.101562 12.46875 C 22.101562 12.480469 22.105469 12.492188 22.105469 12.527344 C 22.113281 12.605469 22.125 12.660156 22.136719 12.71875 C 22.136719 12.730469 22.140625 12.742188 22.136719 12.777344 C 22.148438 12.878906 22.160156 12.957031 22.175781 13.039062 C 22.175781 13.070312 22.179688 13.101562 22.175781 13.152344 C 22.183594 13.253906 22.195312 13.332031 22.210938 13.410156 C 22.210938 13.421875 22.214844 13.4375 22.210938 13.46875 C 22.214844 13.53125 22.230469 13.578125 22.242188 13.625 C 22.25 13.636719 22.257812 13.644531 22.269531 13.667969 C 22.28125 13.691406 22.28125 13.703125 22.28125 13.726562 C 22.234375 13.964844 22.226562 14.214844 22.125 14.414062 C 21.960938 14.742188 21.746094 15.054688 21.527344 15.351562 C 21.335938 15.613281 21.109375 15.84375 20.816406 15.992188 C 20.191406 16.316406 19.515625 16.4375 18.824219 16.46875 C 18.492188 16.484375 18.160156 16.488281 17.828125 16.503906 C 17.289062 16.523438 16.753906 16.535156 16.214844 16.566406 C 15.5625 16.605469 14.921875 16.484375 14.289062 16.359375 C 13.53125 16.214844 12.785156 16.042969 12.0625 15.734375 C 11.324219 15.417969 10.636719 15.046875 10.101562 14.429688 C 9.785156 14.058594 9.558594 13.65625 9.679688 13.140625 C 9.703125 13.042969 9.6875 12.941406 9.6875 12.839844 C 9.746094 12.660156 9.800781 12.476562 9.867188 12.300781 C 10.023438 11.894531 10.183594 11.492188 10.351562 11.082031 C 10.386719 11.226562 10.398438 11.378906 10.445312 11.523438 C 10.695312 12.285156 11.09375 12.957031 11.730469 13.464844 C 12.027344 13.699219 12.320312 13.941406 12.652344 14.121094 C 13.203125 14.421875 13.796875 14.644531 14.445312 14.722656 C 14.605469 14.863281 14.738281 15.019531 14.890625 15.152344 C 16.003906 16.097656 17.347656 16.402344 18.664062 15.703125 C 19.410156 15.308594 19.972656 14.765625 20.183594 13.921875 C 20.253906 13.628906 20.308594 13.332031 20.378906 13.03125 C 20.425781 12.972656 20.460938 12.917969 20.492188 12.867188 C 20.492188 12.863281 20.492188 12.859375 20.492188 12.859375 Z M 20.492188 12.859375 "/>
<path style=" stroke:none;fill-rule:nonzero;fill:rgb(16.862745%,18.431373%,11.764706%);fill-opacity:1;" d="M 12.496094 22.472656 C 12.316406 22.429688 12.132812 22.394531 11.957031 22.34375 C 11.628906 22.25 11.296875 22.164062 10.976562 22.046875 C 10.59375 21.90625 10.210938 21.757812 9.847656 21.574219 C 9.378906 21.335938 8.902344 21.09375 8.480469 20.789062 C 7.800781 20.292969 7.289062 19.652344 7.101562 18.789062 C 7.078125 18.589844 7.058594 18.398438 7.0625 18.195312 C 7.121094 18.085938 7.15625 17.984375 7.203125 17.890625 C 7.453125 17.371094 7.707031 16.859375 8.0625 16.402344 C 8.25 16.164062 8.460938 15.957031 8.75 15.855469 C 8.726562 16.179688 8.664062 16.492188 8.699219 16.796875 C 8.734375 17.085938 8.84375 17.375 8.96875 17.644531 C 9.050781 17.832031 9.195312 18 9.34375 18.144531 C 9.503906 18.300781 9.632812 18.507812 9.878906 18.570312 C 10.015625 18.6875 10.132812 18.824219 10.28125 18.894531 C 10.617188 19.050781 10.96875 19.175781 11.324219 19.316406 C 11.457031 19.367188 11.582031 19.417969 11.710938 19.480469 C 11.71875 20.242188 11.722656 20.988281 11.71875 21.734375 C 11.71875 21.925781 11.78125 21.996094 11.972656 21.996094 C 12.222656 21.996094 12.46875 21.996094 12.71875 22.011719 C 12.671875 22.164062 12.628906 22.304688 12.578125 22.441406 C 12.574219 22.460938 12.527344 22.460938 12.496094 22.472656 Z M 12.496094 22.472656 "/>
<path style=" stroke:none;fill-rule:nonzero;fill:rgb(95.294118%,81.176471%,13.333333%);fill-opacity:1;" d="M 9.675781 12.84375 C 9.6875 12.941406 9.703125 13.042969 9.679688 13.140625 C 9.558594 13.65625 9.785156 14.058594 10.101562 14.429688 C 10.636719 15.046875 11.324219 15.417969 12.0625 15.734375 C 12.785156 16.042969 13.53125 16.214844 14.289062 16.359375 C 14.921875 16.484375 15.5625 16.605469 16.214844 16.566406 C 16.753906 16.535156 17.289062 16.523438 17.828125 16.503906 C 18.160156 16.488281 18.492188 16.484375 18.824219 16.46875 C 19.515625 16.4375 20.191406 16.316406 20.816406 15.992188 C 21.109375 15.84375 21.335938 15.613281 21.527344 15.351562 C 21.746094 15.054688 21.960938 14.742188 22.125 14.414062 C 22.226562 14.214844 22.234375 13.964844 22.289062 13.730469 C 22.3125 13.71875 22.324219 13.722656 22.335938 13.722656 C 22.335938 13.722656 22.339844 13.722656 22.339844 13.734375 C 22.351562 13.746094 22.359375 13.75 22.367188 13.753906 C 22.367188 13.753906 22.367188 13.757812 22.371094 13.765625 C 22.382812 13.777344 22.390625 13.78125 22.398438 13.785156 C 22.398438 13.785156 22.40625 13.796875 22.410156 13.8125 C 22.480469 13.941406 22.546875 14.054688 22.609375 14.164062 C 22.625 14.199219 22.636719 14.230469 22.648438 14.28125 C 22.648438 14.308594 22.652344 14.316406 22.664062 14.320312 C 22.667969 14.332031 22.667969 14.34375 22.667969 14.367188 C 22.660156 14.386719 22.65625 14.398438 22.644531 14.410156 C 22.574219 14.585938 22.53125 14.769531 22.453125 14.933594 C 22.140625 15.582031 21.695312 16.128906 21.109375 16.542969 C 20.8125 16.753906 20.480469 16.917969 20.144531 17.0625 C 19.9375 17.152344 19.699219 17.160156 19.476562 17.214844 C 18.917969 17.34375 18.347656 17.429688 17.769531 17.4375 C 17.65625 17.441406 17.542969 17.445312 17.425781 17.449219 C 17.089844 17.453125 16.75 17.476562 16.414062 17.460938 C 15.890625 17.433594 15.371094 17.390625 14.847656 17.339844 C 14.433594 17.300781 14.011719 17.269531 13.601562 17.183594 C 12.851562 17.027344 12.144531 16.738281 11.453125 16.414062 C 10.878906 16.144531 10.375 15.769531 9.859375 15.410156 C 9.511719 15.171875 9.253906 14.878906 9.136719 14.472656 C 9.128906 14.445312 9.097656 14.429688 9.074219 14.394531 C 9.066406 14.316406 9.0625 14.253906 9.058594 14.191406 C 9.066406 14.15625 9.070312 14.121094 9.089844 14.070312 C 9.105469 14.019531 9.105469 13.984375 9.105469 13.949219 C 9.109375 13.929688 9.109375 13.910156 9.125 13.875 C 9.144531 13.824219 9.148438 13.789062 9.152344 13.75 C 9.152344 13.75 9.152344 13.75 9.160156 13.742188 C 9.175781 13.707031 9.179688 13.683594 9.1875 13.65625 C 9.265625 13.339844 9.441406 13.078125 9.675781 12.84375 M 10.152344 15.097656 C 10.152344 15.097656 10.144531 15.09375 10.144531 15.074219 C 10.097656 15.039062 10.046875 15 9.980469 14.949219 C 9.925781 14.894531 9.871094 14.839844 9.828125 14.765625 C 9.78125 14.648438 9.707031 14.605469 9.539062 14.667969 C 9.597656 14.730469 9.640625 14.78125 9.699219 14.851562 C 9.703125 14.859375 9.707031 14.867188 9.703125 14.890625 C 9.738281 14.921875 9.773438 14.953125 9.828125 15 C 9.890625 15.0625 9.953125 15.125 10.011719 15.207031 C 10.082031 15.253906 10.152344 15.300781 10.242188 15.363281 C 10.25 15.367188 10.257812 15.371094 10.261719 15.394531 C 10.328125 15.414062 10.394531 15.433594 10.484375 15.464844 C 10.503906 15.46875 10.519531 15.472656 10.542969 15.496094 C 10.617188 15.578125 10.691406 15.667969 10.859375 15.625 C 10.753906 15.445312 10.601562 15.367188 10.414062 15.292969 C 10.367188 15.257812 10.316406 15.222656 10.269531 15.171875 C 10.234375 15.148438 10.195312 15.125 10.152344 15.097656 M 14.101562 16.765625 C 14.179688 16.777344 14.253906 16.789062 14.328125 16.800781 C 14.332031 16.78125 14.335938 16.757812 14.339844 16.738281 C 14.226562 16.707031 14.113281 16.675781 14.003906 16.644531 C 13.996094 16.664062 13.992188 16.679688 13.984375 16.695312 C 14.015625 16.714844 14.050781 16.734375 14.101562 16.765625 Z M 14.101562 16.765625 "/>
<path style=" stroke:none;fill-rule:nonzero;fill:rgb(77.254902%,64.313725%,5.490196%);fill-opacity:1;" d="M 9.078125 14.40625 C 9.097656 14.429688 9.128906 14.445312 9.136719 14.472656 C 9.253906 14.878906 9.511719 15.171875 9.859375 15.410156 C 10.375 15.769531 10.878906 16.144531 11.453125 16.414062 C 12.144531 16.738281 12.851562 17.027344 13.601562 17.183594 C 14.011719 17.269531 14.433594 17.300781 14.847656 17.339844 C 15.371094 17.390625 15.890625 17.433594 16.414062 17.460938 C 16.75 17.476562 17.089844 17.453125 17.425781 17.449219 C 17.542969 17.445312 17.65625 17.441406 17.769531 17.4375 C 18.347656 17.429688 18.917969 17.34375 19.476562 17.214844 C 19.699219 17.160156 19.9375 17.152344 20.144531 17.0625 C 20.480469 16.917969 20.8125 16.753906 21.109375 16.542969 C 21.695312 16.128906 22.140625 15.582031 22.453125 14.933594 C 22.53125 14.769531 22.574219 14.585938 22.652344 14.417969 C 22.695312 14.511719 22.726562 14.597656 22.753906 14.6875 C 22.753906 14.707031 22.757812 14.730469 22.757812 14.78125 C 22.757812 15.113281 22.761719 15.417969 22.765625 15.726562 C 22.761719 15.738281 22.761719 15.75 22.746094 15.78125 C 22.734375 15.824219 22.726562 15.851562 22.722656 15.878906 C 22.722656 15.878906 22.722656 15.878906 22.710938 15.882812 C 22.683594 15.949219 22.660156 16.011719 22.640625 16.070312 C 22.625 16.101562 22.609375 16.132812 22.582031 16.179688 C 22.386719 16.398438 22.203125 16.605469 22.011719 16.808594 C 21.917969 16.882812 21.832031 16.953125 21.738281 17.027344 C 21.703125 17.050781 21.679688 17.070312 21.644531 17.097656 C 21.226562 17.382812 20.773438 17.558594 20.296875 17.679688 C 19.847656 17.796875 19.398438 17.917969 18.945312 18 C 18.085938 18.160156 17.21875 18.199219 16.351562 18.132812 C 15.40625 18.0625 14.464844 18 13.535156 17.78125 C 12.113281 17.441406 10.75 17 9.652344 15.960938 C 9.484375 15.707031 9.320312 15.460938 9.15625 15.203125 C 9.128906 15.117188 9.101562 15.039062 9.078125 14.964844 C 9.070312 14.878906 9.066406 14.796875 9.0625 14.691406 C 9.058594 14.667969 9.058594 14.660156 9.054688 14.65625 C 9.050781 14.585938 9.046875 14.511719 9.050781 14.425781 C 9.066406 14.410156 9.070312 14.40625 9.078125 14.40625 Z M 9.078125 14.40625 "/>
<path style=" stroke:none;fill-rule:nonzero;fill:rgb(16.862745%,18.431373%,11.764706%);fill-opacity:1;" d="M 24.375 19.332031 C 24.265625 19.578125 24.167969 19.816406 24.050781 20.046875 C 23.992188 20.160156 23.898438 20.253906 23.804688 20.367188 C 23.507812 20.34375 23.230469 20.316406 22.953125 20.28125 C 22.25 20.191406 21.574219 20 20.960938 19.625 C 20.886719 19.578125 20.800781 19.539062 20.714844 19.488281 C 20.707031 19.414062 20.707031 19.347656 20.71875 19.285156 C 20.914062 19.210938 21.097656 19.136719 21.292969 19.0625 C 21.789062 18.851562 22.222656 18.558594 22.566406 18.15625 C 22.742188 17.949219 22.894531 17.714844 22.878906 17.414062 C 22.867188 17.191406 22.875 16.972656 22.886719 16.75 C 22.917969 16.765625 22.945312 16.773438 22.960938 16.792969 C 23.207031 17.046875 23.460938 17.292969 23.691406 17.558594 C 23.882812 17.785156 24.046875 18.035156 24.222656 18.273438 C 24.265625 18.328125 24.3125 18.382812 24.355469 18.433594 C 24.378906 18.652344 24.402344 18.867188 24.421875 19.085938 C 24.425781 19.121094 24.414062 19.15625 24.398438 19.210938 C 24.386719 19.246094 24.382812 19.265625 24.378906 19.28125 C 24.375 19.296875 24.375 19.308594 24.375 19.332031 Z M 24.375 19.332031 "/>
<path style=" stroke:none;fill-rule:nonzero;fill:rgb(5.098039%,10.196078%,5.490196%);fill-opacity:1;" d="M 22.875 16.75 C 22.875 16.972656 22.867188 17.191406 22.878906 17.414062 C 22.894531 17.714844 22.742188 17.949219 22.566406 18.15625 C 22.222656 18.558594 21.789062 18.851562 21.292969 19.050781 C 21.355469 18.960938 21.449219 18.894531 21.5 18.804688 C 21.628906 18.582031 21.742188 18.347656 21.859375 18.121094 C 21.867188 18.109375 21.875 18.089844 21.871094 18.078125 C 21.832031 17.855469 21.8125 17.625 21.742188 17.410156 C 21.6875 17.230469 21.722656 17.03125 21.902344 17.027344 C 22.070312 17.027344 22.070312 16.914062 22.164062 16.832031 C 22.097656 16.820312 22.058594 16.8125 22.019531 16.808594 C 22.203125 16.605469 22.386719 16.398438 22.582031 16.191406 C 22.644531 16.238281 22.695312 16.292969 22.742188 16.363281 C 22.785156 16.503906 22.828125 16.628906 22.875 16.75 Z M 22.875 16.75 "/>
<path style=" stroke:none;fill-rule:nonzero;fill:rgb(22.745098%,24.705882%,18.039216%);fill-opacity:1;" d="M 9.066406 14.96875 C 9.101562 15.039062 9.128906 15.117188 9.144531 15.207031 C 9.101562 15.25 9.054688 15.273438 9.035156 15.3125 C 8.9375 15.488281 8.84375 15.667969 8.75 15.84375 C 8.460938 15.957031 8.25 16.164062 8.0625 16.402344 C 7.707031 16.859375 7.453125 17.371094 7.203125 17.890625 C 7.15625 17.984375 7.121094 18.085938 7.070312 18.183594 C 7.039062 17.421875 7.320312 16.769531 7.777344 16.160156 C 8.136719 15.683594 8.582031 15.3125 9.066406 14.96875 Z M 9.066406 14.96875 "/>
<path style=" stroke:none;fill-rule:nonzero;fill:rgb(49.019608%,41.176471%,30.980392%);fill-opacity:1;" d="M 17.179688 6.953125 C 17.324219 6.996094 17.445312 7.1875 17.460938 7.398438 C 17.480469 7.613281 17.457031 7.820312 17.332031 8.023438 C 17.296875 8.042969 17.273438 8.050781 17.246094 8.054688 C 17.234375 8.054688 17.226562 8.0625 17.21875 8.0625 C 17.222656 8.0625 17.222656 8.066406 17.207031 8.0625 C 17.132812 8.070312 17.070312 8.078125 17.011719 8.085938 C 16.597656 8.144531 16.1875 8.1875 15.800781 7.96875 C 15.769531 7.949219 15.71875 7.972656 15.667969 7.976562 C 15.636719 7.972656 15.617188 7.96875 15.59375 7.96875 C 15.582031 7.808594 15.574219 7.652344 15.578125 7.484375 C 15.65625 7.621094 15.777344 7.648438 15.921875 7.625 C 15.996094 7.617188 16.074219 7.609375 16.148438 7.589844 C 16.167969 7.585938 16.175781 7.53125 16.195312 7.488281 C 16.296875 7.445312 16.351562 7.503906 16.355469 7.578125 C 16.359375 7.613281 16.292969 7.671875 16.246094 7.6875 C 16.164062 7.71875 16.074219 7.722656 15.988281 7.738281 C 16.023438 7.785156 16.0625 7.8125 16.105469 7.808594 C 16.332031 7.804688 16.558594 7.800781 16.78125 7.777344 C 16.839844 7.773438 16.894531 7.710938 16.957031 7.675781 C 16.992188 7.679688 17.023438 7.683594 17.0625 7.6875 C 17.101562 7.6875 17.125 7.6875 17.164062 7.691406 C 17.214844 7.726562 17.257812 7.757812 17.300781 7.789062 C 17.320312 7.78125 17.339844 7.773438 17.359375 7.765625 C 17.339844 7.582031 17.320312 7.398438 17.289062 7.214844 C 17.28125 7.167969 17.230469 7.128906 17.195312 7.078125 C 17.1875 7.027344 17.183594 6.992188 17.179688 6.953125 Z M 17.179688 6.953125 "/>
<path style=" stroke:none;fill-rule:nonzero;fill:rgb(65.490196%,56.470588%,43.921569%);fill-opacity:1;" d="M 17.597656 8.308594 C 17.609375 8.332031 17.625 8.355469 17.632812 8.394531 C 17.582031 8.429688 17.539062 8.449219 17.488281 8.46875 C 17.449219 8.476562 17.421875 8.476562 17.402344 8.488281 C 16.917969 8.78125 16.394531 8.84375 15.851562 8.722656 C 15.644531 8.675781 15.449219 8.59375 15.25 8.515625 C 15.25 8.5 15.25 8.496094 15.25 8.476562 C 15.359375 8.257812 15.390625 8.253906 15.601562 8.355469 C 15.667969 8.386719 15.75 8.386719 15.824219 8.402344 C 15.832031 8.402344 15.847656 8.386719 15.859375 8.378906 C 15.832031 8.339844 15.8125 8.308594 15.792969 8.273438 C 15.867188 8.25 15.921875 8.230469 15.988281 8.210938 C 16.40625 8.367188 16.800781 8.339844 17.1875 8.167969 C 17.195312 8.222656 17.199219 8.296875 17.207031 8.296875 C 17.335938 8.308594 17.464844 8.308594 17.597656 8.308594 M 16.40625 8.535156 C 16.496094 8.539062 16.582031 8.542969 16.671875 8.550781 C 16.800781 8.566406 16.886719 8.5 16.96875 8.429688 C 16.964844 8.410156 16.960938 8.394531 16.957031 8.378906 C 16.675781 8.378906 16.394531 8.378906 16.058594 8.378906 C 16.203125 8.421875 16.210938 8.609375 16.40625 8.535156 Z M 16.40625 8.535156 "/>
<path style=" stroke:none;fill-rule:nonzero;fill:rgb(49.019608%,41.176471%,30.980392%);fill-opacity:1;" d="M 17.5 8.46875 C 17.539062 8.449219 17.582031 8.429688 17.632812 8.402344 C 17.644531 8.398438 17.652344 8.398438 17.652344 8.417969 C 17.65625 8.472656 17.652344 8.507812 17.65625 8.542969 C 17.683594 8.726562 17.625 8.863281 17.441406 8.921875 C 17.238281 8.984375 17.03125 9.058594 16.820312 9.09375 C 16.410156 9.167969 16.003906 9.144531 15.609375 9 C 15.394531 8.917969 15.175781 8.832031 15.191406 8.53125 C 15.203125 8.515625 15.210938 8.503906 15.222656 8.496094 C 15.238281 8.492188 15.242188 8.488281 15.25 8.488281 C 15.25 8.496094 15.25 8.5 15.25 8.527344 C 15.292969 8.589844 15.324219 8.640625 15.371094 8.667969 C 15.8125 8.917969 16.292969 8.953125 16.785156 8.859375 C 17.0625 8.804688 17.324219 8.714844 17.5 8.46875 Z M 17.5 8.46875 "/>
<path style=" stroke:none;fill-rule:nonzero;fill:rgb(22.745098%,24.705882%,18.039216%);fill-opacity:1;" d="M 22.886719 16.75 C 22.828125 16.628906 22.785156 16.503906 22.746094 16.375 C 23.078125 16.480469 23.351562 16.683594 23.570312 16.941406 C 23.878906 17.304688 24.128906 17.703125 24.289062 18.152344 C 24.320312 18.234375 24.332031 18.324219 24.351562 18.421875 C 24.3125 18.382812 24.265625 18.328125 24.222656 18.273438 C 24.046875 18.035156 23.882812 17.785156 23.691406 17.558594 C 23.460938 17.292969 23.207031 17.046875 22.960938 16.792969 C 22.945312 16.773438 22.917969 16.765625 22.886719 16.75 Z M 22.886719 16.75 "/>
<path style=" stroke:none;fill-rule:nonzero;fill:rgb(65.490196%,56.470588%,43.921569%);fill-opacity:1;" d="M 15.507812 6.214844 C 15.519531 6.136719 15.53125 6.058594 15.5625 5.972656 C 15.710938 5.9375 15.835938 5.902344 15.964844 5.886719 C 16.042969 5.875 16.140625 5.867188 16.203125 5.902344 C 16.335938 5.976562 16.597656 5.992188 16.71875 5.898438 C 16.796875 5.839844 17 5.855469 17.089844 5.917969 C 17.222656 6.003906 17.175781 6.09375 17.105469 6.191406 C 17.0625 6.148438 17.027344 6.105469 17.007812 6.082031 C 16.863281 6.136719 16.734375 6.203125 16.597656 6.238281 C 16.453125 6.277344 16.296875 6.3125 16.148438 6.304688 C 15.933594 6.296875 15.71875 6.246094 15.507812 6.214844 Z M 15.507812 6.214844 "/>
<path style=" stroke:none;fill-rule:nonzero;fill:rgb(39.607843%,31.764706%,20.784314%);fill-opacity:1;" d="M 15.503906 6.226562 C 15.71875 6.246094 15.933594 6.296875 16.148438 6.304688 C 16.296875 6.3125 16.453125 6.277344 16.597656 6.238281 C 16.734375 6.203125 16.863281 6.136719 17.007812 6.082031 C 17.027344 6.105469 17.0625 6.148438 17.109375 6.199219 C 17.132812 6.214844 17.140625 6.222656 17.152344 6.238281 C 17.257812 6.308594 17.347656 6.300781 17.417969 6.1875 C 17.453125 6.171875 17.476562 6.164062 17.5 6.15625 C 17.566406 6.328125 17.449219 6.472656 17.226562 6.492188 C 17.113281 6.503906 17 6.507812 16.886719 6.527344 C 16.851562 6.535156 16.824219 6.578125 16.773438 6.605469 C 16.722656 6.570312 16.691406 6.511719 16.65625 6.507812 C 16.523438 6.488281 16.390625 6.488281 16.261719 6.488281 C 16.226562 6.488281 16.191406 6.515625 16.15625 6.53125 C 16.058594 6.507812 15.957031 6.488281 15.859375 6.460938 C 15.71875 6.421875 15.566406 6.402344 15.503906 6.226562 Z M 15.503906 6.226562 "/>
<path style=" stroke:none;fill-rule:nonzero;fill:rgb(78.431373%,72.941176%,65.490196%);fill-opacity:1;" d="M 17.148438 6.226562 C 17.140625 6.222656 17.132812 6.214844 17.121094 6.199219 C 17.175781 6.09375 17.222656 6.003906 17.089844 5.917969 C 17 5.855469 16.796875 5.839844 16.71875 5.898438 C 16.597656 5.992188 16.335938 5.976562 16.203125 5.902344 C 16.140625 5.867188 16.042969 5.875 15.964844 5.886719 C 15.835938 5.902344 15.710938 5.9375 15.574219 5.96875 C 15.621094 5.921875 15.671875 5.847656 15.738281 5.828125 C 16.179688 5.703125 16.625 5.597656 17.082031 5.753906 C 17.195312 5.792969 17.304688 5.851562 17.394531 5.921875 C 17.453125 5.96875 17.46875 6.058594 17.5 6.144531 C 17.476562 6.164062 17.453125 6.171875 17.40625 6.183594 C 17.304688 6.199219 17.226562 6.214844 17.148438 6.226562 Z M 17.148438 6.226562 "/>
<path style=" stroke:none;fill-rule:nonzero;fill:rgb(65.490196%,56.470588%,43.921569%);fill-opacity:1;" d="M 16.1875 7.496094 C 16.175781 7.53125 16.167969 7.585938 16.148438 7.589844 C 16.074219 7.609375 15.996094 7.617188 15.921875 7.625 C 15.777344 7.648438 15.65625 7.621094 15.582031 7.46875 C 15.570312 7.433594 15.570312 7.398438 15.582031 7.351562 C 15.757812 7.273438 15.914062 7.210938 16.035156 7.164062 C 16.085938 7.042969 16.128906 6.941406 16.179688 6.851562 C 16.351562 7.015625 16.617188 6.992188 16.769531 6.8125 C 16.78125 6.808594 16.789062 6.804688 16.792969 6.800781 C 16.792969 6.800781 16.804688 6.804688 16.8125 6.820312 C 16.871094 6.898438 16.921875 6.960938 16.972656 7.027344 C 16.996094 7.058594 17.011719 7.089844 17.023438 7.121094 C 16.945312 7.09375 16.882812 7.058594 16.816406 7.039062 C 16.746094 7.015625 16.679688 7.019531 16.683594 7.125 C 16.636719 7.117188 16.597656 7.09375 16.566406 7.101562 C 16.355469 7.167969 16.148438 7.238281 15.925781 7.308594 C 15.917969 7.34375 15.90625 7.394531 15.921875 7.398438 C 16.007812 7.4375 16.097656 7.464844 16.1875 7.496094 Z M 16.1875 7.496094 "/>
<path style=" stroke:none;fill-rule:nonzero;fill:rgb(39.607843%,31.764706%,20.784314%);fill-opacity:1;" d="M 15.1875 8.535156 C 15.175781 8.832031 15.394531 8.917969 15.609375 9 C 16.003906 9.144531 16.410156 9.167969 16.820312 9.09375 C 17.03125 9.058594 17.238281 8.984375 17.441406 8.921875 C 17.625 8.863281 17.683594 8.726562 17.65625 8.542969 C 17.652344 8.507812 17.65625 8.472656 17.65625 8.421875 C 17.757812 8.441406 17.855469 8.476562 17.960938 8.519531 C 17.910156 8.527344 17.855469 8.527344 17.792969 8.535156 C 17.757812 8.59375 17.738281 8.652344 17.707031 8.703125 C 17.65625 8.792969 17.617188 8.917969 17.539062 8.957031 C 16.839844 9.3125 16.121094 9.296875 15.402344 9.007812 C 15.207031 8.929688 15.109375 8.714844 15.160156 8.507812 C 15.175781 8.5 15.1875 8.5 15.183594 8.511719 C 15.1875 8.523438 15.1875 8.53125 15.1875 8.535156 Z M 15.1875 8.535156 "/>
<path style=" stroke:none;fill-rule:nonzero;fill:rgb(78.431373%,72.941176%,65.490196%);fill-opacity:1;" d="M 15.1875 8.5 C 15.1875 8.5 15.175781 8.5 15.171875 8.5 C 15.195312 8.386719 15.222656 8.277344 15.253906 8.152344 C 15.363281 8.089844 15.46875 8.035156 15.585938 7.976562 C 15.617188 7.96875 15.636719 7.972656 15.675781 7.984375 C 15.785156 8.066406 15.882812 8.136719 15.976562 8.210938 C 15.921875 8.230469 15.867188 8.25 15.792969 8.273438 C 15.8125 8.308594 15.832031 8.339844 15.859375 8.378906 C 15.847656 8.386719 15.832031 8.402344 15.824219 8.402344 C 15.75 8.386719 15.667969 8.386719 15.601562 8.355469 C 15.390625 8.253906 15.359375 8.257812 15.25 8.476562 C 15.242188 8.488281 15.238281 8.492188 15.214844 8.496094 C 15.199219 8.496094 15.1875 8.5 15.1875 8.5 Z M 15.1875 8.5 "/>
<path style=" stroke:none;fill-rule:nonzero;fill:rgb(49.019608%,41.176471%,30.980392%);fill-opacity:1;" d="M 16.789062 6.789062 C 16.789062 6.804688 16.78125 6.808594 16.753906 6.8125 C 16.546875 6.90625 16.359375 6.820312 16.164062 6.816406 C 16.160156 6.816406 16.152344 6.808594 16.152344 6.808594 C 16.152344 6.722656 16.152344 6.640625 16.15625 6.546875 C 16.191406 6.515625 16.226562 6.488281 16.261719 6.488281 C 16.390625 6.488281 16.523438 6.488281 16.65625 6.507812 C 16.691406 6.511719 16.722656 6.570312 16.765625 6.613281 C 16.777344 6.671875 16.78125 6.726562 16.789062 6.789062 Z M 16.789062 6.789062 "/>
<path style=" stroke:none;fill-rule:nonzero;fill:rgb(78.431373%,72.941176%,65.490196%);fill-opacity:1;" d="M 16.140625 6.808594 C 16.152344 6.808594 16.160156 6.816406 16.164062 6.824219 C 16.171875 6.828125 16.171875 6.839844 16.171875 6.839844 C 16.128906 6.941406 16.085938 7.042969 16.035156 7.164062 C 15.914062 7.210938 15.757812 7.273438 15.585938 7.339844 C 15.59375 7.042969 15.738281 6.902344 16.140625 6.808594 Z M 16.140625 6.808594 "/>
<path style=" stroke:none;fill-rule:nonzero;fill:rgb(78.431373%,72.941176%,65.490196%);fill-opacity:1;" d="M 17.59375 8.300781 C 17.464844 8.308594 17.335938 8.308594 17.207031 8.296875 C 17.199219 8.296875 17.195312 8.222656 17.195312 8.160156 C 17.207031 8.117188 17.214844 8.089844 17.222656 8.066406 C 17.222656 8.066406 17.222656 8.0625 17.226562 8.0625 C 17.234375 8.066406 17.246094 8.058594 17.246094 8.058594 C 17.273438 8.050781 17.296875 8.042969 17.332031 8.035156 C 17.425781 8.117188 17.507812 8.203125 17.59375 8.300781 Z M 17.59375 8.300781 "/>
<path style=" stroke:none;fill-rule:nonzero;fill:rgb(39.607843%,31.764706%,20.784314%);fill-opacity:1;" d="M 22.054688 12.242188 C 22.03125 12.226562 22.003906 12.195312 21.996094 12.164062 C 21.917969 11.722656 21.699219 11.339844 21.496094 10.949219 C 21.488281 10.933594 21.480469 10.910156 21.476562 10.882812 C 21.59375 11.074219 21.730469 11.273438 21.820312 11.488281 C 21.921875 11.726562 21.980469 11.980469 22.054688 12.242188 Z M 22.054688 12.242188 "/>
<path style=" stroke:none;fill-rule:nonzero;fill:rgb(78.431373%,72.941176%,65.490196%);fill-opacity:1;" d="M 17.035156 7.121094 C 17.011719 7.089844 16.996094 7.058594 16.972656 7.027344 C 16.921875 6.960938 16.871094 6.898438 16.816406 6.824219 C 16.929688 6.855469 17.046875 6.898438 17.171875 6.945312 C 17.183594 6.992188 17.1875 7.027344 17.191406 7.085938 C 17.15625 7.125 17.125 7.140625 17.085938 7.152344 C 17.066406 7.136719 17.050781 7.128906 17.035156 7.121094 Z M 17.035156 7.121094 "/>
<path style=" stroke:none;fill-rule:nonzero;fill:rgb(39.607843%,31.764706%,20.784314%);fill-opacity:1;" d="M 22.773438 15.71875 C 22.761719 15.417969 22.757812 15.113281 22.757812 14.789062 C 22.773438 14.785156 22.792969 14.796875 22.792969 14.808594 C 22.792969 15.109375 22.789062 15.410156 22.773438 15.71875 Z M 22.773438 15.71875 "/>
<path style=" stroke:none;fill-rule:nonzero;fill:rgb(39.607843%,31.764706%,20.784314%);fill-opacity:1;" d="M 19.464844 8.984375 C 19.164062 8.894531 18.859375 8.796875 18.542969 8.691406 C 18.84375 8.78125 19.152344 8.878906 19.464844 8.984375 Z M 19.464844 8.984375 "/>
<path style=" stroke:none;fill-rule:nonzero;fill:rgb(39.607843%,31.764706%,20.784314%);fill-opacity:1;" d="M 21.433594 10.769531 C 21.300781 10.601562 21.171875 10.417969 21.039062 10.222656 C 21.171875 10.394531 21.300781 10.578125 21.433594 10.769531 Z M 21.433594 10.769531 "/>
<path style=" stroke:none;fill-rule:nonzero;fill:rgb(39.607843%,31.764706%,20.784314%);fill-opacity:1;" d="M 20.566406 9.695312 C 20.421875 9.582031 20.273438 9.460938 20.125 9.328125 C 20.269531 9.441406 20.417969 9.5625 20.566406 9.695312 Z M 20.566406 9.695312 "/>
<path style=" stroke:none;fill-rule:nonzero;fill:rgb(39.607843%,31.764706%,20.784314%);fill-opacity:1;" d="M 18.5 8.664062 C 18.351562 8.636719 18.195312 8.597656 18.035156 8.550781 C 18.183594 8.578125 18.339844 8.617188 18.5 8.664062 Z M 18.5 8.664062 "/>
<path style=" stroke:none;fill-rule:nonzero;fill:rgb(39.607843%,31.764706%,20.784314%);fill-opacity:1;" d="M 22.613281 14.152344 C 22.546875 14.054688 22.480469 13.941406 22.414062 13.820312 C 22.484375 13.917969 22.550781 14.03125 22.613281 14.152344 Z M 22.613281 14.152344 "/>
<path style=" stroke:none;fill-rule:nonzero;fill:rgb(39.607843%,31.764706%,20.784314%);fill-opacity:1;" d="M 22.757812 14.675781 C 22.726562 14.597656 22.695312 14.511719 22.660156 14.414062 C 22.65625 14.398438 22.660156 14.386719 22.671875 14.378906 C 22.707031 14.472656 22.734375 14.570312 22.757812 14.675781 Z M 22.757812 14.675781 "/>
<path style=" stroke:none;fill-rule:nonzero;fill:rgb(39.607843%,31.764706%,20.784314%);fill-opacity:1;" d="M 19.78125 9.132812 C 19.6875 9.097656 19.585938 9.054688 19.480469 9.003906 C 19.578125 9.039062 19.675781 9.082031 19.78125 9.132812 Z M 19.78125 9.132812 "/>
<path style=" stroke:none;fill-rule:nonzero;fill:rgb(39.607843%,31.764706%,20.784314%);fill-opacity:1;" d="M 20.066406 9.285156 C 19.996094 9.257812 19.921875 9.222656 19.84375 9.175781 C 19.914062 9.203125 19.988281 9.242188 20.066406 9.285156 Z M 20.066406 9.285156 "/>
<path style=" stroke:none;fill-rule:nonzero;fill:rgb(39.607843%,31.764706%,20.784314%);fill-opacity:1;" d="M 22.214844 13.398438 C 22.195312 13.332031 22.183594 13.253906 22.175781 13.167969 C 22.195312 13.230469 22.207031 13.308594 22.214844 13.398438 Z M 22.214844 13.398438 "/>
<path style=" stroke:none;fill-rule:nonzero;fill:rgb(39.607843%,31.764706%,20.784314%);fill-opacity:1;" d="M 20.996094 10.148438 C 20.9375 10.101562 20.878906 10.039062 20.824219 9.972656 C 20.882812 10.019531 20.9375 10.078125 20.996094 10.148438 Z M 20.996094 10.148438 "/>
<path style=" stroke:none;fill-rule:nonzero;fill:rgb(39.607843%,31.764706%,20.784314%);fill-opacity:1;" d="M 22.179688 13.023438 C 22.160156 12.957031 22.148438 12.878906 22.136719 12.785156 C 22.15625 12.851562 22.167969 12.933594 22.179688 13.023438 Z M 22.179688 13.023438 "/>
<path style=" stroke:none;fill-rule:nonzero;fill:rgb(39.607843%,31.764706%,20.784314%);fill-opacity:1;" d="M 22.648438 16.066406 C 22.660156 16.011719 22.683594 15.949219 22.714844 15.882812 C 22.703125 15.941406 22.679688 16 22.648438 16.066406 Z M 22.648438 16.066406 "/>
<path style=" stroke:none;fill-rule:nonzero;fill:rgb(39.607843%,31.764706%,20.784314%);fill-opacity:1;" d="M 22.144531 12.707031 C 22.125 12.660156 22.113281 12.605469 22.105469 12.535156 C 22.121094 12.582031 22.136719 12.640625 22.144531 12.707031 Z M 22.144531 12.707031 "/>
<path style=" stroke:none;fill-rule:nonzero;fill:rgb(39.607843%,31.764706%,20.784314%);fill-opacity:1;" d="M 22.242188 13.613281 C 22.230469 13.578125 22.214844 13.53125 22.210938 13.476562 C 22.226562 13.511719 22.238281 13.558594 22.242188 13.613281 Z M 22.242188 13.613281 "/>
<path style=" stroke:none;fill-rule:nonzero;fill:rgb(39.607843%,31.764706%,20.784314%);fill-opacity:1;" d="M 22.105469 12.460938 C 22.082031 12.421875 22.066406 12.375 22.054688 12.320312 C 22.078125 12.359375 22.09375 12.40625 22.105469 12.460938 Z M 22.105469 12.460938 "/>
<path style=" stroke:none;fill-rule:nonzero;fill:rgb(22.745098%,24.705882%,18.039216%);fill-opacity:1;" d="M 9.074219 14.394531 C 9.070312 14.40625 9.066406 14.410156 9.050781 14.414062 C 9.042969 14.347656 9.042969 14.277344 9.050781 14.199219 C 9.0625 14.253906 9.066406 14.316406 9.074219 14.394531 Z M 9.074219 14.394531 "/>
<path style=" stroke:none;fill-rule:nonzero;fill:rgb(77.254902%,64.313725%,5.490196%);fill-opacity:1;" d="M 9.148438 13.757812 C 9.148438 13.789062 9.144531 13.824219 9.128906 13.867188 C 9.125 13.835938 9.132812 13.800781 9.148438 13.757812 Z M 9.148438 13.757812 "/>
<path style=" stroke:none;fill-rule:nonzero;fill:rgb(77.254902%,64.313725%,5.490196%);fill-opacity:1;" d="M 9.097656 13.957031 C 9.105469 13.984375 9.105469 14.019531 9.09375 14.058594 C 9.085938 14.03125 9.089844 13.996094 9.097656 13.957031 Z M 9.097656 13.957031 "/>
<path style=" stroke:none;fill-rule:nonzero;fill:rgb(39.607843%,31.764706%,20.784314%);fill-opacity:1;" d="M 22.730469 15.871094 C 22.726562 15.851562 22.734375 15.824219 22.746094 15.789062 C 22.75 15.8125 22.742188 15.839844 22.730469 15.871094 Z M 22.730469 15.871094 "/>
<path style=" stroke:none;fill-rule:nonzero;fill:rgb(3.529412%,3.529412%,3.529412%);fill-opacity:1;" d="M 24.386719 19.28125 C 24.382812 19.265625 24.386719 19.246094 24.398438 19.222656 C 24.402344 19.238281 24.398438 19.257812 24.386719 19.28125 Z M 24.386719 19.28125 "/>
<path style=" stroke:none;fill-rule:nonzero;fill:rgb(39.607843%,31.764706%,20.784314%);fill-opacity:1;" d="M 22.335938 13.714844 C 22.324219 13.722656 22.3125 13.71875 22.292969 13.714844 C 22.28125 13.703125 22.28125 13.691406 22.277344 13.675781 C 22.296875 13.679688 22.316406 13.691406 22.335938 13.714844 Z M 22.335938 13.714844 "/>
<path style=" stroke:none;fill-rule:nonzero;fill:rgb(77.254902%,64.313725%,5.490196%);fill-opacity:1;" d="M 9.179688 13.660156 C 9.179688 13.683594 9.175781 13.707031 9.164062 13.742188 C 9.160156 13.71875 9.164062 13.695312 9.179688 13.660156 Z M 9.179688 13.660156 "/>
<path style=" stroke:none;fill-rule:nonzero;fill:rgb(39.607843%,31.764706%,20.784314%);fill-opacity:1;" d="M 22.367188 13.746094 C 22.359375 13.75 22.351562 13.746094 22.339844 13.734375 C 22.347656 13.730469 22.355469 13.734375 22.367188 13.746094 Z M 22.367188 13.746094 "/>
<path style=" stroke:none;fill-rule:nonzero;fill:rgb(39.607843%,31.764706%,20.784314%);fill-opacity:1;" d="M 22.398438 13.777344 C 22.390625 13.78125 22.382812 13.777344 22.371094 13.765625 C 22.378906 13.761719 22.386719 13.765625 22.398438 13.777344 Z M 22.398438 13.777344 "/>
<path style=" stroke:none;fill-rule:nonzero;fill:rgb(39.607843%,31.764706%,20.784314%);fill-opacity:1;" d="M 22.667969 14.3125 C 22.652344 14.316406 22.648438 14.308594 22.652344 14.292969 C 22.667969 14.289062 22.675781 14.292969 22.667969 14.3125 Z M 22.667969 14.3125 "/>
<path style=" stroke:none;fill-rule:nonzero;fill:rgb(22.745098%,24.705882%,18.039216%);fill-opacity:1;" d="M 9.050781 14.660156 C 9.058594 14.660156 9.058594 14.667969 9.058594 14.679688 C 9.054688 14.679688 9.050781 14.671875 9.050781 14.660156 Z M 9.050781 14.660156 "/>
<path style=" stroke:none;fill-rule:nonzero;fill:rgb(2.745098%,1.960784%,0.784314%);fill-opacity:1;" d="M 20.371094 13.035156 C 20.308594 13.332031 20.253906 13.628906 20.183594 13.921875 C 19.972656 14.765625 19.410156 15.308594 18.664062 15.703125 C 17.347656 16.402344 16.003906 16.097656 14.890625 15.152344 C 14.738281 15.019531 14.605469 14.863281 14.453125 14.714844 C 14.121094 14.210938 13.890625 13.667969 13.734375 13.09375 C 13.707031 12.984375 13.671875 12.898438 13.546875 12.855469 C 13.398438 12.804688 13.359375 12.652344 13.421875 12.503906 C 13.480469 12.351562 13.613281 12.308594 13.800781 12.371094 C 13.945312 12.421875 14.039062 12.554688 13.980469 12.683594 C 13.894531 12.859375 13.972656 12.980469 14.058594 13.113281 C 14.582031 13.964844 15.359375 14.445312 16.328125 14.640625 C 16.460938 14.664062 16.59375 14.691406 16.746094 14.726562 C 16.792969 14.730469 16.816406 14.730469 16.839844 14.730469 C 16.855469 14.734375 16.871094 14.738281 16.910156 14.75 C 17.339844 14.730469 17.746094 14.738281 18.140625 14.675781 C 18.519531 14.613281 18.867188 14.4375 19.167969 14.199219 C 19.402344 14.011719 19.601562 13.777344 19.8125 13.5625 C 19.8125 13.5625 19.824219 13.558594 19.832031 13.550781 C 19.847656 13.53125 19.847656 13.519531 19.851562 13.507812 C 19.871094 13.484375 19.890625 13.460938 19.921875 13.421875 C 19.933594 13.398438 19.9375 13.386719 19.9375 13.378906 C 20.007812 13.210938 20.078125 13.046875 20.140625 12.878906 C 20.15625 12.839844 20.148438 12.785156 20.132812 12.746094 C 20.085938 12.609375 20.070312 12.480469 20.195312 12.378906 C 20.292969 12.300781 20.390625 12.332031 20.476562 12.40625 C 20.578125 12.492188 20.601562 12.667969 20.527344 12.804688 C 20.523438 12.820312 20.511719 12.832031 20.496094 12.851562 C 20.492188 12.859375 20.492188 12.863281 20.480469 12.863281 C 20.378906 12.886719 20.332031 12.9375 20.371094 13.035156 Z M 20.371094 13.035156 "/>
<path style=" stroke:none;fill-rule:nonzero;fill:rgb(2.745098%,1.960784%,0.784314%);fill-opacity:1;" d="M 15.171875 13.296875 C 14.957031 12.625 14.917969 11.949219 14.960938 11.265625 C 14.972656 11.050781 15.085938 10.890625 15.207031 10.890625 C 15.402344 10.890625 15.46875 11.046875 15.519531 11.191406 C 15.730469 11.789062 15.761719 12.402344 15.628906 13.019531 C 15.609375 13.121094 15.597656 13.226562 15.558594 13.320312 C 15.523438 13.394531 15.464844 13.484375 15.398438 13.507812 C 15.355469 13.519531 15.273438 13.425781 15.214844 13.375 C 15.195312 13.359375 15.1875 13.328125 15.171875 13.296875 Z M 15.171875 13.296875 "/>
<path style=" stroke:none;fill-rule:nonzero;fill:rgb(2.745098%,1.960784%,0.784314%);fill-opacity:1;" d="M 18.777344 12.699219 C 18.714844 12.210938 18.644531 11.738281 18.601562 11.265625 C 18.589844 11.167969 18.648438 11.050781 18.703125 10.960938 C 18.78125 10.839844 18.910156 10.835938 18.976562 10.960938 C 19.078125 11.140625 19.171875 11.332031 19.214844 11.53125 C 19.332031 12.070312 19.382812 12.621094 19.242188 13.167969 C 19.238281 13.1875 19.238281 13.210938 19.226562 13.226562 C 19.191406 13.28125 19.148438 13.375 19.113281 13.371094 C 19.054688 13.367188 18.976562 13.3125 18.953125 13.257812 C 18.882812 13.082031 18.835938 12.894531 18.777344 12.699219 Z M 18.777344 12.699219 "/>
<path style=" stroke:none;fill-rule:nonzero;fill:rgb(99.215686%,98.431373%,89.803922%);fill-opacity:1;" d="M 12.996094 9.421875 C 12.589844 9.457031 12.320312 9.644531 12.199219 10.027344 C 12.199219 10.035156 12.195312 10.050781 12.191406 10.054688 C 12.140625 10.109375 12.074219 10.214844 12.039062 10.207031 C 11.9375 10.179688 11.929688 10.078125 11.96875 9.988281 C 12.109375 9.667969 12.230469 9.34375 12.398438 9.042969 C 12.550781 8.769531 12.917969 8.652344 13.214844 8.730469 C 13.386719 8.773438 13.429688 8.839844 13.425781 9.054688 C 13.421875 9.292969 13.390625 9.347656 13.207031 9.386719 C 13.140625 9.402344 13.074219 9.410156 12.996094 9.421875 Z M 12.996094 9.421875 "/>
<path style=" stroke:none;fill-rule:nonzero;fill:rgb(77.254902%,64.313725%,5.490196%);fill-opacity:1;" d="M 19.804688 13.5625 C 19.601562 13.777344 19.402344 14.011719 19.167969 14.199219 C 18.867188 14.4375 18.519531 14.613281 18.140625 14.675781 C 17.746094 14.738281 17.339844 14.730469 16.921875 14.75 C 17.25 14.6875 17.59375 14.652344 17.929688 14.578125 C 18.503906 14.449219 19.003906 14.160156 19.46875 13.800781 C 19.574219 13.71875 19.683594 13.644531 19.804688 13.5625 Z M 19.804688 13.5625 "/>
<path style=" stroke:none;fill-rule:nonzero;fill:rgb(99.215686%,98.431373%,89.803922%);fill-opacity:1;" d="M 14.050781 8.675781 C 14.023438 8.601562 14.003906 8.539062 13.980469 8.476562 C 14.058594 8.46875 14.136719 8.449219 14.210938 8.460938 C 14.253906 8.464844 14.292969 8.515625 14.332031 8.550781 C 14.40625 8.617188 14.476562 8.699219 14.390625 8.789062 C 14.304688 8.875 14.207031 8.835938 14.121094 8.769531 C 14.09375 8.746094 14.078125 8.710938 14.050781 8.675781 Z M 14.050781 8.675781 "/>
<path style=" stroke:none;fill-rule:nonzero;fill:rgb(77.254902%,64.313725%,5.490196%);fill-opacity:1;" d="M 16.832031 14.722656 C 16.816406 14.730469 16.792969 14.730469 16.757812 14.726562 C 16.777344 14.71875 16.800781 14.71875 16.832031 14.722656 Z M 16.832031 14.722656 "/>
<path style=" stroke:none;fill-rule:nonzero;fill:rgb(77.254902%,64.313725%,5.490196%);fill-opacity:1;" d="M 19.929688 13.382812 C 19.9375 13.386719 19.933594 13.398438 19.925781 13.414062 C 19.917969 13.40625 19.921875 13.394531 19.929688 13.382812 Z M 19.929688 13.382812 "/>
<path style=" stroke:none;fill-rule:nonzero;fill:rgb(77.254902%,64.313725%,5.490196%);fill-opacity:1;" d="M 19.84375 13.511719 C 19.847656 13.519531 19.847656 13.53125 19.835938 13.542969 C 19.828125 13.535156 19.832031 13.523438 19.84375 13.511719 Z M 19.84375 13.511719 "/>
<path style=" stroke:none;fill-rule:nonzero;fill:rgb(11.372549%,12.941176%,6.27451%);fill-opacity:1;" d="M 20.71875 19.5 C 20.800781 19.539062 20.886719 19.578125 20.960938 19.625 C 21.574219 20 22.25 20.191406 22.953125 20.28125 C 23.230469 20.316406 23.507812 20.34375 23.796875 20.375 C 23.714844 20.492188 23.628906 20.625 23.515625 20.726562 C 23.242188 20.972656 22.976562 21.234375 22.671875 21.433594 C 22.28125 21.691406 21.867188 21.925781 21.4375 22.113281 C 20.878906 22.355469 20.304688 22.554688 19.726562 22.75 C 19.375 22.871094 19.003906 22.953125 18.644531 23.050781 C 18.613281 23.058594 18.582031 23.0625 18.550781 23.0625 C 17.90625 23.074219 17.261719 23.101562 16.617188 23.085938 C 16.019531 23.074219 15.417969 23.023438 14.820312 22.96875 C 14.09375 22.898438 13.375 22.765625 12.675781 22.542969 C 12.621094 22.523438 12.5625 22.511719 12.5 22.484375 C 12.527344 22.460938 12.574219 22.460938 12.578125 22.441406 C 12.628906 22.304688 12.671875 22.164062 12.734375 22.007812 C 13.351562 21.980469 13.953125 21.96875 14.566406 21.96875 C 14.664062 21.96875 14.753906 21.960938 14.859375 21.945312 C 15.007812 21.933594 15.140625 21.929688 15.28125 21.933594 C 15.304688 21.933594 15.324219 21.925781 15.359375 21.914062 C 15.550781 21.898438 15.726562 21.878906 15.902344 21.878906 C 17.207031 21.882812 18.511719 21.890625 19.816406 21.898438 C 20.113281 21.902344 20.410156 21.902344 20.707031 21.90625 C 20.84375 21.90625 20.910156 21.84375 20.902344 21.707031 C 20.898438 21.597656 20.894531 21.488281 20.886719 21.378906 C 20.832031 20.753906 20.773438 20.125 20.71875 19.5 Z M 20.71875 19.5 "/>
<path style=" stroke:none;fill-rule:nonzero;fill:rgb(95.294118%,81.176471%,13.333333%);fill-opacity:1;" d="M 20.378906 13.03125 C 20.332031 12.9375 20.378906 12.886719 20.484375 12.867188 C 20.460938 12.917969 20.425781 12.972656 20.378906 13.03125 Z M 20.378906 13.03125 "/>
<path style=" stroke:none;fill-rule:nonzero;fill:rgb(98.039216%,98.039216%,98.039216%);fill-opacity:1;" d="M 14.558594 21.957031 C 13.953125 21.96875 13.351562 21.980469 12.734375 21.992188 C 12.46875 21.996094 12.222656 21.996094 11.972656 21.996094 C 11.78125 21.996094 11.71875 21.925781 11.71875 21.734375 C 11.722656 20.988281 11.71875 20.242188 11.714844 19.46875 C 11.707031 19.3125 11.699219 19.183594 11.691406 19.054688 C 11.683594 18.792969 11.722656 18.753906 11.980469 18.753906 C 12.746094 18.753906 13.507812 18.75 14.273438 18.757812 C 15.308594 18.769531 16.34375 18.796875 17.378906 18.804688 C 18.117188 18.808594 18.855469 18.796875 19.59375 18.785156 C 19.90625 18.78125 20.214844 18.757812 20.527344 18.746094 C 20.644531 18.742188 20.699219 18.792969 20.695312 18.914062 C 20.6875 19.039062 20.699219 19.164062 20.707031 19.285156 C 20.707031 19.347656 20.707031 19.414062 20.714844 19.488281 C 20.773438 20.125 20.832031 20.753906 20.886719 21.378906 C 20.894531 21.488281 20.898438 21.597656 20.902344 21.707031 C 20.910156 21.84375 20.84375 21.90625 20.707031 21.90625 C 20.410156 21.902344 20.113281 21.902344 19.816406 21.898438 C 18.511719 21.890625 17.207031 21.882812 15.902344 21.878906 C 15.726562 21.878906 15.550781 21.898438 15.351562 21.910156 C 15.3125 21.914062 15.292969 21.921875 15.277344 21.925781 C 15.140625 21.929688 15.007812 21.933594 14.84375 21.941406 C 14.730469 21.945312 14.644531 21.953125 14.558594 21.957031 M 18.394531 19.761719 C 18.320312 19.734375 18.234375 19.710938 18.203125 19.8125 C 18.195312 19.847656 18.25 19.933594 18.289062 19.945312 C 18.351562 19.964844 18.429688 19.941406 18.5 19.9375 C 18.472656 19.886719 18.449219 19.835938 18.425781 19.753906 C 18.476562 19.753906 18.535156 19.769531 18.574219 19.746094 C 18.621094 19.71875 18.644531 19.660156 18.679688 19.617188 C 18.613281 19.582031 18.550781 19.535156 18.480469 19.519531 C 18.441406 19.511719 18.355469 19.554688 18.355469 19.574219 C 18.355469 19.625 18.394531 19.675781 18.414062 19.726562 C 18.417969 19.742188 18.417969 19.761719 18.394531 19.761719 M 13.96875 20.238281 C 13.957031 20.292969 13.945312 20.34375 13.929688 20.398438 C 13.988281 20.398438 14.046875 20.414062 14.097656 20.398438 C 14.167969 20.378906 14.234375 20.335938 14.308594 20.300781 C 14.394531 20.582031 14.46875 20.847656 14.558594 21.105469 C 14.578125 21.160156 14.652344 21.191406 14.699219 21.230469 C 14.71875 21.167969 14.765625 21.101562 14.753906 21.046875 C 14.707031 20.855469 14.644531 20.667969 14.585938 20.480469 C 14.5 20.210938 14.5 20.214844 14.769531 20.125 C 14.8125 20.109375 14.839844 20.039062 14.875 19.996094 C 14.824219 19.972656 14.777344 19.921875 14.730469 19.921875 C 14.640625 19.925781 14.550781 19.960938 14.457031 19.980469 C 14.441406 19.921875 14.425781 19.878906 14.410156 19.820312 C 14.460938 19.796875 14.507812 19.777344 14.554688 19.757812 C 14.636719 19.722656 14.792969 19.730469 14.742188 19.589844 C 14.695312 19.449219 14.5625 19.523438 14.472656 19.5625 C 14.367188 19.605469 14.308594 19.59375 14.273438 19.480469 C 14.261719 19.449219 14.238281 19.410156 14.210938 19.398438 C 14.167969 19.382812 14.109375 19.371094 14.074219 19.390625 C 14.050781 19.402344 14.046875 19.46875 14.050781 19.511719 C 14.054688 19.546875 14.078125 19.578125 14.097656 19.609375 C 14.152344 19.691406 14.125 19.730469 14.042969 19.777344 C 13.957031 19.832031 13.882812 19.910156 13.8125 19.964844 C 13.738281 19.945312 13.660156 19.917969 13.582031 19.910156 C 13.191406 19.886719 12.886719 20.09375 12.589844 20.308594 C 12.558594 20.332031 12.566406 20.40625 12.550781 20.457031 C 12.605469 20.460938 12.671875 20.488281 12.714844 20.464844 C 12.84375 20.402344 12.960938 20.320312 13.101562 20.238281 C 13.195312 20.511719 13.210938 20.746094 13.015625 20.96875 C 12.976562 21.007812 12.953125 21.117188 12.980469 21.148438 C 13.042969 21.222656 13.117188 21.167969 13.175781 21.109375 C 13.394531 20.875 13.417969 20.601562 13.351562 20.308594 C 13.339844 20.257812 13.328125 20.210938 13.320312 20.175781 C 13.476562 20.035156 13.730469 20.269531 13.835938 20 C 13.984375 20.175781 14.078125 19.949219 14.203125 19.949219 C 14.277344 20.039062 14.257812 20.09375 14.152344 20.132812 C 14.09375 20.15625 14.042969 20.191406 13.96875 20.238281 M 16.859375 20.054688 C 16.929688 20.027344 17 20.003906 17.089844 19.972656 C 17.082031 20.035156 17.082031 20.070312 17.078125 20.105469 C 17.023438 20.371094 16.964844 20.632812 16.921875 20.898438 C 16.914062 20.949219 16.96875 21.007812 16.996094 21.058594 C 17.039062 21.019531 17.105469 20.984375 17.121094 20.9375 C 17.167969 20.808594 17.191406 20.675781 17.21875 20.542969 C 17.253906 20.359375 17.285156 20.175781 17.304688 19.992188 C 17.324219 19.855469 17.242188 19.738281 17.117188 19.765625 C 16.929688 19.804688 16.753906 19.898438 16.578125 19.984375 C 16.558594 19.992188 16.546875 20.085938 16.570312 20.113281 C 16.585938 20.140625 16.660156 20.144531 16.699219 20.136719 C 16.75 20.125 16.792969 20.089844 16.859375 20.054688 M 19.851562 19.917969 C 19.820312 19.84375 19.804688 19.738281 19.691406 19.78125 C 19.65625 19.792969 19.625 19.882812 19.632812 19.929688 C 19.664062 20.21875 19.703125 20.507812 19.753906 20.792969 C 19.765625 20.859375 19.832031 20.917969 19.871094 20.984375 C 19.941406 20.9375 20.015625 20.898438 20.074219 20.847656 C 20.152344 20.777344 20.222656 20.699219 20.285156 20.617188 C 20.316406 20.578125 20.332031 20.527344 20.355469 20.480469 C 20.304688 20.460938 20.25 20.417969 20.210938 20.429688 C 20.125 20.453125 20.046875 20.503906 19.960938 20.546875 C 19.925781 20.347656 19.890625 20.144531 19.851562 19.917969 M 18.523438 20.433594 C 18.382812 20.324219 18.246094 20.210938 18.097656 20.117188 C 17.9375 20.015625 17.738281 20.058594 17.660156 20.199219 C 17.636719 20.238281 17.65625 20.300781 17.65625 20.351562 C 17.707031 20.351562 17.773438 20.371094 17.796875 20.347656 C 17.902344 20.234375 17.992188 20.285156 18.082031 20.359375 C 18.230469 20.480469 18.378906 20.605469 18.535156 20.714844 C 18.582031 20.746094 18.664062 20.734375 18.726562 20.738281 C 18.710938 20.675781 18.703125 20.609375 18.671875 20.554688 C 18.640625 20.507812 18.585938 20.480469 18.523438 20.433594 M 19.308594 20.300781 C 19.289062 20.433594 19.265625 20.566406 19.253906 20.699219 C 19.25 20.765625 19.257812 20.878906 19.292969 20.894531 C 19.390625 20.941406 19.445312 20.847656 19.457031 20.765625 C 19.484375 20.554688 19.507812 20.34375 19.503906 20.132812 C 19.5 20.042969 19.441406 19.949219 19.386719 19.871094 C 19.363281 19.839844 19.28125 19.84375 19.226562 19.832031 C 19.226562 19.886719 19.210938 19.945312 19.222656 20 C 19.246094 20.09375 19.28125 20.183594 19.308594 20.300781 M 15.761719 20.234375 C 15.789062 20.230469 15.824219 20.234375 15.851562 20.21875 C 15.910156 20.1875 16.015625 20.148438 16.019531 20.109375 C 16.019531 19.996094 15.914062 19.988281 15.835938 20.007812 C 15.660156 20.050781 15.488281 20.105469 15.320312 20.171875 C 15.285156 20.183594 15.273438 20.269531 15.253906 20.320312 C 15.308594 20.332031 15.367188 20.363281 15.414062 20.351562 C 15.523438 20.328125 15.628906 20.277344 15.761719 20.234375 M 16.980469 19.394531 C 16.816406 19.457031 16.652344 19.511719 16.496094 19.585938 C 16.457031 19.601562 16.457031 19.695312 16.441406 19.753906 C 16.5 19.753906 16.5625 19.765625 16.617188 19.75 C 16.746094 19.710938 16.867188 19.65625 16.988281 19.605469 C 17.042969 19.578125 17.089844 19.542969 17.140625 19.511719 C 17.097656 19.472656 17.050781 19.433594 16.980469 19.394531 M 13.003906 19.550781 C 12.902344 19.613281 12.796875 19.667969 12.703125 19.738281 C 12.671875 19.765625 12.679688 19.835938 12.667969 19.886719 C 12.71875 19.894531 12.777344 19.917969 12.816406 19.902344 C 12.976562 19.835938 13.128906 19.761719 13.277344 19.683594 C 13.3125 19.664062 13.355469 19.601562 13.34375 19.570312 C 13.335938 19.535156 13.273438 19.488281 13.234375 19.488281 C 13.164062 19.492188 13.097656 19.523438 13.003906 19.550781 Z M 13.003906 19.550781 "/>
<path style=" stroke:none;fill-rule:nonzero;fill:rgb(2.745098%,9.019608%,3.137255%);fill-opacity:1;" d="M 20.71875 19.285156 C 20.699219 19.164062 20.6875 19.039062 20.695312 18.914062 C 20.699219 18.792969 20.644531 18.742188 20.527344 18.746094 C 20.214844 18.757812 19.90625 18.78125 19.59375 18.785156 C 18.855469 18.796875 18.117188 18.808594 17.378906 18.804688 C 16.34375 18.796875 15.308594 18.769531 14.273438 18.757812 C 13.507812 18.75 12.746094 18.753906 11.980469 18.753906 C 11.722656 18.753906 11.683594 18.792969 11.691406 19.054688 C 11.699219 19.183594 11.707031 19.3125 11.710938 19.453125 C 11.582031 19.417969 11.457031 19.367188 11.324219 19.304688 C 11.238281 19.171875 11.171875 19.046875 11.09375 18.933594 C 11.007812 18.8125 10.886719 18.710938 10.832031 18.578125 C 10.78125 18.453125 10.8125 18.296875 10.777344 18.164062 C 10.714844 17.933594 10.785156 17.722656 10.824219 17.503906 C 10.847656 17.378906 10.855469 17.257812 10.984375 17.175781 C 11.0625 17.128906 11.054688 17.046875 10.953125 16.996094 C 10.847656 16.949219 10.746094 16.886719 10.648438 16.824219 C 10.535156 16.757812 10.425781 16.6875 10.300781 16.609375 C 10.285156 16.613281 10.25 16.632812 10.195312 16.65625 C 10.238281 16.5 10.15625 16.46875 10.039062 16.46875 C 10.007812 16.464844 9.96875 16.453125 9.949219 16.429688 C 9.847656 16.308594 9.753906 16.1875 9.65625 16.050781 C 9.65625 16.015625 9.65625 15.992188 9.65625 15.96875 C 10.75 17 12.113281 17.441406 13.535156 17.78125 C 14.464844 18 15.40625 18.0625 16.351562 18.132812 C 17.21875 18.199219 18.085938 18.160156 18.945312 18 C 19.398438 17.917969 19.847656 17.796875 20.296875 17.679688 C 20.773438 17.558594 21.226562 17.382812 21.65625 17.097656 C 21.703125 17.070312 21.722656 17.046875 21.746094 17.023438 C 21.832031 16.953125 21.917969 16.882812 22.011719 16.808594 C 22.058594 16.8125 22.097656 16.820312 22.164062 16.832031 C 22.070312 16.914062 22.070312 17.027344 21.902344 17.027344 C 21.722656 17.03125 21.6875 17.230469 21.742188 17.410156 C 21.8125 17.625 21.832031 17.855469 21.871094 18.078125 C 21.875 18.089844 21.867188 18.109375 21.859375 18.121094 C 21.742188 18.347656 21.628906 18.582031 21.5 18.804688 C 21.449219 18.894531 21.355469 18.960938 21.28125 19.050781 C 21.097656 19.136719 20.914062 19.210938 20.71875 19.285156 Z M 20.71875 19.285156 "/>
<path style=" stroke:none;fill-rule:nonzero;fill:rgb(5.098039%,10.196078%,5.490196%);fill-opacity:1;" d="M 9.65625 16.0625 C 9.753906 16.1875 9.847656 16.308594 9.949219 16.429688 C 9.96875 16.453125 10.007812 16.464844 10.039062 16.46875 C 10.15625 16.46875 10.238281 16.5 10.195312 16.65625 C 10.25 16.632812 10.285156 16.613281 10.300781 16.609375 C 10.425781 16.6875 10.535156 16.757812 10.648438 16.824219 C 10.746094 16.886719 10.847656 16.949219 10.953125 16.996094 C 11.054688 17.046875 11.0625 17.128906 10.984375 17.175781 C 10.855469 17.257812 10.847656 17.378906 10.824219 17.503906 C 10.785156 17.722656 10.714844 17.933594 10.777344 18.164062 C 10.8125 18.296875 10.78125 18.453125 10.832031 18.578125 C 10.886719 18.710938 11.007812 18.8125 11.09375 18.933594 C 11.171875 19.046875 11.238281 19.171875 11.3125 19.300781 C 10.96875 19.175781 10.617188 19.050781 10.28125 18.894531 C 10.132812 18.824219 10.015625 18.6875 9.878906 18.5625 C 9.464844 17.742188 9.324219 16.921875 9.65625 16.0625 Z M 9.65625 16.0625 "/>
<path style=" stroke:none;fill-rule:nonzero;fill:rgb(10.980392%,16.862745%,10.980392%);fill-opacity:1;" d="M 9.65625 16.050781 C 9.324219 16.921875 9.464844 17.742188 9.875 18.550781 C 9.632812 18.507812 9.503906 18.300781 9.34375 18.144531 C 9.195312 18 9.050781 17.832031 8.96875 17.644531 C 8.84375 17.375 8.734375 17.085938 8.699219 16.796875 C 8.664062 16.492188 8.726562 16.179688 8.75 15.855469 C 8.84375 15.667969 8.9375 15.488281 9.035156 15.3125 C 9.054688 15.273438 9.101562 15.25 9.144531 15.21875 C 9.320312 15.460938 9.484375 15.707031 9.652344 15.960938 C 9.65625 15.992188 9.65625 16.015625 9.65625 16.050781 Z M 9.65625 16.050781 "/>
<path style=" stroke:none;fill-rule:nonzero;fill:rgb(99.215686%,98.431373%,89.803922%);fill-opacity:1;" d="M 9.710938 14.871094 C 9.707031 14.867188 9.703125 14.859375 9.691406 14.832031 C 9.667969 14.773438 9.652344 14.738281 9.636719 14.703125 C 9.644531 14.695312 9.65625 14.6875 9.664062 14.679688 C 9.714844 14.714844 9.769531 14.75 9.820312 14.785156 C 9.871094 14.839844 9.925781 14.894531 9.992188 14.964844 C 10.050781 15.019531 10.097656 15.054688 10.144531 15.09375 C 10.144531 15.09375 10.152344 15.097656 10.160156 15.109375 C 10.199219 15.144531 10.234375 15.167969 10.265625 15.191406 C 10.316406 15.222656 10.367188 15.257812 10.429688 15.308594 C 10.472656 15.375 10.503906 15.425781 10.535156 15.476562 C 10.519531 15.472656 10.503906 15.46875 10.464844 15.453125 C 10.386719 15.417969 10.328125 15.398438 10.265625 15.375 C 10.257812 15.371094 10.25 15.367188 10.226562 15.347656 C 10.148438 15.285156 10.082031 15.238281 10.015625 15.1875 C 9.953125 15.125 9.890625 15.0625 9.816406 14.984375 C 9.777344 14.9375 9.746094 14.90625 9.710938 14.871094 Z M 9.710938 14.871094 "/>
<path style=" stroke:none;fill-rule:nonzero;fill:rgb(78.431373%,72.941176%,65.490196%);fill-opacity:1;" d="M 10.539062 15.488281 C 10.503906 15.425781 10.472656 15.375 10.4375 15.316406 C 10.601562 15.367188 10.753906 15.445312 10.859375 15.625 C 10.691406 15.667969 10.617188 15.578125 10.539062 15.488281 Z M 10.539062 15.488281 "/>
<path style=" stroke:none;fill-rule:nonzero;fill:rgb(78.431373%,72.941176%,65.490196%);fill-opacity:1;" d="M 14.09375 16.761719 C 14.050781 16.734375 14.015625 16.714844 13.984375 16.695312 C 13.992188 16.679688 13.996094 16.664062 14.003906 16.644531 C 14.113281 16.675781 14.226562 16.707031 14.339844 16.738281 C 14.335938 16.757812 14.332031 16.78125 14.328125 16.800781 C 14.253906 16.789062 14.179688 16.777344 14.09375 16.761719 Z M 14.09375 16.761719 "/>
<path style=" stroke:none;fill-rule:nonzero;fill:rgb(78.431373%,72.941176%,65.490196%);fill-opacity:1;" d="M 9.824219 14.773438 C 9.769531 14.75 9.714844 14.714844 9.664062 14.679688 C 9.65625 14.6875 9.644531 14.695312 9.636719 14.703125 C 9.652344 14.738281 9.667969 14.773438 9.683594 14.820312 C 9.640625 14.78125 9.597656 14.730469 9.539062 14.667969 C 9.707031 14.605469 9.78125 14.648438 9.824219 14.773438 Z M 9.824219 14.773438 "/>
<path style=" stroke:none;fill-rule:nonzero;fill:rgb(78.431373%,72.941176%,65.490196%);fill-opacity:1;" d="M 10.015625 15.199219 C 10.082031 15.238281 10.148438 15.285156 10.214844 15.339844 C 10.152344 15.300781 10.082031 15.253906 10.015625 15.199219 Z M 10.015625 15.199219 "/>
<path style=" stroke:none;fill-rule:nonzero;fill:rgb(78.431373%,72.941176%,65.490196%);fill-opacity:1;" d="M 10.265625 15.382812 C 10.328125 15.398438 10.386719 15.417969 10.453125 15.449219 C 10.394531 15.433594 10.328125 15.414062 10.265625 15.382812 Z M 10.265625 15.382812 "/>
<path style=" stroke:none;fill-rule:nonzero;fill:rgb(78.431373%,72.941176%,65.490196%);fill-opacity:1;" d="M 10.144531 15.082031 C 10.097656 15.054688 10.050781 15.019531 10 14.972656 C 10.046875 15 10.097656 15.039062 10.144531 15.082031 Z M 10.144531 15.082031 "/>
<path style=" stroke:none;fill-rule:nonzero;fill:rgb(78.431373%,72.941176%,65.490196%);fill-opacity:1;" d="M 9.707031 14.882812 C 9.746094 14.90625 9.777344 14.9375 9.808594 14.976562 C 9.773438 14.953125 9.738281 14.921875 9.707031 14.882812 Z M 9.707031 14.882812 "/>
<path style=" stroke:none;fill-rule:nonzero;fill:rgb(78.431373%,72.941176%,65.490196%);fill-opacity:1;" d="M 10.269531 15.179688 C 10.234375 15.167969 10.199219 15.144531 10.164062 15.113281 C 10.195312 15.125 10.234375 15.148438 10.269531 15.179688 Z M 10.269531 15.179688 "/>
<path style=" stroke:none;fill-rule:nonzero;fill:rgb(5.098039%,10.196078%,5.490196%);fill-opacity:1;" d="M 21.738281 17.027344 C 21.722656 17.046875 21.703125 17.070312 21.667969 17.09375 C 21.679688 17.070312 21.703125 17.050781 21.738281 17.027344 Z M 21.738281 17.027344 "/>
<path style=" stroke:none;fill-rule:nonzero;fill:rgb(39.607843%,31.764706%,20.784314%);fill-opacity:1;" d="M 17.023438 7.121094 C 17.050781 7.128906 17.066406 7.136719 17.085938 7.164062 C 17.113281 7.351562 17.132812 7.519531 17.152344 7.6875 C 17.125 7.6875 17.101562 7.6875 17.0625 7.675781 C 17.03125 7.4375 16.941406 7.359375 16.777344 7.4375 C 16.742188 7.453125 16.71875 7.5 16.691406 7.53125 C 16.726562 7.550781 16.761719 7.570312 16.800781 7.59375 C 16.847656 7.621094 16.898438 7.644531 16.949219 7.671875 C 16.894531 7.710938 16.839844 7.773438 16.78125 7.777344 C 16.558594 7.800781 16.332031 7.804688 16.105469 7.808594 C 16.0625 7.8125 16.023438 7.785156 15.988281 7.738281 C 16.074219 7.722656 16.164062 7.71875 16.246094 7.6875 C 16.292969 7.671875 16.359375 7.613281 16.355469 7.578125 C 16.351562 7.503906 16.296875 7.445312 16.195312 7.488281 C 16.097656 7.464844 16.007812 7.4375 15.921875 7.398438 C 15.90625 7.394531 15.917969 7.34375 15.933594 7.320312 C 16.144531 7.351562 16.335938 7.398438 16.53125 7.398438 C 16.65625 7.402344 16.816406 7.394531 16.875 7.199219 C 16.8125 7.171875 16.753906 7.148438 16.695312 7.125 C 16.679688 7.019531 16.746094 7.015625 16.816406 7.039062 C 16.882812 7.058594 16.945312 7.09375 17.023438 7.121094 Z M 17.023438 7.121094 "/>
<path style=" stroke:none;fill-rule:nonzero;fill:rgb(39.607843%,31.764706%,20.784314%);fill-opacity:1;" d="M 17.207031 8.0625 C 17.214844 8.089844 17.207031 8.117188 17.195312 8.148438 C 16.800781 8.339844 16.40625 8.367188 15.988281 8.210938 C 15.882812 8.136719 15.785156 8.066406 15.683594 7.984375 C 15.71875 7.972656 15.769531 7.949219 15.800781 7.96875 C 16.1875 8.1875 16.597656 8.144531 17.011719 8.085938 C 17.070312 8.078125 17.132812 8.070312 17.207031 8.0625 Z M 17.207031 8.0625 "/>
<path style=" stroke:none;fill-rule:nonzero;fill:rgb(65.490196%,56.470588%,43.921569%);fill-opacity:1;" d="M 17.164062 7.691406 C 17.132812 7.519531 17.113281 7.351562 17.09375 7.167969 C 17.125 7.140625 17.15625 7.125 17.191406 7.097656 C 17.230469 7.128906 17.28125 7.167969 17.289062 7.214844 C 17.320312 7.398438 17.339844 7.582031 17.359375 7.765625 C 17.339844 7.773438 17.320312 7.78125 17.300781 7.789062 C 17.257812 7.757812 17.214844 7.726562 17.164062 7.691406 Z M 17.164062 7.691406 "/>
<path style=" stroke:none;fill-rule:nonzero;fill:rgb(78.431373%,72.941176%,65.490196%);fill-opacity:1;" d="M 16.957031 7.675781 C 16.898438 7.644531 16.847656 7.621094 16.800781 7.59375 C 16.761719 7.570312 16.726562 7.550781 16.691406 7.53125 C 16.71875 7.5 16.742188 7.453125 16.777344 7.4375 C 16.941406 7.359375 17.03125 7.4375 17.050781 7.671875 C 17.023438 7.683594 16.992188 7.679688 16.957031 7.675781 Z M 16.957031 7.675781 "/>
<path style=" stroke:none;fill-rule:nonzero;fill:rgb(39.607843%,31.764706%,20.784314%);fill-opacity:1;" d="M 17.246094 8.054688 C 17.246094 8.058594 17.234375 8.066406 17.226562 8.066406 C 17.226562 8.0625 17.234375 8.054688 17.246094 8.054688 Z M 17.246094 8.054688 "/>
<path style=" stroke:none;fill-rule:nonzero;fill:rgb(39.607843%,31.764706%,20.784314%);fill-opacity:1;" d="M 17.488281 8.46875 C 17.324219 8.714844 17.0625 8.804688 16.785156 8.859375 C 16.292969 8.953125 15.8125 8.917969 15.371094 8.667969 C 15.324219 8.640625 15.292969 8.589844 15.25 8.539062 C 15.449219 8.59375 15.644531 8.675781 15.851562 8.722656 C 16.394531 8.84375 16.917969 8.78125 17.402344 8.488281 C 17.421875 8.476562 17.449219 8.476562 17.488281 8.46875 Z M 17.488281 8.46875 "/>
<path style=" stroke:none;fill-rule:nonzero;fill:rgb(78.431373%,72.941176%,65.490196%);fill-opacity:1;" d="M 16.394531 8.539062 C 16.210938 8.609375 16.203125 8.421875 16.058594 8.378906 C 16.394531 8.378906 16.675781 8.378906 16.957031 8.378906 C 16.960938 8.394531 16.964844 8.410156 16.96875 8.429688 C 16.886719 8.5 16.800781 8.566406 16.671875 8.550781 C 16.582031 8.542969 16.496094 8.539062 16.394531 8.539062 Z M 16.394531 8.539062 "/>
<path style=" stroke:none;fill-rule:nonzero;fill:rgb(65.490196%,56.470588%,43.921569%);fill-opacity:1;" d="M 15.183594 8.511719 C 15.1875 8.5 15.199219 8.496094 15.207031 8.496094 C 15.210938 8.503906 15.203125 8.515625 15.191406 8.53125 C 15.1875 8.53125 15.1875 8.523438 15.183594 8.511719 Z M 15.183594 8.511719 "/>
<path style=" stroke:none;fill-rule:nonzero;fill:rgb(65.490196%,56.470588%,43.921569%);fill-opacity:1;" d="M 17.152344 6.238281 C 17.226562 6.214844 17.304688 6.199219 17.398438 6.1875 C 17.347656 6.300781 17.257812 6.308594 17.152344 6.238281 Z M 17.152344 6.238281 "/>
<path style=" stroke:none;fill-rule:nonzero;fill:rgb(49.019608%,41.176471%,30.980392%);fill-opacity:1;" d="M 16.683594 7.125 C 16.753906 7.148438 16.8125 7.171875 16.875 7.199219 C 16.816406 7.394531 16.65625 7.402344 16.53125 7.398438 C 16.335938 7.398438 16.144531 7.351562 15.945312 7.316406 C 16.148438 7.238281 16.355469 7.167969 16.566406 7.101562 C 16.597656 7.09375 16.636719 7.117188 16.683594 7.125 Z M 16.683594 7.125 "/>
<path style=" stroke:none;fill-rule:nonzero;fill:rgb(39.607843%,31.764706%,20.784314%);fill-opacity:1;" d="M 16.179688 6.851562 C 16.171875 6.839844 16.171875 6.828125 16.171875 6.820312 C 16.359375 6.820312 16.546875 6.90625 16.746094 6.8125 C 16.617188 6.992188 16.351562 7.015625 16.179688 6.851562 Z M 16.179688 6.851562 "/>
<path style=" stroke:none;fill-rule:nonzero;fill:rgb(16.862745%,18.431373%,11.764706%);fill-opacity:1;" d="M 14.566406 21.96875 C 14.644531 21.953125 14.730469 21.945312 14.832031 21.945312 C 14.753906 21.960938 14.664062 21.96875 14.566406 21.96875 Z M 14.566406 21.96875 "/>
<path style=" stroke:none;fill-rule:nonzero;fill:rgb(16.862745%,18.431373%,11.764706%);fill-opacity:1;" d="M 15.28125 21.933594 C 15.292969 21.921875 15.3125 21.914062 15.335938 21.914062 C 15.324219 21.925781 15.304688 21.933594 15.28125 21.933594 Z M 15.28125 21.933594 "/>
<path style=" stroke:none;fill-rule:nonzero;fill:rgb(9.019608%,9.019608%,9.019608%);fill-opacity:1;" d="M 13.976562 20.230469 C 14.042969 20.191406 14.09375 20.15625 14.152344 20.132812 C 14.257812 20.09375 14.277344 20.039062 14.203125 19.949219 C 14.078125 19.949219 13.984375 20.175781 13.835938 20 C 13.730469 20.269531 13.476562 20.035156 13.320312 20.175781 C 13.328125 20.210938 13.339844 20.257812 13.351562 20.308594 C 13.417969 20.601562 13.394531 20.875 13.175781 21.109375 C 13.117188 21.167969 13.042969 21.222656 12.980469 21.148438 C 12.953125 21.117188 12.976562 21.007812 13.015625 20.96875 C 13.210938 20.746094 13.195312 20.511719 13.101562 20.238281 C 12.960938 20.320312 12.84375 20.402344 12.714844 20.464844 C 12.671875 20.488281 12.605469 20.460938 12.550781 20.457031 C 12.566406 20.40625 12.558594 20.332031 12.589844 20.308594 C 12.886719 20.09375 13.191406 19.886719 13.582031 19.910156 C 13.660156 19.917969 13.738281 19.945312 13.8125 19.964844 C 13.882812 19.910156 13.957031 19.832031 14.042969 19.777344 C 14.125 19.730469 14.152344 19.691406 14.097656 19.609375 C 14.078125 19.578125 14.054688 19.546875 14.050781 19.511719 C 14.046875 19.46875 14.050781 19.402344 14.074219 19.390625 C 14.109375 19.371094 14.167969 19.382812 14.210938 19.398438 C 14.238281 19.410156 14.261719 19.449219 14.273438 19.480469 C 14.308594 19.59375 14.367188 19.605469 14.472656 19.5625 C 14.5625 19.523438 14.695312 19.449219 14.742188 19.589844 C 14.792969 19.730469 14.636719 19.722656 14.554688 19.757812 C 14.507812 19.777344 14.460938 19.796875 14.410156 19.820312 C 14.425781 19.878906 14.441406 19.921875 14.457031 19.980469 C 14.550781 19.960938 14.640625 19.925781 14.730469 19.921875 C 14.777344 19.921875 14.824219 19.972656 14.875 19.996094 C 14.839844 20.039062 14.8125 20.109375 14.769531 20.125 C 14.5 20.214844 14.5 20.210938 14.585938 20.480469 C 14.644531 20.667969 14.707031 20.855469 14.753906 21.046875 C 14.765625 21.101562 14.71875 21.167969 14.699219 21.230469 C 14.652344 21.191406 14.578125 21.160156 14.558594 21.105469 C 14.46875 20.847656 14.394531 20.582031 14.308594 20.300781 C 14.234375 20.335938 14.167969 20.378906 14.097656 20.398438 C 14.046875 20.414062 13.988281 20.398438 13.929688 20.398438 C 13.945312 20.34375 13.957031 20.292969 13.976562 20.230469 Z M 13.976562 20.230469 "/>
<path style=" stroke:none;fill-rule:nonzero;fill:rgb(9.019608%,9.019608%,9.019608%);fill-opacity:1;" d="M 16.847656 20.058594 C 16.792969 20.089844 16.75 20.125 16.699219 20.136719 C 16.660156 20.144531 16.585938 20.140625 16.570312 20.113281 C 16.546875 20.085938 16.558594 19.992188 16.578125 19.984375 C 16.753906 19.898438 16.929688 19.804688 17.117188 19.765625 C 17.242188 19.738281 17.324219 19.855469 17.304688 19.992188 C 17.285156 20.175781 17.253906 20.359375 17.21875 20.542969 C 17.191406 20.675781 17.167969 20.808594 17.121094 20.9375 C 17.105469 20.984375 17.039062 21.019531 16.996094 21.058594 C 16.96875 21.007812 16.914062 20.949219 16.921875 20.898438 C 16.964844 20.632812 17.023438 20.371094 17.078125 20.105469 C 17.082031 20.070312 17.082031 20.035156 17.089844 19.972656 C 17 20.003906 16.929688 20.027344 16.847656 20.058594 Z M 16.847656 20.058594 "/>
<path style=" stroke:none;fill-rule:nonzero;fill:rgb(9.019608%,9.019608%,9.019608%);fill-opacity:1;" d="M 19.855469 19.929688 C 19.890625 20.144531 19.925781 20.347656 19.960938 20.546875 C 20.046875 20.503906 20.125 20.453125 20.210938 20.429688 C 20.25 20.417969 20.304688 20.460938 20.355469 20.480469 C 20.332031 20.527344 20.316406 20.578125 20.285156 20.617188 C 20.222656 20.699219 20.152344 20.777344 20.074219 20.847656 C 20.015625 20.898438 19.941406 20.9375 19.871094 20.984375 C 19.832031 20.917969 19.765625 20.859375 19.753906 20.792969 C 19.703125 20.507812 19.664062 20.21875 19.632812 19.929688 C 19.625 19.882812 19.65625 19.792969 19.691406 19.78125 C 19.804688 19.738281 19.820312 19.84375 19.855469 19.929688 Z M 19.855469 19.929688 "/>
<path style=" stroke:none;fill-rule:nonzero;fill:rgb(9.019608%,9.019608%,9.019608%);fill-opacity:1;" d="M 18.53125 20.4375 C 18.585938 20.480469 18.640625 20.507812 18.671875 20.554688 C 18.703125 20.609375 18.710938 20.675781 18.726562 20.738281 C 18.664062 20.734375 18.582031 20.746094 18.535156 20.714844 C 18.378906 20.605469 18.230469 20.480469 18.082031 20.359375 C 17.992188 20.285156 17.902344 20.234375 17.796875 20.347656 C 17.773438 20.371094 17.707031 20.351562 17.65625 20.351562 C 17.65625 20.300781 17.636719 20.238281 17.660156 20.199219 C 17.738281 20.058594 17.9375 20.015625 18.097656 20.117188 C 18.246094 20.210938 18.382812 20.324219 18.53125 20.4375 Z M 18.53125 20.4375 "/>
<path style=" stroke:none;fill-rule:nonzero;fill:rgb(9.019608%,9.019608%,9.019608%);fill-opacity:1;" d="M 19.308594 20.289062 C 19.28125 20.183594 19.246094 20.09375 19.222656 20 C 19.210938 19.945312 19.226562 19.886719 19.226562 19.832031 C 19.28125 19.84375 19.363281 19.839844 19.386719 19.871094 C 19.441406 19.949219 19.5 20.042969 19.503906 20.132812 C 19.507812 20.34375 19.484375 20.554688 19.457031 20.765625 C 19.445312 20.847656 19.390625 20.941406 19.292969 20.894531 C 19.257812 20.878906 19.25 20.765625 19.253906 20.699219 C 19.265625 20.566406 19.289062 20.433594 19.308594 20.289062 Z M 19.308594 20.289062 "/>
<path style=" stroke:none;fill-rule:nonzero;fill:rgb(9.019608%,9.019608%,9.019608%);fill-opacity:1;" d="M 15.746094 20.238281 C 15.628906 20.277344 15.523438 20.328125 15.414062 20.351562 C 15.367188 20.363281 15.308594 20.332031 15.253906 20.320312 C 15.273438 20.269531 15.285156 20.183594 15.320312 20.171875 C 15.488281 20.105469 15.660156 20.050781 15.835938 20.007812 C 15.914062 19.988281 16.019531 19.996094 16.019531 20.109375 C 16.015625 20.148438 15.910156 20.1875 15.851562 20.21875 C 15.824219 20.234375 15.789062 20.230469 15.746094 20.238281 Z M 15.746094 20.238281 "/>
<path style=" stroke:none;fill-rule:nonzero;fill:rgb(9.019608%,9.019608%,9.019608%);fill-opacity:1;" d="M 16.992188 19.394531 C 17.050781 19.433594 17.097656 19.472656 17.140625 19.511719 C 17.089844 19.542969 17.042969 19.578125 16.988281 19.605469 C 16.867188 19.65625 16.746094 19.710938 16.617188 19.75 C 16.5625 19.765625 16.5 19.753906 16.441406 19.753906 C 16.457031 19.695312 16.457031 19.601562 16.496094 19.585938 C 16.652344 19.511719 16.816406 19.457031 16.992188 19.394531 Z M 16.992188 19.394531 "/>
<path style=" stroke:none;fill-rule:nonzero;fill:rgb(9.019608%,9.019608%,9.019608%);fill-opacity:1;" d="M 13.015625 19.546875 C 13.097656 19.523438 13.164062 19.492188 13.234375 19.488281 C 13.273438 19.488281 13.335938 19.535156 13.34375 19.570312 C 13.355469 19.601562 13.3125 19.664062 13.277344 19.683594 C 13.128906 19.761719 12.976562 19.835938 12.816406 19.902344 C 12.777344 19.917969 12.71875 19.894531 12.667969 19.886719 C 12.679688 19.835938 12.671875 19.765625 12.703125 19.738281 C 12.796875 19.667969 12.902344 19.613281 13.015625 19.546875 Z M 13.015625 19.546875 "/>
<path style=" stroke:none;fill-rule:nonzero;fill:rgb(16.862745%,18.431373%,11.764706%);fill-opacity:1;" d="M 18.417969 19.78125 C 18.417969 19.761719 18.417969 19.742188 18.414062 19.726562 C 18.394531 19.675781 18.355469 19.625 18.355469 19.574219 C 18.355469 19.554688 18.441406 19.511719 18.480469 19.519531 C 18.550781 19.535156 18.613281 19.582031 18.679688 19.617188 C 18.644531 19.660156 18.621094 19.71875 18.574219 19.746094 C 18.535156 19.769531 18.476562 19.753906 18.425781 19.769531 C 18.421875 19.78125 18.417969 19.78125 18.417969 19.78125 Z M 18.417969 19.78125 "/>
<path style=" stroke:none;fill-rule:nonzero;fill:rgb(10.980392%,16.862745%,10.980392%);fill-opacity:1;" d="M 18.40625 19.769531 C 18.417969 19.78125 18.421875 19.78125 18.425781 19.78125 C 18.449219 19.835938 18.472656 19.886719 18.5 19.9375 C 18.429688 19.941406 18.351562 19.964844 18.289062 19.945312 C 18.25 19.933594 18.195312 19.847656 18.203125 19.8125 C 18.234375 19.710938 18.320312 19.734375 18.40625 19.769531 Z M 18.40625 19.769531 "/>
</g>
</svg>
